<svg width="428" height="489" viewBox="0 0 428 489" fill="none" xmlns="http://www.w3.org/2000/svg">
<g filter="url(#filter0_d)">
<path d="M236.847 42.1977C261.511 47.1989 328.291 288.549 327.781 299.347C327.781 299.347 327.781 313.306 317.195 314.818C325.067 339.245 322.79 345.787 111.191 384.825C101.997 386.457 86.365 330.4 53.3701 223.349C-5.79845 73.2567 21.6145 95.7714 74.2691 73.2568C95.9804 63.9731 176.28 42.0841 195.673 42.1977C215.066 42.3113 212.183 37.1965 236.847 42.1977Z" fill="#EAB79E"/>
<path d="M236.847 42.1977C261.511 47.1989 328.291 288.549 327.781 299.347C327.781 299.347 327.781 313.306 317.195 314.818C325.067 339.245 322.79 345.787 111.191 384.825C101.997 386.457 86.365 330.4 53.3701 223.349C-5.79845 73.2567 21.6145 95.7714 74.2691 73.2568C95.9804 63.9731 176.28 42.0841 195.673 42.1977C215.066 42.3113 212.183 37.1965 236.847 42.1977Z" fill="url(#paint0_radial)" fill-opacity="0.5"/>
<path d="M316.915 315.359C324.786 339.787 322.509 346.328 110.91 385.366C111.527 383.892 111.555 382.126 111.681 380.228C308.229 334.087 316.915 342.501 303.344 318.876C310.407 316.877 315.204 315.604 316.915 315.359Z" fill="#EAB79E"/>
<path d="M316.915 315.359C324.786 339.787 322.509 346.328 110.91 385.366C111.527 383.892 111.555 382.126 111.681 380.228C308.229 334.087 316.915 342.501 303.344 318.876C310.407 316.877 315.204 315.604 316.915 315.359Z" fill="url(#paint1_radial)"/>
<path d="M111.681 380.24C111.993 375.556 112.905 370.062 124.752 366.126C169.108 359.123 266.711 329.253 303.344 318.888C316.915 342.513 308.229 334.099 111.681 380.24Z" fill="white"/>
<path d="M139.784 408.486L128.824 369.201L148.193 365.028L156.766 404.828L145.491 391.153L139.784 408.486Z" fill="#E6BA7A"/>
<path d="M139.784 408.486L128.824 369.201L148.193 365.028L156.766 404.828L145.491 391.153L139.784 408.486Z" fill="url(#paint2_linear)"/>
<g opacity="0.8">
<path d="M168.149 179.643C113.149 161.643 126.149 217.143 187.149 234.143C227.649 172.143 190.149 147.143 168.149 179.643Z" fill="#EAB79E"/>
<path d="M168.149 179.643C113.149 161.643 126.149 217.143 187.149 234.143C227.649 172.143 190.149 147.143 168.149 179.643Z" fill="url(#paint3_radial)"/>
</g>
</g>
<path d="M78.2826 163.421C78.495 163.171 78.7431 162.857 79.0269 162.482C79.3226 162.086 79.6138 161.673 79.9005 161.244C80.1873 160.815 80.4451 160.377 80.674 159.929C80.9029 159.48 81.0627 159.068 81.1535 158.693C81.2561 158.297 81.2674 157.951 81.1874 157.657C81.1074 157.363 80.8937 157.158 80.5464 157.042C80.0238 157.185 79.4588 157.365 78.8514 157.583C78.2397 157.784 77.6235 157.969 77.0028 158.138C76.3777 158.291 75.7578 158.398 75.1432 158.46C74.5448 158.518 73.9814 158.478 73.453 158.341C72.9246 158.204 72.4571 157.937 72.0505 157.539C71.6558 157.12 71.3563 156.535 71.1518 155.784C70.9118 154.902 70.8595 154.065 70.9951 153.274C71.1425 152.462 71.4205 151.711 71.8292 151.021C72.2334 150.314 72.7229 149.663 73.2978 149.068C73.8845 148.453 74.4891 147.902 75.1114 147.417C75.5671 147.416 76.0147 147.513 76.454 147.709C76.8934 147.906 77.2926 148.148 77.6517 148.436C77.6352 148.827 77.4821 149.166 77.1924 149.456C76.9191 149.741 76.5819 150.017 76.1809 150.284C75.7963 150.546 75.3893 150.824 74.9601 151.116C74.5309 151.408 74.1581 151.746 73.8417 152.131C73.5371 152.494 73.3142 152.932 73.1729 153.444C73.0271 153.94 73.0498 154.539 73.2409 155.241C73.3832 155.764 73.6183 156.112 73.9463 156.286C74.2743 156.46 74.6639 156.538 75.1153 156.521C75.5622 156.487 76.0529 156.388 76.5874 156.225C77.1175 156.046 77.6536 155.856 78.1956 155.656C78.7539 155.451 79.3025 155.276 79.8415 155.129C80.3761 154.966 80.8757 154.9 81.3404 154.932C81.8006 154.947 82.1954 155.076 82.5249 155.32C82.8706 155.559 83.1258 155.981 83.2902 156.585C83.3613 156.847 83.3626 157.206 83.2941 157.663C83.2419 158.116 83.1332 158.619 82.9681 159.173C82.8149 159.706 82.6045 160.254 82.337 160.818C82.0858 161.378 81.799 161.903 81.4765 162.394C81.166 162.865 80.8317 163.28 80.4738 163.641C80.1277 163.981 79.7749 164.199 79.4156 164.297C79.0726 164.39 78.8106 164.33 78.6296 164.116C78.4649 163.898 78.3493 163.666 78.2826 163.421ZM84.5665 149.633C84.5531 149.584 84.5502 149.541 84.5576 149.504C84.5488 149.471 84.5458 149.428 84.5488 149.375C84.5919 149.275 84.661 149.142 84.7561 148.976C84.8512 148.81 84.9151 148.722 84.9478 148.714L89.8722 147.373C89.8233 147.194 89.721 146.915 89.5654 146.536C89.4097 146.157 89.2429 145.738 89.065 145.277C88.9034 144.813 88.7619 144.325 88.6405 143.814C88.5146 143.287 88.4532 142.804 88.4564 142.364C88.4715 141.904 88.5742 141.508 88.7644 141.175C88.9665 140.822 89.3125 140.579 89.8025 140.446C90.2515 142.095 90.7258 143.387 91.2256 144.321C91.7254 145.255 92.2365 145.941 92.7588 146.377C93.2975 146.81 93.8341 147.041 94.3685 147.071C94.9029 147.101 95.4211 147.039 95.923 146.885C96.4368 146.71 96.9209 146.49 97.3753 146.226C97.8297 145.962 98.2381 145.755 98.6004 145.603C98.9791 145.448 99.3005 145.404 99.5647 145.473C99.8245 145.525 100.017 145.779 100.141 146.237C100.234 146.58 100.219 146.847 100.096 147.038C99.9891 147.225 99.7262 147.42 99.3075 147.621C99.1813 147.673 98.9696 147.766 98.6727 147.899C98.3875 148.012 98.0616 148.136 97.6948 148.271C97.3281 148.406 96.939 148.555 96.5277 148.72C96.1119 148.868 95.7207 149.01 95.3539 149.145C94.9871 149.28 94.6508 149.397 94.3449 149.498C94.0346 149.583 93.8059 149.645 93.6589 149.685C93.6811 149.767 93.7107 149.908 93.7478 150.108C93.7848 150.308 93.8121 150.441 93.8299 150.507C94.0255 151.225 94.331 151.897 94.7463 152.52C95.1572 153.128 95.5844 153.731 96.028 154.329C96.4879 154.923 96.9233 155.524 97.3342 156.132C97.7451 156.739 98.0484 157.402 98.2439 158.121C98.2795 158.251 98.3009 158.395 98.3083 158.55C98.3275 158.686 98.3118 158.821 98.2613 158.958C98.2226 159.074 98.1365 159.176 98.0028 159.265C97.8899 159.366 97.6999 159.409 97.4326 159.394C96.7675 159.4 96.2065 159.175 95.7495 158.721C95.3088 158.262 94.9149 157.685 94.5679 156.99C94.2165 156.278 93.9029 155.513 93.6272 154.693C93.3515 153.873 93.0587 153.12 92.7488 152.432C92.4508 151.724 92.1186 151.148 91.7521 150.704C91.3812 150.243 90.9271 150.025 90.3896 150.048L85.3678 150.257C85.3025 150.275 85.1867 150.236 85.0205 150.141C84.8498 150.03 84.7393 149.946 84.6888 149.889C84.6636 149.861 84.6443 149.822 84.631 149.773C84.6058 149.745 84.5843 149.698 84.5665 149.633ZM116.403 150.837C115.897 151.431 115.463 151.961 115.099 152.429C114.747 152.875 114.39 153.271 114.027 153.615C113.665 153.959 113.254 154.255 112.795 154.503C112.353 154.746 111.78 154.963 111.078 155.154C109.559 155.568 108.323 155.474 107.37 154.874C106.413 154.257 105.717 153.149 105.281 151.548C105.112 150.927 105.018 150.26 104.999 149.546C104.98 148.832 105.037 148.106 105.17 147.368C105.314 146.61 105.527 145.876 105.808 145.168C106.084 144.444 106.438 143.777 106.869 143.169C107.3 142.561 107.79 142.041 108.34 141.611C108.901 141.16 109.533 140.839 110.235 140.648C111.442 140.442 112.445 140.485 113.244 140.776C114.038 141.051 114.706 141.51 115.249 142.151C115.788 142.777 116.245 143.521 116.62 144.384C116.991 145.23 117.337 146.118 117.661 147.048C118 147.973 118.356 148.893 118.728 149.81C119.1 150.726 119.575 151.535 120.152 152.238C120.086 152.834 119.984 153.266 119.846 153.531C119.729 153.809 119.536 153.905 119.267 153.82C118.998 153.736 118.631 153.45 118.165 152.962C117.716 152.471 117.128 151.762 116.403 150.837ZM107.377 151.03C107.63 151.961 107.988 152.601 108.451 152.948C108.926 153.275 109.613 153.316 110.511 153.072C111.181 152.89 111.787 152.602 112.329 152.209C112.883 151.795 113.333 151.322 113.679 150.789C114.021 150.24 114.251 149.633 114.368 148.97C114.486 148.306 114.447 147.615 114.251 146.896C114.171 146.602 114.068 146.192 113.942 145.665C113.812 145.121 113.635 144.599 113.411 144.099C113.187 143.599 112.91 143.192 112.579 142.878C112.244 142.548 111.847 142.446 111.39 142.57C110.541 142.801 109.817 143.235 109.218 143.872C108.615 144.492 108.143 145.208 107.803 146.02C107.462 146.832 107.256 147.686 107.184 148.583C107.108 149.463 107.172 150.279 107.377 151.03ZM121.651 141.751C121.611 141.604 121.579 141.455 121.555 141.304C121.527 141.136 121.522 140.988 121.54 140.861C121.553 140.717 121.598 140.591 121.674 140.482C121.766 140.369 121.91 140.286 122.106 140.233C122.269 140.189 122.484 140.27 122.751 140.478C123.03 140.666 123.329 140.926 123.648 141.26C123.963 141.578 124.28 141.939 124.601 142.343C124.938 142.743 125.233 143.119 125.487 143.471C125.752 143.802 125.972 144.093 126.145 144.344C126.319 144.595 126.416 144.726 126.437 144.738C126.494 144.109 126.561 143.424 126.641 142.683C126.72 141.942 126.869 141.235 127.089 140.561C127.321 139.866 127.645 139.252 128.061 138.718C128.494 138.179 129.094 137.805 129.861 137.596C130.253 137.489 130.638 137.455 131.017 137.492C131.407 137.509 131.767 137.604 132.095 137.778C132.435 137.931 132.731 138.149 132.983 138.431C133.235 138.713 133.419 139.066 133.535 139.491C133.632 139.85 133.554 140.144 133.3 140.371C133.063 140.593 132.764 140.753 132.405 140.851L132.16 140.918L130.82 140.151C130.787 140.16 130.76 140.158 130.739 140.146C130.707 140.155 130.674 140.164 130.641 140.173C130.621 140.161 130.594 140.16 130.561 140.169C129.99 140.324 129.585 140.61 129.347 141.025C129.121 141.42 128.991 141.877 128.957 142.395C128.918 142.896 128.945 143.415 129.038 143.951C129.143 144.466 129.254 144.936 129.369 145.361C129.458 145.688 129.582 146.014 129.741 146.339C129.895 146.648 130.057 146.954 130.228 147.259C130.394 147.547 130.556 147.854 130.715 148.179C130.869 148.488 130.995 148.822 131.093 149.181C131.28 149.867 131.006 150.31 130.271 150.51C129.862 150.621 129.38 150.525 128.823 150.22C128.262 149.899 127.67 149.464 127.047 148.914C126.44 148.36 125.832 147.736 125.222 147.042C124.608 146.332 124.049 145.634 123.546 144.946C123.043 144.258 122.618 143.629 122.269 143.057C121.937 142.481 121.731 142.045 121.651 141.751ZM135.58 135.751C135.566 135.702 135.563 135.658 135.571 135.621C135.562 135.589 135.559 135.546 135.562 135.492C135.605 135.393 135.674 135.26 135.769 135.094C135.864 134.927 135.928 134.84 135.961 134.831L140.885 133.491C140.836 133.311 140.734 133.032 140.578 132.653C140.423 132.275 140.256 131.855 140.078 131.395C139.917 130.93 139.775 130.442 139.654 129.932C139.528 129.405 139.466 128.921 139.47 128.482C139.485 128.022 139.587 127.625 139.778 127.293C139.98 126.94 140.326 126.696 140.816 126.563C141.265 128.213 141.739 129.504 142.239 130.439C142.739 131.373 143.25 132.058 143.772 132.495C144.311 132.927 144.847 133.158 145.382 133.188C145.916 133.218 146.434 133.156 146.936 133.002C147.45 132.827 147.934 132.608 148.388 132.344C148.843 132.08 149.251 131.872 149.614 131.721C149.992 131.565 150.314 131.522 150.578 131.59C150.838 131.642 151.03 131.897 151.154 132.354C151.248 132.697 151.233 132.964 151.109 133.156C151.002 133.343 150.739 133.537 150.321 133.739C150.194 133.791 149.983 133.883 149.686 134.017C149.401 134.129 149.075 134.253 148.708 134.388C148.341 134.523 147.952 134.673 147.541 134.837C147.125 134.986 146.734 135.127 146.367 135.262C146 135.397 145.664 135.515 145.358 135.616C145.048 135.7 144.819 135.762 144.672 135.802C144.694 135.884 144.724 136.025 144.761 136.225C144.798 136.426 144.825 136.559 144.843 136.624C145.039 137.343 145.344 138.014 145.759 138.638C146.17 139.245 146.598 139.848 147.041 140.447C147.501 141.041 147.936 141.642 148.347 142.249C148.758 142.856 149.061 143.519 149.257 144.238C149.293 144.369 149.314 144.512 149.321 144.668C149.341 144.803 149.325 144.939 149.274 145.075C149.236 145.191 149.15 145.294 149.016 145.383C148.903 145.483 148.713 145.526 148.446 145.511C147.781 145.517 147.22 145.293 146.763 144.838C146.322 144.379 145.928 143.802 145.581 143.107C145.23 142.396 144.916 141.63 144.64 140.811C144.365 139.991 144.072 139.237 143.762 138.55C143.464 137.841 143.132 137.265 142.765 136.821C142.394 136.361 141.94 136.142 141.403 136.166L136.381 136.374C136.316 136.392 136.2 136.354 136.034 136.258C135.863 136.147 135.752 136.063 135.702 136.007C135.677 135.978 135.657 135.94 135.644 135.891C135.619 135.863 135.597 135.816 135.58 135.751ZM167.921 123.107C167.872 122.928 167.828 122.703 167.79 122.433C167.763 122.142 167.766 121.86 167.797 121.589C167.845 121.312 167.928 121.071 168.047 120.863C168.161 120.639 168.349 120.491 168.61 120.42C168.627 120.415 168.67 120.413 168.74 120.411C168.809 120.41 168.852 120.407 168.869 120.402C169.422 121.339 169.859 122.299 170.179 123.282C170.499 124.265 170.747 125.242 170.923 126.211C171.095 127.164 171.219 128.104 171.296 129.031C171.368 129.941 171.447 130.779 171.533 131.545C171.635 132.307 171.749 132.986 171.877 133.583C172.02 134.175 172.246 134.649 172.553 135.004C172.449 134.751 172.34 134.448 172.226 134.093C172.124 133.717 172.052 133.324 172.011 132.915C171.986 132.501 172.001 132.075 172.058 131.639C172.131 131.198 172.289 130.778 172.531 130.379C172.773 129.979 173.123 129.621 173.58 129.304C174.054 128.982 174.675 128.716 175.443 128.507C176.243 128.29 176.967 128.242 177.614 128.364C178.277 128.481 178.864 128.734 179.373 129.122C179.877 129.493 180.308 129.981 180.666 130.586C181.035 131.169 181.32 131.829 181.52 132.564C181.613 132.907 181.712 133.301 181.815 133.746C181.931 134.171 181.983 134.587 181.97 134.993C181.97 135.379 181.867 135.741 181.66 136.078C181.466 136.394 181.107 136.623 180.584 136.765C180.513 136.504 180.434 136.148 180.347 135.698C180.255 135.232 180.14 134.746 180.002 134.24C179.881 133.729 179.724 133.219 179.533 132.71C179.358 132.196 179.126 131.759 178.835 131.4C178.54 131.024 178.193 130.75 177.795 130.577C177.409 130.384 176.939 130.363 176.383 130.514C176.187 130.568 175.947 130.651 175.662 130.763C175.389 130.855 175.123 131.006 174.864 131.217C174.606 131.428 174.376 131.71 174.173 132.063C173.967 132.4 173.846 132.827 173.812 133.346C173.773 133.847 173.835 134.462 173.998 135.189C174.173 135.896 174.498 136.737 174.974 137.713C174.94 138.038 174.84 138.25 174.673 138.348C174.523 138.441 174.318 138.523 174.056 138.594C173.534 138.737 173.052 138.675 172.611 138.409C172.182 138.122 171.794 137.693 171.445 137.121C171.096 136.549 170.778 135.864 170.491 135.065C170.219 134.262 169.972 133.417 169.748 132.53C169.52 131.628 169.314 130.71 169.131 129.778C168.959 128.824 168.795 127.931 168.638 127.096C168.493 126.241 168.362 125.47 168.245 124.782C168.14 124.074 168.032 123.516 167.921 123.107ZM184.155 128.478C183.915 127.596 183.781 126.685 183.753 125.746C183.726 124.806 183.845 123.923 184.111 123.096C184.394 122.265 184.843 121.528 185.458 120.887C186.089 120.242 186.935 119.775 187.997 119.486C188.601 119.321 189.163 119.291 189.683 119.396C190.198 119.483 190.66 119.665 191.068 119.94C191.476 120.215 191.82 120.577 192.1 121.027C192.393 121.456 192.61 121.932 192.752 122.455C192.979 123.288 193.003 124.15 192.824 125.04C192.662 125.926 192.336 126.761 191.847 127.543C191.37 128.304 190.758 128.953 190.009 129.49C189.256 130.011 188.425 130.307 187.514 130.38C187.66 130.849 187.919 131.19 188.293 131.404C188.679 131.598 189.104 131.71 189.569 131.741C190.034 131.773 190.501 131.751 190.972 131.675C191.438 131.584 191.851 131.489 192.21 131.391C192.586 131.289 192.928 131.161 193.237 131.006C193.546 130.852 193.853 130.69 194.157 130.519C194.462 130.349 194.768 130.186 195.077 130.032C195.402 129.873 195.753 129.743 196.129 129.641C196.275 129.601 196.425 129.569 196.576 129.545C196.728 129.521 196.878 129.524 197.026 129.554C197.17 129.568 197.301 129.629 197.418 129.737C197.531 129.829 197.611 129.965 197.66 130.145C197.745 130.455 197.702 130.748 197.531 131.022C197.355 131.28 197.108 131.532 196.789 131.777C196.486 132.017 196.133 132.236 195.731 132.433C195.324 132.614 194.923 132.784 194.528 132.944C194.145 133.084 193.782 133.2 193.439 133.293C193.116 133.399 192.874 133.474 192.71 133.518C191.665 133.802 190.681 133.895 189.759 133.795C188.833 133.678 188.004 133.404 187.272 132.972C186.536 132.523 185.9 131.924 185.363 131.176C184.838 130.406 184.435 129.507 184.155 128.478ZM186.319 126.179C186.474 126.751 186.661 127.147 186.879 127.369C187.114 127.585 187.533 127.612 188.137 127.447C188.562 127.332 188.958 127.145 189.327 126.887C189.691 126.612 189.998 126.292 190.249 125.925C190.517 125.554 190.697 125.154 190.791 124.725C190.885 124.296 190.872 123.861 190.752 123.42C190.685 123.175 190.592 122.929 190.472 122.681C190.368 122.428 190.222 122.214 190.033 122.037C189.84 121.844 189.62 121.711 189.372 121.638C189.136 121.544 188.855 121.542 188.528 121.631C188.038 121.764 187.62 122.001 187.274 122.34C186.94 122.659 186.683 123.036 186.503 123.471C186.318 123.89 186.213 124.34 186.186 124.821C186.154 125.285 186.199 125.738 186.319 126.179ZM199.388 120.596C199.348 120.449 199.316 120.3 199.292 120.149C199.264 119.981 199.259 119.833 199.277 119.705C199.29 119.561 199.335 119.435 199.411 119.327C199.503 119.214 199.647 119.131 199.843 119.078C200.006 119.033 200.222 119.115 200.489 119.323C200.768 119.51 201.067 119.771 201.386 120.105C201.7 120.423 202.018 120.784 202.338 121.188C202.675 121.588 202.97 121.963 203.224 122.315C203.489 122.647 203.709 122.938 203.883 123.189C204.056 123.44 204.153 123.571 204.174 123.583C204.231 122.954 204.299 122.268 204.378 121.528C204.457 120.787 204.607 120.08 204.827 119.406C205.059 118.711 205.383 118.097 205.799 117.562C206.231 117.024 206.831 116.65 207.599 116.441C207.991 116.334 208.376 116.3 208.754 116.337C209.145 116.353 209.504 116.449 209.832 116.623C210.172 116.776 210.468 116.993 210.72 117.275C210.972 117.558 211.156 117.911 211.272 118.336C211.37 118.695 211.292 118.988 211.038 119.215C210.8 119.438 210.501 119.598 210.142 119.696L209.897 119.762L208.557 118.996C208.524 119.005 208.498 119.003 208.477 118.991C208.444 119 208.411 119.009 208.379 119.018C208.358 119.006 208.331 119.004 208.299 119.013C207.727 119.169 207.322 119.455 207.084 119.87C206.859 120.265 206.728 120.721 206.694 121.239C206.655 121.741 206.682 122.26 206.776 122.796C206.881 123.311 206.991 123.781 207.107 124.206C207.195 124.533 207.319 124.858 207.478 125.184C207.632 125.493 207.795 125.799 207.965 126.104C208.131 126.392 208.294 126.698 208.452 127.024C208.607 127.333 208.733 127.667 208.83 128.026C209.017 128.712 208.743 129.155 208.008 129.355C207.6 129.466 207.117 129.369 206.561 129.065C206 128.744 205.407 128.308 204.784 127.759C204.177 127.205 203.569 126.581 202.959 125.887C202.345 125.177 201.786 124.478 201.283 123.791C200.781 123.103 200.355 122.473 200.006 121.902C199.674 121.325 199.468 120.89 199.388 120.596ZM215.363 119.986C215.123 119.104 214.989 118.193 214.961 117.253C214.933 116.313 215.053 115.43 215.319 114.603C215.601 113.772 216.05 113.036 216.665 112.395C217.296 111.749 218.143 111.282 219.205 110.993C219.809 110.829 220.371 110.799 220.89 110.903C221.406 110.991 221.867 111.172 222.275 111.447C222.683 111.722 223.028 112.084 223.308 112.534C223.6 112.963 223.817 113.439 223.96 113.962C224.186 114.795 224.21 115.657 224.032 116.547C223.869 117.434 223.544 118.268 223.055 119.05C222.578 119.811 221.965 120.46 221.217 120.998C220.464 121.518 219.632 121.815 218.722 121.887C218.867 122.356 219.127 122.698 219.501 122.912C219.887 123.105 220.312 123.217 220.777 123.249C221.241 123.28 221.709 123.258 222.18 123.183C222.646 123.091 223.059 122.996 223.418 122.898C223.794 122.796 224.136 122.668 224.445 122.514C224.754 122.359 225.06 122.197 225.365 122.026C225.669 121.856 225.976 121.693 226.285 121.539C226.61 121.381 226.96 121.25 227.336 121.148C227.483 121.108 227.632 121.076 227.784 121.052C227.935 121.029 228.085 121.032 228.234 121.061C228.378 121.075 228.508 121.136 228.625 121.244C228.738 121.336 228.819 121.472 228.868 121.652C228.952 121.962 228.909 122.255 228.738 122.529C228.563 122.788 228.316 123.039 227.996 123.284C227.693 123.524 227.341 123.743 226.938 123.94C226.531 124.121 226.13 124.292 225.735 124.452C225.352 124.591 224.989 124.707 224.646 124.801C224.324 124.906 224.081 124.981 223.918 125.025C222.873 125.31 221.889 125.402 220.967 125.302C220.041 125.186 219.212 124.911 218.48 124.479C217.744 124.03 217.107 123.431 216.57 122.683C216.045 121.914 215.643 121.014 215.363 119.986ZM217.526 117.686C217.682 118.258 217.869 118.654 218.087 118.876C218.321 119.093 218.741 119.119 219.345 118.954C219.77 118.839 220.166 118.652 220.534 118.394C220.898 118.119 221.206 117.799 221.457 117.432C221.724 117.061 221.905 116.661 221.999 116.232C222.092 115.803 222.079 115.368 221.959 114.927C221.893 114.682 221.799 114.436 221.679 114.188C221.575 113.935 221.429 113.721 221.241 113.544C221.048 113.351 220.828 113.218 220.58 113.145C220.344 113.051 220.062 113.049 219.736 113.138C219.246 113.271 218.828 113.508 218.481 113.848C218.147 114.167 217.89 114.544 217.71 114.978C217.526 115.397 217.42 115.847 217.393 116.328C217.362 116.792 217.406 117.245 217.526 117.686Z" fill="white"/>
<defs>
<filter id="filter0_d" x="0.000244141" y="-3.8147e-06" width="427.783" height="489" filterUnits="userSpaceOnUse" color-interpolation-filters="sRGB">
<feFlood flood-opacity="0" result="BackgroundImageFix"/>
<feColorMatrix in="SourceAlpha" type="matrix" values="0 0 0 0 0 0 0 0 0 0 0 0 0 0 0 0 0 0 127 0"/>
<feOffset dx="40" dy="20"/>
<feGaussianBlur stdDeviation="30"/>
<feColorMatrix type="matrix" values="0 0 0 0 0.921569 0 0 0 0 0.721569 0 0 0 0 0.627451 0 0 0 1 0"/>
<feBlend mode="normal" in2="BackgroundImageFix" result="effect1_dropShadow"/>
<feBlend mode="normal" in="SourceGraphic" in2="effect1_dropShadow" result="shape"/>
</filter>
<radialGradient id="paint0_radial" cx="0" cy="0" r="1" gradientUnits="userSpaceOnUse" gradientTransform="translate(163 212) rotate(103.489) scale(177.908 158.781)">
<stop stop-color="white" stop-opacity="0"/>
<stop offset="1" stop-color="#FDAD7C"/>
</radialGradient>
<radialGradient id="paint1_radial" cx="0" cy="0" r="1" gradientUnits="userSpaceOnUse" gradientTransform="translate(219.281 339.051) rotate(79.067) scale(79.7724 370.15)">
<stop stop-color="#A58161"/>
<stop offset="1" stop-color="white" stop-opacity="0"/>
</radialGradient>
<linearGradient id="paint2_linear" x1="138.508" y1="367.114" x2="146.129" y2="402.773" gradientUnits="userSpaceOnUse">
<stop stop-color="#E6BA7A"/>
<stop offset="1" stop-color="white" stop-opacity="0"/>
</linearGradient>
<radialGradient id="paint3_radial" cx="0" cy="0" r="1" gradientUnits="userSpaceOnUse" gradientTransform="translate(173.614 199.695) rotate(67.5316) scale(62.6706 123.943)">
<stop stop-color="white"/>
<stop offset="1" stop-color="white" stop-opacity="0"/>
</radialGradient>
</defs>
</svg>
