<svg width="49" height="49" viewBox="0 0 49 49" fill="none" xmlns="http://www.w3.org/2000/svg">
<circle cx="24.5" cy="24.2234" r="23.2234" stroke="white" stroke-width="2"/>
<g clip-path="url(#clip0)">
<path d="M24.9404 18.0435C20.8042 18.0435 17.4393 21.4091 17.4393 25.5453C17.4393 29.6816 20.8042 33.0472 24.9404 33.0472C29.076 33.0472 32.4416 29.6822 32.4416 25.5453C32.4416 21.4085 29.076 18.0435 24.9404 18.0435Z" fill="white"/>
<path d="M24.9404 15.8385C24.132 15.8385 23.4767 15.1833 23.4767 14.3755V12.0338C23.4767 11.2254 24.132 10.5702 24.9404 10.5702C25.7488 10.5702 26.404 11.2254 26.404 12.0338V14.3755C26.404 15.1833 25.7481 15.8385 24.9404 15.8385Z" fill="white"/>
<path d="M24.9404 35.2502C24.132 35.2502 23.4767 35.9055 23.4767 36.7139V39.0549C23.4767 39.8639 24.132 40.5192 24.9404 40.5192C25.7488 40.5192 26.404 39.8639 26.404 39.0549V36.7139C26.404 35.9055 25.7481 35.2502 24.9404 35.2502Z" fill="white"/>
<path d="M31.8029 18.6815C31.2319 18.1098 31.2319 17.1834 31.8029 16.6117L33.4589 14.9558C34.0299 14.3848 34.957 14.3848 35.5287 14.9558C36.1003 15.5274 36.1003 16.4545 35.5287 17.0255L33.8727 18.6815C33.3017 19.2531 32.3753 19.2531 31.8029 18.6815Z" fill="white"/>
<path d="M18.0772 32.4085C17.5056 31.8362 16.5791 31.8362 16.0075 32.4085L14.3515 34.0638C13.7805 34.6348 13.7799 35.5626 14.3515 36.1336C14.9232 36.7046 15.8503 36.7046 16.4213 36.1336L18.0772 34.477C18.6489 33.906 18.6489 32.9789 18.0772 32.4085Z" fill="white"/>
<path d="M34.6459 25.5447C34.6459 24.7363 35.3012 24.0811 36.1096 24.0811H38.4512C39.2596 24.0811 39.9149 24.7363 39.9149 25.5447C39.9149 26.3531 39.2596 27.0076 38.4512 27.0076H36.1096C35.3012 27.0076 34.6459 26.3531 34.6459 25.5447Z" fill="white"/>
<path d="M15.2342 25.5447C15.2342 24.7363 14.579 24.0811 13.7706 24.0811H11.4296C10.6212 24.0811 9.96594 24.7363 9.96594 25.5447C9.96594 26.3531 10.6212 27.0076 11.4296 27.0076H13.7712C14.579 27.0076 15.2342 26.3531 15.2342 25.5447Z" fill="white"/>
<path d="M31.8029 32.4086C32.3745 31.8376 33.3017 31.8376 33.8727 32.4086L35.5286 34.0645C36.1003 34.6348 36.1003 35.5626 35.5286 36.1336C34.9569 36.7046 34.0305 36.7046 33.4588 36.1336L31.8029 34.4777C31.2312 33.906 31.2312 32.9796 31.8029 32.4086Z" fill="white"/>
<path d="M18.0772 18.6815C18.6489 18.1098 18.6489 17.1834 18.0772 16.6117L16.4213 14.9565C15.8496 14.3848 14.9232 14.3848 14.3515 14.9565C13.7798 15.5274 13.7798 16.4546 14.3515 17.0256L16.0074 18.6815C16.5791 19.2538 17.5056 19.2538 18.0772 18.6815Z" fill="white"/>
</g>
<defs>
<clipPath id="clip0">
<rect width="29.9489" height="29.9489" fill="white" transform="translate(9.96594 10.5702)"/>
</clipPath>
</defs>
</svg>
