<svg width="1040" height="669" viewBox="0 0 1040 669" fill="none" xmlns="http://www.w3.org/2000/svg">
<g filter="url(#filter0_d)">
<path d="M100.603 427.92L113.563 402.597C113.563 402.597 81.7711 370.32 125.823 398.639C169.875 426.958 147.725 436.984 134.525 427.449C121.325 417.913 100.603 427.92 100.603 427.92Z" fill="#EAB79E"/>
<path d="M100.603 427.92L113.563 402.597C113.563 402.597 81.7711 370.32 125.823 398.639C169.875 426.958 147.725 436.984 134.525 427.449C121.325 417.913 100.603 427.92 100.603 427.92Z" fill="url(#paint0_radial)"/>
<circle cx="66.6076" cy="393.608" r="52.9942" transform="rotate(1.66043 66.6076 393.608)" fill="#EAB79E"/>
<circle cx="66.6076" cy="393.608" r="52.9942" transform="rotate(1.66043 66.6076 393.608)" fill="url(#paint1_radial)"/>
<circle cx="66.6076" cy="393.608" r="48.8725" transform="rotate(1.66043 66.6076 393.608)" fill="white"/>
<circle cx="66.6076" cy="393.608" r="48.8725" transform="rotate(1.66043 66.6076 393.608)" fill="url(#paint2_radial)"/>
<circle cx="66.8913" cy="393.666" r="43.0599" transform="rotate(1.66043 66.8913 393.666)" fill="#A58161"/>
<circle cx="66.8913" cy="393.666" r="43.0599" transform="rotate(1.66043 66.8913 393.666)" fill="url(#paint3_radial)"/>
</g>
<g filter="url(#filter1_d)">
<path d="M608.57 471.412L641.567 348.266L650.062 350.542L657.531 352.543L624.534 475.689L608.57 471.412Z" fill="#FDAD7C"/>
<path d="M608.57 471.412L641.567 348.266L650.062 350.542L657.531 352.543L624.534 475.689L608.57 471.412Z" fill="url(#paint4_linear)"/>
<path d="M657.531 352.543L653.228 337.336L640.997 348.113L657.531 352.543Z" fill="#F0D190"/>
<path d="M653.566 337.426L647.961 342.646L652.03 343.736L655.373 344.632L653.566 337.426Z" fill="#FDAD7C"/>
</g>
<g filter="url(#filter2_d)">
<path d="M725.325 414.452C725.325 414.452 712.69 429.755 705.771 438.136C698.851 446.516 714.057 456.742 719.833 449.747C725.609 442.751 730.362 436.994 739.388 426.063C748.413 415.133 735.203 407.657 728.587 417.146C728.587 417.146 713.545 435.364 710.356 439.226C707.167 443.088 714.899 449.227 717.967 445.51C721.036 441.794 736.198 423.43 736.198 423.43" stroke="#9DA798" stroke-width="3"/>
<path d="M725.325 414.452C725.325 414.452 712.69 429.755 705.771 438.136C698.851 446.516 714.057 456.742 719.833 449.747C725.609 442.751 730.362 436.994 739.388 426.063C748.413 415.133 735.203 407.657 728.587 417.146C728.587 417.146 713.545 435.364 710.356 439.226C707.167 443.088 714.899 449.227 717.967 445.51C721.036 441.794 736.198 423.43 736.198 423.43" stroke="url(#paint5_radial)" stroke-width="3"/>
</g>
<g filter="url(#filter3_d)">
<path d="M525.997 626.904L521.862 589.848L579.956 583.365C603.991 586.712 615.536 605.12 584.092 620.42L525.997 626.904Z" fill="#FFF3E6"/>
<g filter="url(#filter4_d)">
<rect x="521" y="589.944" width="58.9633" height="37.2856" transform="rotate(-6.36794 521 589.944)" fill="#7CBEA6"/>
<rect x="521" y="589.944" width="58.9633" height="37.2856" transform="rotate(-6.36794 521 589.944)" fill="url(#paint6_radial)"/>
</g>
</g>
<g filter="url(#filter5_d)">
<path d="M690.539 262.849C671.475 264.054 655.388 225.961 661.859 168.807H771.268C777.513 237.341 759.688 262.849 741.555 262.849C716.662 262.849 737.56 264.079 690.539 262.849Z" fill="#E6BA7A"/>
<path d="M690.539 262.849C671.475 264.054 655.388 225.961 661.859 168.807H771.268C777.513 237.341 759.688 262.849 741.555 262.849C716.662 262.849 737.56 264.079 690.539 262.849Z" fill="url(#paint7_radial)"/>
<ellipse cx="716.5" cy="168.5" rx="62.5" ry="46.5" fill="white"/>
<ellipse cx="716.5" cy="167" rx="55.5" ry="40" fill="#A58161"/>
<ellipse cx="716.5" cy="167" rx="55.5" ry="40" fill="url(#paint8_linear)"/>
<path d="M831.324 31.514C831.324 31.514 761.292 47.6001 741.256 83.0157C729.965 102.975 729.476 138.047 729.476 138.047C745.809 139.204 772.695 134.668 783.482 123.385C813.935 94.5431 827.639 76.0697 831.324 31.514Z" fill="#89B070"/>
<path d="M831.324 31.514C831.324 31.514 761.292 47.6001 741.256 83.0157C729.965 102.975 729.476 138.047 729.476 138.047C745.809 139.204 772.695 134.668 783.482 123.385C813.935 94.5431 827.639 76.0697 831.324 31.514Z" fill="url(#paint9_radial)"/>
<path d="M729.929 286.755C729.929 286.755 769.434 226.732 759.443 187.288C753.812 165.058 729.929 139.369 729.929 139.369C717.323 149.82 701.024 171.678 701.024 187.288C698.943 229.179 701.804 252.002 729.929 286.755Z" fill="#89B070"/>
<path d="M729.929 286.755C729.929 286.755 769.434 226.732 759.443 187.288C753.812 165.058 729.929 139.369 729.929 139.369C717.323 149.82 701.024 171.678 701.024 187.288C698.943 229.179 701.804 252.002 729.929 286.755Z" fill="url(#paint10_radial)"/>
<path d="M730.532 139.142C730.532 139.142 662.705 115.418 626.874 134.7C606.681 145.567 587.571 174.98 587.571 174.98C600.773 184.666 625.938 195.161 641.079 191.365C682.219 183.198 703.662 174.873 730.532 139.142Z" fill="#89B070"/>
<path d="M730.532 139.142C730.532 139.142 662.705 115.418 626.874 134.7C606.681 145.567 587.571 174.98 587.571 174.98C600.773 184.666 625.938 195.161 641.079 191.365C682.219 183.198 703.662 174.873 730.532 139.142Z" fill="url(#paint11_radial)"/>
<path d="M730.355 139.101C730.355 139.101 703.03 98.7262 661.232 90.4418C637.676 85.7729 606.824 90.5685 606.824 90.5685C614.712 101.709 633.313 119.107 649.028 124.704C690.768 140.946 723.258 149.481 730.355 139.101Z" fill="#89B070"/>
<path d="M730.355 139.101C730.355 139.101 703.03 98.7262 661.232 90.4418C637.676 85.7729 606.824 90.5685 606.824 90.5685C614.712 101.709 633.313 119.107 649.028 124.704C690.768 140.946 723.258 149.481 730.355 139.101Z" fill="url(#paint12_radial)"/>
<path d="M730.034 140.547C730.034 140.547 755.958 172.979 792.002 177.191C812.315 179.565 838.183 173.411 838.183 173.411C830.734 164.485 813.769 150.971 800.049 147.28C763.518 136.308 735.359 131.256 730.034 140.547Z" fill="#89B070"/>
<path d="M730.034 140.547C730.034 140.547 755.958 172.979 792.002 177.191C812.315 179.565 838.183 173.411 838.183 173.411C830.734 164.485 813.769 150.971 800.049 147.28C763.518 136.308 735.359 131.256 730.034 140.547Z" fill="url(#paint13_radial)"/>
<path d="M727.951 138.754C727.951 138.754 764.905 157.682 799.5 146.722C818.996 140.545 840.056 124.313 840.056 124.313C829.599 119.233 808.581 113.877 794.556 116.144C756.741 121.141 728.991 128.096 727.951 138.754Z" fill="#89B070"/>
<path d="M727.951 138.754C727.951 138.754 764.905 157.682 799.5 146.722C818.996 140.545 840.056 124.313 840.056 124.313C829.599 119.233 808.581 113.877 794.556 116.144C756.741 121.141 728.991 128.096 727.951 138.754Z" fill="url(#paint14_radial)"/>
</g>
<g filter="url(#filter6_d)">
<path d="M296.154 648.444L206.016 558.285L212.234 552.067L217.703 546.6L307.842 636.76L296.154 648.444Z" fill="#EAB79E"/>
<path d="M296.154 648.444L206.016 558.285L212.234 552.067L217.703 546.6L307.842 636.76L296.154 648.444Z" fill="url(#paint15_radial)"/>
<path d="M217.703 546.6L202.382 542.721L205.598 558.702L217.703 546.6Z" fill="#EFD3A3" stroke="#EFD3A3"/>
<path d="M202.629 542.474L204.347 549.938L207.326 546.959L209.773 544.513L202.629 542.474Z" fill="#F0837D" stroke="#F0837D"/>
</g>
<g filter="url(#filter7_d)">
<path d="M852.24 381.948C833.065 383.16 836.005 339.854 836.005 287.355H946.053C943.772 354.942 946.923 381.948 928.685 381.948C903.645 381.948 899.536 383.184 852.24 381.948Z" fill="#7CBEA6"/>
<path d="M852.24 381.948C833.065 383.16 836.005 339.854 836.005 287.355H946.053C943.772 354.942 946.923 381.948 928.685 381.948C903.645 381.948 899.536 383.184 852.24 381.948Z" fill="url(#paint16_radial)"/>
<ellipse cx="889.959" cy="287.047" rx="62.8655" ry="46.7719" fill="white"/>
<ellipse cx="889.959" cy="285.538" rx="55.8246" ry="40.2339" fill="#A58161"/>
<ellipse cx="889.959" cy="285.538" rx="55.8246" ry="40.2339" fill="url(#paint17_linear)"/>
<path d="M969.878 229.295C935.504 243.904 877.226 238.909 899.974 271.975C922.622 304.896 951.168 279.119 969.878 229.295Z" fill="#91AF7E"/>
<path d="M969.878 229.295C935.504 243.904 877.226 238.909 899.974 271.975C922.622 304.896 951.168 279.119 969.878 229.295Z" fill="url(#paint18_radial)"/>
<path d="M812.769 291.137C847.833 281.211 888.812 241.148 892.126 281.081C895.424 320.838 857.838 318.427 812.769 291.137Z" fill="#91AF7E"/>
<path d="M812.769 291.137C847.833 281.211 888.812 241.148 892.126 281.081C895.424 320.838 857.838 318.427 812.769 291.137Z" fill="url(#paint19_radial)"/>
<path d="M859.255 196.466C864.849 233.395 845.509 288.596 883.196 274.792C920.717 261.05 902.855 226.987 859.255 196.466Z" fill="#91AF7E"/>
<path d="M859.255 196.466C864.849 233.395 845.509 288.596 883.196 274.792C920.717 261.05 902.855 226.987 859.255 196.466Z" fill="url(#paint20_radial)"/>
<path d="M860.834 343.449C869.306 305.542 854.325 246.984 890.856 263.874C927.225 280.69 906.734 314.786 860.834 343.449Z" fill="#91AF7E"/>
<path d="M860.834 343.449C869.306 305.542 854.325 246.984 890.856 263.874C927.225 280.69 906.734 314.786 860.834 343.449Z" fill="url(#paint21_radial)"/>
<path d="M905.815 194.543C896.805 224.519 862.355 259.39 895.85 262.454C929.198 265.505 927.889 233.299 905.815 194.543Z" fill="#91AF7E"/>
<path d="M905.815 194.543C896.805 224.519 862.355 259.39 895.85 262.454C929.198 265.505 927.889 233.299 905.815 194.543Z" fill="url(#paint22_radial)"/>
<path d="M825.378 248.222C838.779 265.019 869.956 306.791 888.673 274.774C905.573 245.864 868.408 236.488 825.378 248.222Z" fill="#91AF7E"/>
<path d="M825.378 248.222C838.779 265.019 869.956 306.791 888.673 274.774C905.573 245.864 868.408 236.488 825.378 248.222Z" fill="url(#paint23_radial)"/>
<path d="M952.743 334.366C924.925 323.99 856.956 300.782 885.121 267.093C910.553 236.674 942.752 278.325 952.743 334.366Z" fill="#91AF7E"/>
<path d="M952.743 334.366C924.925 323.99 856.956 300.782 885.121 267.093C910.553 236.674 942.752 278.325 952.743 334.366Z" fill="url(#paint24_radial)"/>
<path d="M936.254 299.036C915.766 273.407 894.634 237.624 877.737 264.562C864.788 285.205 893.147 298.727 936.254 299.036Z" fill="#91AF7E"/>
<path d="M936.254 299.036C915.766 273.407 894.634 237.624 877.737 264.562C864.788 285.205 893.147 298.727 936.254 299.036Z" fill="url(#paint25_radial)"/>
<path d="M848.349 251.136C873.826 256.776 907.59 258.353 890.105 284.805C876.706 305.075 859.02 287.313 848.349 251.136Z" fill="#91AF7E"/>
<path d="M848.349 251.136C873.826 256.776 907.59 258.353 890.105 284.805C876.706 305.075 859.02 287.313 848.349 251.136Z" fill="url(#paint26_radial)"/>
<path d="M934.792 244.839C915.392 253.083 882.502 250.265 895.341 268.926C908.122 287.505 924.233 272.958 934.792 244.839Z" fill="#91AF7E"/>
<path d="M934.792 244.839C915.392 253.083 882.502 250.265 895.341 268.926C908.122 287.505 924.233 272.958 934.792 244.839Z" fill="url(#paint27_radial)"/>
<path d="M872.36 226.311C875.517 247.152 864.602 278.306 885.871 270.516C907.047 262.76 896.966 243.536 872.36 226.311Z" fill="#91AF7E"/>
<path d="M872.36 226.311C875.517 247.152 864.602 278.306 885.871 270.516C907.047 262.76 896.966 243.536 872.36 226.311Z" fill="url(#paint28_radial)"/>
<path d="M883.404 311.891C896.254 293.342 917.224 272.521 888.146 265.912C865.864 260.847 866.194 282.555 883.404 311.891Z" fill="#91AF7E"/>
<path d="M883.404 311.891C896.254 293.342 917.224 272.521 888.146 265.912C865.864 260.847 866.194 282.555 883.404 311.891Z" fill="url(#paint29_radial)"/>
</g>
<defs>
<filter id="filter0_d" x="12.1001" y="339.1" width="165.902" height="129.015" filterUnits="userSpaceOnUse" color-interpolation-filters="sRGB">
<feFlood flood-opacity="0" result="BackgroundImageFix"/>
<feColorMatrix in="SourceAlpha" type="matrix" values="0 0 0 0 0 0 0 0 0 0 0 0 0 0 0 0 0 0 127 0"/>
<feOffset dx="15" dy="10"/>
<feGaussianBlur stdDeviation="5"/>
<feColorMatrix type="matrix" values="0 0 0 0 0.954167 0 0 0 0 0.781352 0 0 0 0 0.675868 0 0 0 1 0"/>
<feBlend mode="normal" in2="BackgroundImageFix" result="effect1_dropShadow"/>
<feBlend mode="normal" in="SourceGraphic" in2="effect1_dropShadow" result="shape"/>
</filter>
<filter id="filter1_d" x="603.57" y="335" width="72.4738" height="160.689" filterUnits="userSpaceOnUse" color-interpolation-filters="sRGB">
<feFlood flood-opacity="0" result="BackgroundImageFix"/>
<feColorMatrix in="SourceAlpha" type="matrix" values="0 0 0 0 0 0 0 0 0 0 0 0 0 0 0 0 0 0 127 0"/>
<feOffset dx="5" dy="10"/>
<feGaussianBlur stdDeviation="5"/>
<feColorMatrix type="matrix" values="0 0 0 0 0.954167 0 0 0 0 0.781352 0 0 0 0 0.675868 0 0 0 1 0"/>
<feBlend mode="normal" in2="BackgroundImageFix" result="effect1_dropShadow"/>
<feBlend mode="normal" in="SourceGraphic" in2="effect1_dropShadow" result="shape"/>
</filter>
<filter id="filter2_d" x="698.889" y="404.888" width="73.7641" height="72.7476" filterUnits="userSpaceOnUse" color-interpolation-filters="sRGB">
<feFlood flood-opacity="0" result="BackgroundImageFix"/>
<feColorMatrix in="SourceAlpha" type="matrix" values="0 0 0 0 0 0 0 0 0 0 0 0 0 0 0 0 0 0 127 0"/>
<feOffset dx="15" dy="10"/>
<feGaussianBlur stdDeviation="5"/>
<feColorMatrix type="matrix" values="0 0 0 0 0.954167 0 0 0 0 0.781352 0 0 0 0 0.675868 0 0 0 1 0"/>
<feBlend mode="normal" in2="BackgroundImageFix" result="effect1_dropShadow"/>
<feBlend mode="normal" in="SourceGraphic" in2="effect1_dropShadow" result="shape"/>
</filter>
<filter id="filter3_d" x="516" y="581" width="104.279" height="65.9996" filterUnits="userSpaceOnUse" color-interpolation-filters="sRGB">
<feFlood flood-opacity="0" result="BackgroundImageFix"/>
<feColorMatrix in="SourceAlpha" type="matrix" values="0 0 0 0 0 0 0 0 0 0 0 0 0 0 0 0 0 0 127 0"/>
<feOffset dx="5" dy="10"/>
<feGaussianBlur stdDeviation="5"/>
<feColorMatrix type="matrix" values="0 0 0 0 0.921569 0 0 0 0 0.721569 0 0 0 0 0.627451 0 0 0 1 0"/>
<feBlend mode="normal" in2="BackgroundImageFix" result="effect1_dropShadow"/>
<feBlend mode="normal" in="SourceGraphic" in2="effect1_dropShadow" result="shape"/>
</filter>
<filter id="filter4_d" x="517" y="583.404" width="70.7349" height="51.5953" filterUnits="userSpaceOnUse" color-interpolation-filters="sRGB">
<feFlood flood-opacity="0" result="BackgroundImageFix"/>
<feColorMatrix in="SourceAlpha" type="matrix" values="0 0 0 0 0 0 0 0 0 0 0 0 0 0 0 0 0 0 127 0"/>
<feOffset dy="4"/>
<feGaussianBlur stdDeviation="2"/>
<feColorMatrix type="matrix" values="0 0 0 0 0 0 0 0 0 0 0 0 0 0 0 0 0 0 0.25 0"/>
<feBlend mode="normal" in2="BackgroundImageFix" result="effect1_dropShadow"/>
<feBlend mode="normal" in="SourceGraphic" in2="effect1_dropShadow" result="shape"/>
</filter>
<filter id="filter5_d" x="565" y="0" width="312.605" height="316.755" filterUnits="userSpaceOnUse" color-interpolation-filters="sRGB">
<feFlood flood-opacity="0" result="BackgroundImageFix"/>
<feColorMatrix in="SourceAlpha" type="matrix" values="0 0 0 0 0 0 0 0 0 0 0 0 0 0 0 0 0 0 127 0"/>
<feOffset dx="5" dy="10"/>
<feGaussianBlur stdDeviation="10"/>
<feColorMatrix type="matrix" values="0 0 0 0 0.954167 0 0 0 0 0.781352 0 0 0 0 0.675868 0 0 0 1 0"/>
<feBlend mode="normal" in2="BackgroundImageFix" result="effect1_dropShadow"/>
<feBlend mode="normal" in="SourceGraphic" in2="effect1_dropShadow" result="shape"/>
</filter>
<filter id="filter6_d" x="194.677" y="535.715" width="138.165" height="132.73" filterUnits="userSpaceOnUse" color-interpolation-filters="sRGB">
<feFlood flood-opacity="0" result="BackgroundImageFix"/>
<feColorMatrix in="SourceAlpha" type="matrix" values="0 0 0 0 0 0 0 0 0 0 0 0 0 0 0 0 0 0 127 0"/>
<feOffset dx="15" dy="10"/>
<feGaussianBlur stdDeviation="5"/>
<feColorMatrix type="matrix" values="0 0 0 0 0.954167 0 0 0 0 0.781352 0 0 0 0 0.675868 0 0 0 1 0"/>
<feBlend mode="normal" in2="BackgroundImageFix" result="effect1_dropShadow"/>
<feBlend mode="normal" in="SourceGraphic" in2="effect1_dropShadow" result="shape"/>
</filter>
<filter id="filter7_d" x="768" y="150" width="272" height="289.497" filterUnits="userSpaceOnUse" color-interpolation-filters="sRGB">
<feFlood flood-opacity="0" result="BackgroundImageFix"/>
<feColorMatrix in="SourceAlpha" type="matrix" values="0 0 0 0 0 0 0 0 0 0 0 0 0 0 0 0 0 0 127 0"/>
<feOffset dx="7" dy="7"/>
<feGaussianBlur stdDeviation="25"/>
<feColorMatrix type="matrix" values="0 0 0 0 0.921569 0 0 0 0 0.721569 0 0 0 0 0.627451 0 0 0 0.8 0"/>
<feBlend mode="normal" in2="BackgroundImageFix" result="effect1_dropShadow"/>
<feBlend mode="normal" in="SourceGraphic" in2="effect1_dropShadow" result="shape"/>
</filter>
<radialGradient id="paint0_radial" cx="0" cy="0" r="1" gradientUnits="userSpaceOnUse" gradientTransform="translate(126.847 407.268) rotate(86.4399) scale(39.3327 88.8058)">
<stop stop-color="#F0837D"/>
<stop offset="1" stop-color="white" stop-opacity="0"/>
</radialGradient>
<radialGradient id="paint1_radial" cx="0" cy="0" r="1" gradientUnits="userSpaceOnUse" gradientTransform="translate(66.6449 389.173) rotate(85.6405) scale(97.4008 183.948)">
<stop stop-color="#F0837D"/>
<stop offset="1" stop-color="white" stop-opacity="0"/>
</radialGradient>
<radialGradient id="paint2_radial" cx="0" cy="0" r="1" gradientUnits="userSpaceOnUse" gradientTransform="translate(66.6076 393.608) rotate(90) scale(48.8725)">
<stop stop-color="#ADCB9B"/>
<stop offset="1" stop-color="white" stop-opacity="0"/>
</radialGradient>
<radialGradient id="paint3_radial" cx="0" cy="0" r="1" gradientUnits="userSpaceOnUse" gradientTransform="translate(66.8913 393.666) rotate(90) scale(43.0599)">
<stop stop-color="#E6BA7A"/>
<stop offset="1" stop-color="white" stop-opacity="0"/>
</radialGradient>
<linearGradient id="paint4_linear" x1="649.549" y1="350.404" x2="616.552" y2="473.55" gradientUnits="userSpaceOnUse">
<stop stop-color="#F0D190"/>
<stop offset="1" stop-color="white" stop-opacity="0"/>
</linearGradient>
<radialGradient id="paint5_radial" cx="0" cy="0" r="1" gradientUnits="userSpaceOnUse" gradientTransform="translate(723.271 431.262) rotate(129.546) scale(23.935 9.11809)">
<stop stop-color="#ADCB9B"/>
<stop offset="1" stop-color="white" stop-opacity="0"/>
</radialGradient>
<radialGradient id="paint6_radial" cx="0" cy="0" r="1" gradientUnits="userSpaceOnUse" gradientTransform="translate(550.482 608.587) rotate(74.6961) scale(23.195 36.6804)">
<stop stop-color="#ADCB9B"/>
<stop offset="1" stop-color="white" stop-opacity="0"/>
</radialGradient>
<radialGradient id="paint7_radial" cx="0" cy="0" r="1" gradientUnits="userSpaceOnUse" gradientTransform="translate(716.511 212.143) rotate(84.8358) scale(87.0265 194.393)">
<stop stop-color="#F0837D"/>
<stop offset="1" stop-color="white" stop-opacity="0"/>
</radialGradient>
<linearGradient id="paint8_linear" x1="716.741" y1="193.371" x2="716.741" y2="31.7842" gradientUnits="userSpaceOnUse">
<stop stop-color="#AD8868"/>
<stop offset="0.627619" stop-color="#F9F7F5" stop-opacity="0.0683514"/>
<stop offset="1" stop-color="white" stop-opacity="0"/>
</linearGradient>
<radialGradient id="paint9_radial" cx="0" cy="0" r="1" gradientUnits="userSpaceOnUse" gradientTransform="translate(779.789 84.1959) rotate(133.712) scale(73.6926 30.287)">
<stop stop-color="#ADCB9B"/>
<stop offset="1" stop-color="white" stop-opacity="0"/>
</radialGradient>
<radialGradient id="paint10_radial" cx="0" cy="0" r="1" gradientUnits="userSpaceOnUse" gradientTransform="translate(730.775 213.062) rotate(-90) scale(73.6926 30.287)">
<stop stop-color="#ADCB9B"/>
<stop offset="1" stop-color="white" stop-opacity="0"/>
</radialGradient>
<radialGradient id="paint11_radial" cx="0" cy="0" r="1" gradientUnits="userSpaceOnUse" gradientTransform="translate(658.846 156.24) rotate(165.927) scale(73.6926 30.287)">
<stop stop-color="#ADCB9B"/>
<stop offset="1" stop-color="white" stop-opacity="0"/>
</radialGradient>
<radialGradient id="paint12_radial" cx="0" cy="0" r="1" gradientUnits="userSpaceOnUse" gradientTransform="translate(669.469 112.366) rotate(-160.395) scale(66.3271 18.7674)">
<stop stop-color="#ADCB9B"/>
<stop offset="1" stop-color="white" stop-opacity="0"/>
</radialGradient>
<radialGradient id="paint13_radial" cx="0" cy="0" r="1" gradientUnits="userSpaceOnUse" gradientTransform="translate(783.528 159.134) rotate(15.059) scale(56.4865 15.9829)">
<stop stop-color="#ADCB9B"/>
<stop offset="1" stop-color="white" stop-opacity="0"/>
</radialGradient>
<radialGradient id="paint14_radial" cx="0" cy="0" r="1" gradientUnits="userSpaceOnUse" gradientTransform="translate(784.36 133.737) rotate(-9.18416) scale(56.4865 15.9829)">
<stop stop-color="#ADCB9B"/>
<stop offset="1" stop-color="white" stop-opacity="0"/>
</radialGradient>
<radialGradient id="paint15_radial" cx="0" cy="0" r="1" gradientUnits="userSpaceOnUse" gradientTransform="translate(253.161 593.746) rotate(44.4403) scale(116.827 28.7644)">
<stop stop-color="#F0837D"/>
<stop offset="1" stop-color="white" stop-opacity="0"/>
</radialGradient>
<radialGradient id="paint16_radial" cx="0" cy="0" r="1" gradientUnits="userSpaceOnUse" gradientTransform="translate(890.948 334.926) rotate(90) scale(47.571 55.1053)">
<stop stop-color="#ADCB9B"/>
<stop offset="1" stop-color="white" stop-opacity="0"/>
</radialGradient>
<linearGradient id="paint17_linear" x1="890.202" y1="312.063" x2="890.202" y2="149.531" gradientUnits="userSpaceOnUse">
<stop stop-color="#AD8868"/>
<stop offset="0.627619" stop-color="#F9F7F5" stop-opacity="0.0683514"/>
<stop offset="1" stop-color="white" stop-opacity="0"/>
</linearGradient>
<radialGradient id="paint18_radial" cx="0" cy="0" r="1" gradientUnits="userSpaceOnUse" gradientTransform="translate(937.153 258.932) rotate(160.541) scale(40.7287 22.3496)">
<stop stop-color="#ADCB9B"/>
<stop offset="1" stop-color="white" stop-opacity="0"/>
</radialGradient>
<radialGradient id="paint19_radial" cx="0" cy="0" r="1" gradientUnits="userSpaceOnUse" gradientTransform="translate(855.911 293.968) rotate(-19.4591) scale(39.7352 22.3496)">
<stop stop-color="#ADCB9B"/>
<stop offset="1" stop-color="white" stop-opacity="0"/>
</radialGradient>
<radialGradient id="paint20_radial" cx="0" cy="0" r="1" gradientUnits="userSpaceOnUse" gradientTransform="translate(879.815 235.537) rotate(84.9513) scale(40.7287 22.3496)">
<stop stop-color="#ADCB9B"/>
<stop offset="1" stop-color="white" stop-opacity="0"/>
</radialGradient>
<radialGradient id="paint21_radial" cx="0" cy="0" r="1" gradientUnits="userSpaceOnUse" gradientTransform="translate(884.41 304.344) rotate(-80.8288) scale(42.3626 22.3496)">
<stop stop-color="#ADCB9B"/>
<stop offset="1" stop-color="white" stop-opacity="0"/>
</radialGradient>
<radialGradient id="paint22_radial" cx="0" cy="0" r="1" gradientUnits="userSpaceOnUse" gradientTransform="translate(907.371 231.51) rotate(110.295) scale(34.1326 18.73)">
<stop stop-color="#ADCB9B"/>
<stop offset="1" stop-color="white" stop-opacity="0"/>
</radialGradient>
<radialGradient id="paint23_radial" cx="0" cy="0" r="1" gradientUnits="userSpaceOnUse" gradientTransform="translate(859.968 257.353) rotate(34.7051) scale(33.6346 21.2785)">
<stop stop-color="#ADCB9B"/>
<stop offset="1" stop-color="white" stop-opacity="0"/>
</radialGradient>
<radialGradient id="paint24_radial" cx="0" cy="0" r="1" gradientUnits="userSpaceOnUse" gradientTransform="translate(922.287 295.741) rotate(-145.295) scale(47.0287 25.1652)">
<stop stop-color="#ADCB9B"/>
<stop offset="1" stop-color="white" stop-opacity="0"/>
</radialGradient>
<radialGradient id="paint25_radial" cx="0" cy="0" r="1" gradientUnits="userSpaceOnUse" gradientTransform="translate(905.236 283.75) rotate(-140.887) scale(33.7101 17.1124)">
<stop stop-color="#ADCB9B"/>
<stop offset="1" stop-color="white" stop-opacity="0"/>
</radialGradient>
<radialGradient id="paint26_radial" cx="0" cy="0" r="1" gradientUnits="userSpaceOnUse" gradientTransform="translate(868.09 270.337) rotate(27.9538) scale(26.4388 17.1124)">
<stop stop-color="#ADCB9B"/>
<stop offset="1" stop-color="white" stop-opacity="0"/>
</radialGradient>
<radialGradient id="paint27_radial" cx="0" cy="0" r="1" gradientUnits="userSpaceOnUse" gradientTransform="translate(916.323 261.565) rotate(160.541) scale(22.9861 12.6135)">
<stop stop-color="#ADCB9B"/>
<stop offset="1" stop-color="white" stop-opacity="0"/>
</radialGradient>
<radialGradient id="paint28_radial" cx="0" cy="0" r="1" gradientUnits="userSpaceOnUse" gradientTransform="translate(883.963 248.362) rotate(84.9513) scale(22.9861 12.6135)">
<stop stop-color="#ADCB9B"/>
<stop offset="1" stop-color="white" stop-opacity="0"/>
</radialGradient>
<radialGradient id="paint29_radial" cx="0" cy="0" r="1" gradientUnits="userSpaceOnUse" gradientTransform="translate(883.452 288.059) rotate(-72.1643) scale(22.7016 16.1054)">
<stop stop-color="#ADCB9B"/>
<stop offset="1" stop-color="white" stop-opacity="0"/>
</radialGradient>
</defs>
</svg>
