<svg width="49" height="49" viewBox="0 0 49 49" fill="none" xmlns="http://www.w3.org/2000/svg">
<circle cx="24.7766" cy="24.2234" r="23.2234" stroke="white" stroke-width="2"/>
<g clip-path="url(#clip0)">
<path d="M35.3812 15.2704H15.0528C14.7192 15.2704 14.4068 15.3524 14.1241 15.4876L25.1689 26.5324L27.6444 24.1533C27.6444 24.1533 27.6445 24.1531 27.6446 24.153C27.6446 24.1529 27.6448 24.1528 27.6448 24.1528L36.3103 15.4878C36.0276 15.3525 35.715 15.2704 35.3812 15.2704Z" fill="white"/>
<path d="M37.332 16.5097L29.1774 24.6639L37.3317 32.8183C37.4669 32.5356 37.549 32.2232 37.549 31.8896V17.4381C37.549 17.1046 37.4671 16.7923 37.332 16.5097Z" fill="white"/>
<path d="M13.1024 16.5094C12.9672 16.792 12.8851 17.1044 12.8851 17.4381V31.8896C12.8851 32.2231 12.9671 32.5355 13.1022 32.818L21.2568 24.6638L13.1024 16.5094Z" fill="white"/>
<path d="M28.1556 25.6857L25.6797 28.065C25.5386 28.2062 25.3537 28.2768 25.1689 28.2768C24.9841 28.2768 24.7991 28.2062 24.658 28.065L22.2785 25.6856L14.1238 33.8398C14.4064 33.9752 14.719 34.0573 15.0528 34.0573H35.3812C35.7149 34.0573 36.0273 33.9753 36.3099 33.84L28.1556 25.6857Z" fill="white"/>
</g>
<defs>
<clipPath id="clip0">
<rect width="24.6638" height="24.6638" fill="white" transform="translate(12.8851 12.3319)"/>
</clipPath>
</defs>
</svg>
