<svg width="1025" height="1025" viewBox="0 0 1025 1025" fill="none" xmlns="http://www.w3.org/2000/svg">
<path d="M1025 512.5C1025 795.546 795.546 1025 512.5 1025C229.454 1025 0 795.546 0 512.5C0 229.454 229.454 0 512.5 0C795.546 0 1025 229.454 1025 512.5Z" fill="white"/>
<path d="M1025 512.5C1025 795.546 795.546 1025 512.5 1025C229.454 1025 0 795.546 0 512.5C0 229.454 229.454 0 512.5 0C795.546 0 1025 229.454 1025 512.5Z" fill="white"/>
<path d="M1008 513C1008 786.381 786.381 1008 513 1008C239.619 1008 18 786.381 18 513C18 239.619 239.619 18 513 18C786.381 18 1008 239.619 1008 513Z" fill="#F3D9C0"/>
<path d="M1008 513C1008 786.381 786.381 1008 513 1008C239.619 1008 18 786.381 18 513C18 239.619 239.619 18 513 18C786.381 18 1008 239.619 1008 513Z" fill="#F3D9C0"/>
<g filter="url(#filter0_d)">
<path d="M640.635 167.456C690.639 177.595 826.028 666.909 824.994 688.8C824.994 688.8 824.994 717.1 803.534 720.165C819.491 769.689 814.876 782.952 385.88 862.097C367.24 865.408 335.548 751.756 268.654 534.723C148.696 230.425 204.273 276.071 311.025 230.425C355.042 211.603 517.841 167.225 557.159 167.456C596.476 167.686 590.631 157.316 640.635 167.456Z" fill="#EAB79E"/>
<path d="M640.635 167.456C690.639 177.595 826.028 666.909 824.994 688.8C824.994 688.8 824.994 717.1 803.534 720.165C819.491 769.689 814.876 782.952 385.88 862.097C367.24 865.408 335.548 751.756 268.654 534.723C148.696 230.425 204.273 276.071 311.025 230.425C355.042 211.603 517.841 167.225 557.159 167.456C596.476 167.686 590.631 157.316 640.635 167.456Z" fill="url(#paint0_radial)" fill-opacity="0.5"/>
<path d="M802.964 721.264C818.922 770.788 814.306 784.05 385.311 863.195C386.562 860.206 386.617 856.627 386.873 852.778C785.355 759.232 802.964 776.29 775.451 728.392C789.771 724.341 799.495 721.759 802.964 721.264Z" fill="#EAB79E"/>
<path d="M802.964 721.264C818.922 770.788 814.306 784.05 385.311 863.195C386.562 860.206 386.617 856.627 386.873 852.778C785.355 759.232 802.964 776.29 775.451 728.392C789.771 724.341 799.495 721.759 802.964 721.264Z" fill="url(#paint1_radial)"/>
<path d="M386.873 852.802C387.505 843.306 389.356 832.167 413.374 824.188C503.301 809.989 701.182 749.43 775.451 728.417C802.964 776.315 785.355 759.257 386.873 852.802Z" fill="white"/>
<path d="M443.851 910.068L421.629 830.421L460.898 821.962L478.278 902.652L455.42 874.928L443.851 910.068Z" fill="#E6BA7A"/>
<path d="M443.851 910.068L421.629 830.421L460.898 821.962L478.278 902.652L455.42 874.928L443.851 910.068Z" fill="url(#paint2_linear)"/>
<g opacity="0.8">
<path d="M491.964 441.438C380.457 404.945 406.813 517.465 530.485 551.931C612.594 426.232 536.567 375.548 491.964 441.438Z" fill="#EAB79E"/>
<path d="M491.964 441.438C380.457 404.945 406.813 517.465 530.485 551.931C612.594 426.232 536.567 375.548 491.964 441.438Z" fill="url(#paint3_radial)"/>
</g>
</g>
<defs>
<filter id="filter0_d" x="181" y="123" width="744" height="868.111" filterUnits="userSpaceOnUse" color-interpolation-filters="sRGB">
<feFlood flood-opacity="0" result="BackgroundImageFix"/>
<feColorMatrix in="SourceAlpha" type="matrix" values="0 0 0 0 0 0 0 0 0 0 0 0 0 0 0 0 0 0 127 0"/>
<feOffset dx="40" dy="20"/>
<feGaussianBlur stdDeviation="30"/>
<feColorMatrix type="matrix" values="0 0 0 0 0.921569 0 0 0 0 0.721569 0 0 0 0 0.627451 0 0 0 0.5 0"/>
<feBlend mode="normal" in2="BackgroundImageFix" result="effect1_dropShadow"/>
<feBlend mode="normal" in="SourceGraphic" in2="effect1_dropShadow" result="shape"/>
</filter>
<radialGradient id="paint0_radial" cx="0" cy="0" r="1" gradientUnits="userSpaceOnUse" gradientTransform="translate(490.918 511.713) rotate(103.489) scale(360.691 321.913)">
<stop stop-color="white" stop-opacity="0"/>
<stop offset="1" stop-color="#FDAD7C"/>
</radialGradient>
<radialGradient id="paint1_radial" cx="0" cy="0" r="1" gradientUnits="userSpaceOnUse" gradientTransform="translate(605.022 769.296) rotate(79.067) scale(161.731 750.443)">
<stop stop-color="#A58161"/>
<stop offset="1" stop-color="white" stop-opacity="0"/>
</radialGradient>
<linearGradient id="paint2_linear" x1="441.263" y1="826.192" x2="456.714" y2="898.486" gradientUnits="userSpaceOnUse">
<stop stop-color="#E6BA7A"/>
<stop offset="1" stop-color="white" stop-opacity="0"/>
</linearGradient>
<radialGradient id="paint3_radial" cx="0" cy="0" r="1" gradientUnits="userSpaceOnUse" gradientTransform="translate(503.042 482.091) rotate(67.5316) scale(127.058 251.283)">
<stop stop-color="white"/>
<stop offset="1" stop-color="white" stop-opacity="0"/>
</radialGradient>
</defs>
</svg>
