<svg width="49" height="49" viewBox="0 0 49 49" fill="none" xmlns="http://www.w3.org/2000/svg">
<path d="M36.3916 26.2385C36.1359 26.1745 35.8802 26.2385 35.6564 26.3983C34.8252 27.1016 33.8662 27.677 32.8112 28.0607C31.8202 28.4443 30.7333 28.6361 29.5824 28.6361C26.993 28.6361 24.6274 27.5811 22.9331 25.8868C21.2388 24.1925 20.1838 21.8269 20.1838 19.2375C20.1838 18.1506 20.3756 17.0956 20.6953 16.1366C21.047 15.1136 21.5585 14.1865 22.2298 13.3873C22.5175 13.0357 22.4536 12.5242 22.1019 12.2365C21.8781 12.0766 21.6224 12.0127 21.3666 12.0766C18.6494 12.8119 16.2837 14.4423 14.5894 16.6161C12.959 18.758 12 21.4113 12 24.2884C12 27.773 13.4066 30.9378 15.7083 33.2395C18.01 35.5412 21.1429 36.9478 24.6594 36.9478C27.6004 36.9478 30.3177 35.9248 32.4915 34.2305C34.6973 32.5042 36.2957 30.0427 36.9671 27.2295C37.0949 26.7819 36.8392 26.3344 36.3916 26.2385Z" fill="#FDFDFD"/>
<circle cx="24.5" cy="24.2234" r="23.2234" stroke="white" stroke-width="2"/>
</svg>
