<svg width="453" height="393" viewBox="0 0 453 393" fill="none" xmlns="http://www.w3.org/2000/svg">
<g filter="url(#filter0_d)">
<path d="M108.837 34.3424C111.744 27.4667 119.265 23.7748 126.482 25.6802L407.739 99.9302C416.199 102.164 420.96 111.134 418.067 119.392L339.127 344.763C336.517 352.213 328.581 356.366 320.973 354.262L25.5673 272.583C16.8014 270.16 12.192 260.555 15.7849 252.2L71.9905 121.5L108.837 34.3424Z" fill="#FEFCBF"/>
<path d="M108.837 34.3424C111.744 27.4667 119.265 23.7748 126.482 25.6802L407.739 99.9302C416.199 102.164 420.96 111.134 418.067 119.392L339.127 344.763C336.517 352.213 328.581 356.366 320.973 354.262L25.5673 272.583C16.8014 270.16 12.192 260.555 15.7849 252.2L71.9905 121.5L108.837 34.3424Z" fill="url(#paint0_radial)"/>
<path d="M101.985 47.6852L410.49 127M91.4904 81.4999L394.49 159.5M79.4904 119L383.49 195M64.9904 147.5L369.99 228M52.1049 181.425L354.49 259M41.4904 213L341.49 295.5M27.4904 249L324.119 328.388" stroke="#E6BA7A" stroke-opacity="0.5" stroke-width="2"/>
<g filter="url(#filter1_d)">
<path d="M122.599 26.2283C122.599 26.2283 127.956 45.3369 130.89 55.8012C133.823 66.2654 150.898 59.614 148.449 50.8786C146 42.1433 143.985 34.9548 140.158 21.3058C136.332 7.65679 122.655 14.2391 126.672 25.0865C126.672 25.0865 133.049 47.8349 134.401 52.6575C135.753 57.4802 145.206 54.6339 143.905 49.9932C142.604 45.3526 136.176 22.4222 136.176 22.4222" stroke="#9DA798" stroke-width="3"/>
<path d="M122.599 26.2283C122.599 26.2283 127.956 45.3369 130.89 55.8012C133.823 66.2654 150.898 59.614 148.449 50.8786C146 42.1433 143.985 34.9548 140.158 21.3058C136.332 7.65679 122.655 14.2391 126.672 25.0865C126.672 25.0865 133.049 47.8349 134.401 52.6575C135.753 57.4802 145.206 54.6339 143.905 49.9932C142.604 45.3526 136.176 22.4222 136.176 22.4222" stroke="url(#paint1_radial)" stroke-width="3"/>
</g>
<path d="M168.542 87.4665C168.791 87.3753 169.09 87.2546 169.44 87.1044C169.805 86.9443 170.175 86.771 170.547 86.5845C170.92 86.398 171.276 86.1931 171.616 85.9699C171.956 85.7466 172.232 85.5213 172.446 85.2939C172.676 85.0567 172.822 84.8189 172.884 84.5806C172.945 84.3422 172.877 84.113 172.679 83.8928C172.255 83.7839 171.787 83.6846 171.274 83.595C170.764 83.4921 170.257 83.376 169.754 83.2466C169.254 83.104 168.776 82.9318 168.32 82.7298C167.877 82.5312 167.497 82.2783 167.181 81.9711C166.865 81.6639 166.643 81.2894 166.517 80.8475C166.407 80.3958 166.43 79.8654 166.587 79.2563C166.771 78.5413 167.068 77.9331 167.48 77.4319C167.907 76.9207 168.403 76.5045 168.965 76.1833C169.531 75.8488 170.135 75.5876 170.776 75.3995C171.434 75.2016 172.078 75.0567 172.709 74.9647C173.029 75.1459 173.304 75.3931 173.534 75.7064C173.764 76.0196 173.948 76.3491 174.085 76.6949C173.917 76.9623 173.674 77.1398 173.355 77.2272C173.05 77.318 172.703 77.3771 172.314 77.4043C171.94 77.435 171.543 77.4672 171.125 77.5009C170.707 77.5346 170.31 77.6231 169.935 77.7665C169.575 77.9001 169.244 78.1184 168.94 78.4214C168.64 78.7113 168.417 79.1408 168.27 79.7102C168.161 80.1339 168.187 80.4723 168.348 80.7254C168.509 80.9785 168.751 81.189 169.075 81.357C169.402 81.5117 169.786 81.6386 170.226 81.7377C170.67 81.8235 171.122 81.9045 171.583 81.9805C172.056 82.0599 172.512 82.1558 172.949 82.2681C173.389 82.3672 173.766 82.5206 174.08 82.7283C174.397 82.9227 174.622 83.1713 174.756 83.4739C174.903 83.78 174.914 84.1779 174.788 84.6679C174.734 84.8797 174.591 85.1325 174.36 85.426C174.143 85.723 173.865 86.0329 173.528 86.3556C173.208 86.6685 172.841 86.9695 172.428 87.2585C172.028 87.551 171.617 87.8053 171.194 88.0213C170.788 88.2275 170.388 88.3857 169.992 88.4958C169.614 88.5961 169.279 88.6088 168.987 88.5339C168.709 88.4624 168.55 88.3154 168.508 88.093C168.48 87.8739 168.491 87.6651 168.542 87.4665ZM180.495 80.8201C180.505 80.7804 180.52 80.749 180.54 80.7259C180.547 80.6995 180.562 80.6681 180.586 80.6317C180.656 80.5792 180.757 80.5135 180.89 80.4348C181.024 80.3561 181.103 80.3202 181.13 80.327L185.122 81.3533C185.16 81.2076 185.199 80.9708 185.241 80.6428C185.283 80.3148 185.334 79.9537 185.393 79.5595C185.465 79.1687 185.56 78.7697 185.679 78.3627C185.801 77.9423 185.951 77.5786 186.129 77.2714C186.324 76.9543 186.554 76.7171 186.82 76.5597C187.103 76.3925 187.443 76.3599 187.841 76.4621C187.497 77.7994 187.314 78.8958 187.291 79.7512C187.269 80.6066 187.354 81.2919 187.546 81.8071C187.752 82.3258 188.036 82.7024 188.399 82.9369C188.763 83.1715 189.151 83.3349 189.565 83.4272C189.996 83.5096 190.423 83.5489 190.848 83.5451C191.272 83.5413 191.642 83.5587 191.956 83.5973C192.284 83.6392 192.527 83.737 192.686 83.8906C192.847 84.0309 192.88 84.2865 192.785 84.6573C192.713 84.9353 192.596 85.1169 192.433 85.2021C192.283 85.2906 192.021 85.322 191.647 85.2963C191.537 85.2823 191.352 85.2628 191.09 85.2379C190.845 85.2031 190.567 85.1598 190.255 85.108C189.944 85.0562 189.611 85.0059 189.256 84.9571C188.905 84.8951 188.574 84.8382 188.263 84.7863C187.951 84.7345 187.668 84.6829 187.413 84.6315C187.162 84.5668 186.976 84.5191 186.857 84.4885C186.84 84.5547 186.804 84.6656 186.75 84.821C186.696 84.9765 186.662 85.0808 186.649 85.1337C186.499 85.7164 186.445 86.3096 186.488 86.9133C186.534 87.5039 186.593 88.0979 186.665 88.6952C186.75 89.296 186.816 89.8916 186.862 90.4822C186.908 91.0727 186.856 91.6593 186.706 92.2419C186.679 92.3479 186.637 92.457 186.579 92.5694C186.539 92.6719 186.474 92.761 186.384 92.8367C186.31 92.9025 186.209 92.94 186.08 92.9491C185.96 92.9748 185.809 92.929 185.628 92.8118C185.159 92.55 184.855 92.1683 184.715 91.6666C184.589 91.1684 184.543 90.606 184.577 89.9795C184.615 89.3398 184.7 88.6772 184.834 87.9917C184.968 87.3061 185.064 86.6602 185.121 86.0537C185.194 85.4374 185.191 84.9002 185.112 84.4421C185.035 83.9707 184.804 83.6359 184.417 83.4377L180.808 81.5783C180.755 81.5647 180.689 81.4913 180.611 81.3581C180.535 81.2117 180.491 81.1086 180.478 81.0488C180.472 81.019 180.474 80.9842 180.484 80.9444C180.478 80.9145 180.481 80.8731 180.495 80.8201ZM197.281 87.1682C197.301 87.0887 197.337 86.9497 197.388 86.7511C197.456 86.5426 197.518 86.3258 197.576 86.1007C197.634 85.8756 197.687 85.6704 197.735 85.485C197.799 85.2898 197.841 85.1525 197.862 85.073C197.995 84.938 198.14 84.8129 198.297 84.6979C198.47 84.573 198.63 84.5011 198.776 84.4822C198.938 84.4535 199.094 84.4794 199.243 84.5599C199.405 84.6439 199.543 84.8206 199.657 85.0899L199.616 85.2488L199.55 85.507C199.52 85.5698 199.452 85.7219 199.348 85.9633C199.247 86.1914 199.132 86.4443 199.005 86.722C198.877 86.9997 198.754 87.2576 198.636 87.4955C198.535 87.7237 198.476 87.8708 198.459 87.937C198.395 88.1886 198.339 88.5132 198.294 88.9108C198.251 89.2952 198.224 89.7046 198.211 90.1389C198.211 90.5766 198.232 91.0194 198.272 91.4673C198.325 91.9186 198.415 92.3371 198.542 92.7226C198.672 93.0948 198.836 93.4192 199.033 93.6958C199.243 93.9757 199.521 94.1599 199.865 94.2484C200.288 94.3574 200.688 94.3401 201.064 94.1967C201.453 94.0567 201.812 93.8386 202.143 93.5423C202.473 93.2461 202.769 92.8916 203.03 92.4788C203.305 92.0695 203.546 91.6516 203.755 91.2252C203.966 90.7856 204.147 90.3591 204.295 89.9456C204.444 89.532 204.559 89.1664 204.641 88.8486C204.723 88.5308 204.773 88.2261 204.791 87.9344C204.826 87.6329 204.847 87.3346 204.852 87.0395C204.857 86.7444 204.867 86.4576 204.882 86.1792C204.914 85.8909 204.966 85.6077 205.037 85.3297C205.102 85.0781 205.234 84.9214 205.433 84.8598C205.646 84.8015 205.865 84.8013 206.09 84.8592C206.368 84.9306 206.571 85.0746 206.699 85.291C206.83 85.4941 206.91 85.7334 206.938 86.0088C206.979 86.2876 206.97 86.596 206.912 86.9338C206.87 87.2618 206.808 87.5847 206.726 87.9025C206.645 88.2203 206.56 88.5231 206.472 88.811C206.387 89.0857 206.322 89.3091 206.278 89.4812C206.162 89.9314 205.998 90.4327 205.786 90.9851C205.573 91.5374 205.302 92.096 204.974 92.6609C204.662 93.2159 204.305 93.7524 203.904 94.2703C203.515 94.7917 203.083 95.2381 202.606 95.6096C202.146 95.9713 201.649 96.2316 201.114 96.3906C200.592 96.5529 200.047 96.5609 199.477 96.4145C198.881 96.2613 198.394 95.9878 198.015 95.594C197.64 95.187 197.353 94.7109 197.155 94.1657C196.973 93.6108 196.852 93.0081 196.793 92.3578C196.735 91.7075 196.722 91.069 196.756 90.4425C196.804 89.8195 196.872 89.223 196.962 88.6533C197.069 88.0737 197.175 87.5787 197.281 87.1682ZM209.64 96.4861C209.837 95.7181 210.204 95.0855 210.742 94.5884C211.279 94.0912 211.888 93.6974 212.57 93.4068C213.255 93.1029 213.968 92.8839 214.708 92.7495C215.452 92.6019 216.134 92.502 216.754 92.4498C217.378 92.3843 217.898 92.3413 218.312 92.3208C218.73 92.2871 218.949 92.2306 218.97 92.1511C219.089 91.6877 219.178 91.2307 219.238 90.7801C219.314 90.3197 219.383 89.8576 219.446 89.3937C219.509 88.9299 219.57 88.4727 219.629 88.0221C219.705 87.5617 219.799 87.113 219.912 86.6761L220.243 85.385C220.837 85.326 221.216 85.4446 221.38 85.7408C221.557 86.0404 221.491 86.4611 221.183 87.0029C221.161 87.3078 221.116 87.7833 221.049 88.4295C220.982 89.0757 220.9 89.803 220.806 90.6115C220.724 91.4233 220.632 92.2749 220.53 93.1662C220.441 94.061 220.347 94.9192 220.249 95.7409C220.168 96.5528 220.086 97.2801 220.006 97.9229C219.929 98.5524 219.871 99.0245 219.832 99.3393C219.829 99.4089 219.808 99.5447 219.77 99.7468C219.735 99.9355 219.689 100.142 219.631 100.368C219.59 100.583 219.546 100.783 219.498 100.969C219.464 101.157 219.436 101.291 219.416 101.371C218.913 101.242 218.574 101.133 218.398 101.046C218.236 100.962 218.144 100.853 218.122 100.721C218.113 100.591 218.137 100.414 218.195 100.189C218.253 99.9638 218.267 99.6356 218.237 99.2043C217.648 99.4624 217.103 99.661 216.601 99.8003C216.099 99.9395 215.61 100.032 215.132 100.079C214.658 100.112 214.188 100.098 213.725 100.035C213.271 99.9887 212.792 99.901 212.289 99.7716C211.865 99.6627 211.463 99.524 211.083 99.3557C210.719 99.1776 210.409 98.9566 210.152 98.693C209.895 98.4293 209.715 98.1147 209.611 97.7493C209.508 97.3838 209.517 96.9628 209.64 96.4861ZM211.475 96.5132C211.42 96.7251 211.423 96.9091 211.481 97.0654C211.54 97.2216 211.63 97.3648 211.752 97.4949C211.874 97.6251 212.009 97.7304 212.158 97.811C212.323 97.8817 212.485 97.9375 212.644 97.9784C213.107 98.0975 213.626 98.1391 214.2 98.1031C214.791 98.0573 215.352 97.9334 215.884 97.7313C216.432 97.5194 216.91 97.2258 217.317 96.8505C217.737 96.4786 218.016 96.0278 218.152 95.4982C218.257 95.0877 218.258 94.7843 218.153 94.5879C218.048 94.3916 217.79 94.2406 217.38 94.1351C216.956 94.0262 216.434 93.9978 215.814 94.0501C215.206 94.1057 214.596 94.231 213.981 94.4259C213.379 94.6241 212.842 94.9024 212.369 95.2607C211.899 95.6058 211.601 96.0233 211.475 96.5132ZM226.927 92.4816C226.958 92.3624 226.988 92.2433 227.019 92.1241C227.066 91.9951 227.123 91.8827 227.19 91.787C227.274 91.6814 227.362 91.6124 227.455 91.5799C227.565 91.5375 227.706 91.5384 227.878 91.5827C227.891 91.5861 227.905 91.5895 227.918 91.5929C227.944 91.5997 227.971 91.6065 227.997 91.6133C228.034 91.6368 228.065 91.6519 228.091 91.6587C228.255 92.0676 228.359 92.5674 228.405 93.1579C228.454 93.7353 228.486 94.3506 228.502 95.0039C228.521 95.6441 228.55 96.3008 228.588 96.9742C228.63 97.6344 228.747 98.2503 228.939 98.8219C229.131 99.3935 229.421 99.8846 229.81 100.295C230.198 100.705 230.742 100.979 231.441 101.117C231.745 101.195 231.986 101.08 232.164 100.773C232.342 100.466 232.497 100.054 232.63 99.5378C232.776 99.0248 232.909 98.452 233.029 97.8195C233.163 97.1903 233.314 96.6011 233.484 96.0518C233.67 95.4926 233.897 95.0216 234.165 94.6387C234.446 94.2592 234.81 94.0494 235.258 94.0093C235.342 94.3978 235.341 94.9765 235.257 95.7452C235.189 96.5041 235.057 97.3737 234.861 98.3539C234.669 99.3209 234.428 100.367 234.139 101.493C233.853 102.605 233.541 103.71 233.202 104.809C232.866 105.894 232.515 106.933 232.146 107.926C231.778 108.918 231.43 109.781 231.1 110.515C230.77 111.249 230.456 111.811 230.158 112.2C229.87 112.606 229.636 112.75 229.454 112.633C229.244 112.297 229.114 111.896 229.064 111.432C229.027 110.971 229.042 110.473 229.109 109.94C229.189 109.41 229.31 108.855 229.473 108.276C229.633 107.71 229.801 107.139 229.977 106.563C230.166 105.991 230.353 105.432 230.535 104.886C230.731 104.343 230.889 103.84 231.008 103.377C230.521 103.294 230.05 103.095 229.594 102.781C229.152 102.469 228.742 102.06 228.364 101.554C227.989 101.034 227.655 100.44 227.361 99.7714C227.08 99.1063 226.865 98.3803 226.714 97.5934C226.577 96.81 226.519 95.9905 226.541 95.1351C226.567 94.2665 226.696 93.382 226.927 92.4816ZM266.654 106.506C266.742 106.162 266.891 105.939 267.101 105.837C267.314 105.723 267.612 105.715 267.996 105.813L268.195 105.865C268.18 106.087 268.163 106.343 268.145 106.635C268.126 106.927 268.133 107.232 268.164 107.55C268.195 107.869 268.251 108.173 268.332 108.462C268.416 108.738 268.545 108.976 268.72 109.176C268.852 108.716 269.079 108.301 269.4 107.932C269.737 107.553 270.107 107.238 270.51 106.989C270.93 106.73 271.36 106.537 271.802 106.411C272.261 106.275 272.692 106.216 273.097 106.235L273.534 106.348C274.169 106.511 274.675 106.796 275.05 107.203C275.429 107.597 275.704 108.063 275.876 108.602C276.065 109.13 276.164 109.706 276.173 110.33C276.182 110.953 276.148 111.579 276.071 112.209C276.011 112.829 275.914 113.425 275.781 113.998C275.664 114.561 275.555 115.041 275.453 115.438L274.003 115.065C274.128 114.25 274.224 113.463 274.292 112.705C274.327 112.403 274.353 112.085 274.368 111.75C274.387 111.402 274.392 111.079 274.384 110.78C274.38 110.468 274.362 110.182 274.331 109.919C274.303 109.644 274.251 109.405 274.176 109.202C274.137 109.135 274.083 109.044 274.014 108.927C273.958 108.814 273.896 108.699 273.827 108.583C273.758 108.466 273.693 108.365 273.63 108.278C273.568 108.192 273.53 108.147 273.517 108.143C273.147 107.935 272.782 107.926 272.423 108.116C272.067 108.293 271.72 108.571 271.382 108.95C271.045 109.329 270.732 109.778 270.443 110.296C270.168 110.818 269.918 111.326 269.692 111.818C269.47 112.298 269.29 112.724 269.151 113.098C269.016 113.459 268.932 113.677 268.898 113.753C268.506 113.906 268.176 113.899 267.909 113.731C267.645 113.551 267.421 113.267 267.238 112.881C267.068 112.499 266.938 112.042 266.849 111.511C266.773 110.983 266.717 110.432 266.681 109.859C266.648 109.271 266.629 108.688 266.623 108.107C266.63 107.53 266.64 106.997 266.654 106.506ZM281.537 113.17C281.748 112.349 282.136 111.637 282.7 111.033C283.268 110.417 283.928 109.937 284.68 109.594C285.448 109.241 286.26 109.019 287.116 108.929C287.986 108.842 288.824 108.902 289.632 109.11C290.082 109.226 290.442 109.473 290.711 109.853C290.994 110.236 291.2 110.671 291.329 111.156C291.462 111.627 291.529 112.11 291.529 112.604C291.542 113.102 291.504 113.523 291.416 113.867C291.225 114.608 290.861 115.284 290.323 115.894C289.788 116.491 289.167 116.987 288.458 117.384C287.752 117.767 286.999 118.032 286.199 118.179C285.399 118.327 284.642 118.308 283.926 118.125C283.291 117.961 282.782 117.717 282.399 117.393C282.02 117.056 281.744 116.674 281.571 116.249C281.402 115.81 281.314 115.328 281.307 114.804C281.318 114.271 281.394 113.726 281.537 113.17ZM283.174 113.802C283.086 114.146 283.034 114.458 283.019 114.736C283.02 115.005 283.07 115.251 283.168 115.473C283.279 115.7 283.447 115.898 283.672 116.069C283.899 116.226 284.199 116.352 284.569 116.448C285.059 116.574 285.583 116.567 286.141 116.428C286.703 116.276 287.228 116.044 287.718 115.732C288.224 115.411 288.661 115.029 289.028 114.587C289.396 114.145 289.641 113.686 289.764 113.209C289.818 112.997 289.858 112.761 289.883 112.499C289.908 112.237 289.901 111.988 289.863 111.753C289.825 111.517 289.738 111.304 289.604 111.114C289.469 110.924 289.269 110.795 289.004 110.727C288.766 110.666 288.461 110.672 288.089 110.746C287.73 110.823 287.34 110.942 286.918 111.101C286.509 111.264 286.091 111.461 285.665 111.69C285.253 111.923 284.866 112.162 284.507 112.408C284.147 112.655 283.844 112.901 283.596 113.148C283.363 113.399 283.222 113.617 283.174 113.802ZM296.914 110.749C296.924 110.709 296.939 110.678 296.959 110.655C296.966 110.628 296.981 110.597 297.005 110.561C297.075 110.508 297.176 110.442 297.309 110.364C297.443 110.285 297.522 110.249 297.549 110.256L301.541 111.282C301.579 111.136 301.618 110.9 301.66 110.572C301.702 110.244 301.753 109.883 301.812 109.488C301.884 109.098 301.979 108.699 302.098 108.292C302.22 107.871 302.37 107.507 302.548 107.2C302.743 106.883 302.973 106.646 303.239 106.489C303.522 106.321 303.862 106.289 304.26 106.391C303.916 107.728 303.733 108.825 303.71 109.68C303.688 110.535 303.773 111.221 303.965 111.736C304.171 112.255 304.455 112.631 304.818 112.866C305.182 113.1 305.57 113.264 305.984 113.356C306.415 113.438 306.842 113.478 307.267 113.474C307.691 113.47 308.061 113.488 308.375 113.526C308.703 113.568 308.946 113.666 309.105 113.819C309.266 113.96 309.299 114.215 309.204 114.586C309.132 114.864 309.015 115.046 308.852 115.131C308.702 115.219 308.44 115.251 308.066 115.225C307.956 115.211 307.771 115.192 307.509 115.167C307.264 115.132 306.986 115.089 306.674 115.037C306.363 114.985 306.03 114.935 305.675 114.886C305.324 114.824 304.993 114.767 304.682 114.715C304.37 114.663 304.087 114.612 303.832 114.56C303.581 114.496 303.395 114.448 303.276 114.417C303.259 114.484 303.223 114.594 303.169 114.75C303.115 114.905 303.081 115.01 303.068 115.063C302.918 115.645 302.864 116.238 302.907 116.842C302.953 117.433 303.012 118.027 303.084 118.624C303.169 119.225 303.235 119.82 303.281 120.411C303.327 121.002 303.275 121.588 303.125 122.171C303.098 122.277 303.056 122.386 302.998 122.498C302.958 122.601 302.893 122.69 302.803 122.766C302.729 122.831 302.628 122.869 302.499 122.878C302.379 122.904 302.228 122.858 302.047 122.741C301.578 122.479 301.274 122.097 301.134 121.595C301.008 121.097 300.962 120.535 300.996 119.908C301.034 119.269 301.119 118.606 301.253 117.92C301.387 117.235 301.483 116.589 301.54 115.983C301.613 115.366 301.61 114.829 301.531 114.371C301.454 113.9 301.223 113.565 300.836 113.367L297.227 111.507C297.174 111.494 297.108 111.42 297.03 111.287C296.954 111.141 296.91 111.037 296.897 110.978C296.891 110.948 296.893 110.913 296.903 110.873C296.897 110.843 296.9 110.802 296.914 110.749ZM313.036 119.679C313.22 118.964 313.49 118.271 313.846 117.6C314.201 116.93 314.638 116.357 315.155 115.883C315.686 115.412 316.295 115.075 316.982 114.871C317.683 114.67 318.464 114.68 319.325 114.901C319.815 115.027 320.221 115.23 320.544 115.511C320.871 115.779 321.123 116.09 321.299 116.446C321.476 116.802 321.573 117.194 321.59 117.622C321.624 118.04 321.586 118.461 321.477 118.885C321.303 119.56 320.976 120.175 320.495 120.728C320.027 121.286 319.465 121.741 318.809 122.095C318.171 122.439 317.481 122.65 316.741 122.728C316.004 122.793 315.302 122.669 314.635 122.356C314.549 122.743 314.595 123.087 314.772 123.386C314.966 123.676 315.219 123.925 315.533 124.132C315.847 124.34 316.184 124.512 316.544 124.647C316.908 124.768 317.236 124.867 317.527 124.942C317.832 125.02 318.123 125.067 318.402 125.082C318.68 125.097 318.96 125.105 319.242 125.107C319.524 125.109 319.804 125.118 320.083 125.133C320.374 125.151 320.672 125.2 320.977 125.278C321.096 125.309 321.214 125.346 321.329 125.39C321.445 125.434 321.549 125.496 321.641 125.576C321.737 125.643 321.804 125.738 321.843 125.861C321.886 125.97 321.888 126.098 321.851 126.244C321.786 126.495 321.639 126.683 321.409 126.808C321.183 126.919 320.909 126.997 320.587 127.041C320.278 127.089 319.943 127.101 319.582 127.079C319.224 127.044 318.875 127.003 318.533 126.958C318.209 126.903 317.907 126.839 317.629 126.768C317.361 126.713 317.161 126.668 317.028 126.634C316.181 126.417 315.454 126.088 314.846 125.65C314.243 125.198 313.77 124.675 313.429 124.079C313.092 123.47 312.884 122.795 312.806 122.055C312.745 121.305 312.821 120.513 313.036 119.679ZM315.473 118.929C315.354 119.393 315.327 119.746 315.391 119.988C315.469 120.234 315.753 120.42 316.243 120.546C316.588 120.634 316.941 120.662 317.302 120.628C317.667 120.58 318.011 120.478 318.334 120.321C318.67 120.168 318.956 119.959 319.194 119.695C319.431 119.431 319.595 119.121 319.687 118.763C319.738 118.565 319.771 118.354 319.786 118.132C319.814 117.914 319.797 117.705 319.735 117.505C319.677 117.293 319.575 117.111 319.431 116.961C319.302 116.801 319.106 116.687 318.841 116.619C318.444 116.517 318.056 116.516 317.677 116.616C317.315 116.707 316.984 116.869 316.684 117.102C316.387 117.322 316.134 117.596 315.922 117.923C315.715 118.236 315.565 118.572 315.473 118.929ZM330.81 129.182C331.06 129.091 331.359 128.97 331.708 128.82C332.074 128.66 332.443 128.487 332.816 128.3C333.188 128.114 333.545 127.909 333.884 127.686C334.224 127.462 334.501 127.237 334.714 127.01C334.945 126.772 335.091 126.535 335.152 126.296C335.213 126.058 335.145 125.829 334.948 125.609C334.524 125.5 334.055 125.4 333.542 125.311C333.032 125.208 332.525 125.092 332.022 124.962C331.522 124.82 331.044 124.647 330.588 124.445C330.145 124.247 329.765 123.994 329.449 123.687C329.133 123.38 328.912 123.005 328.785 122.563C328.675 122.112 328.699 121.581 328.855 120.972C329.039 120.257 329.337 119.649 329.748 119.148C330.176 118.636 330.671 118.22 331.234 117.899C331.8 117.565 332.403 117.303 333.044 117.115C333.702 116.917 334.346 116.772 334.977 116.68C335.298 116.862 335.573 117.109 335.803 117.422C336.033 117.735 336.216 118.065 336.353 118.411C336.186 118.678 335.943 118.856 335.624 118.943C335.318 119.034 334.971 119.093 334.583 119.12C334.208 119.151 333.811 119.183 333.393 119.217C332.975 119.25 332.579 119.339 332.203 119.482C331.844 119.616 331.513 119.834 331.209 120.137C330.908 120.427 330.685 120.857 330.539 121.426C330.43 121.85 330.456 122.188 330.616 122.441C330.777 122.694 331.02 122.905 331.343 123.073C331.671 123.227 332.054 123.354 332.495 123.453C332.939 123.539 333.391 123.62 333.851 123.696C334.325 123.776 334.78 123.872 335.217 123.984C335.657 124.083 336.034 124.236 336.348 124.444C336.665 124.638 336.891 124.887 337.025 125.19C337.172 125.496 337.182 125.894 337.056 126.384C337.002 126.595 336.859 126.848 336.629 127.142C336.411 127.439 336.134 127.749 335.797 128.071C335.476 128.384 335.11 128.685 334.696 128.974C334.297 129.267 333.885 129.521 333.463 129.737C333.057 129.943 332.656 130.101 332.261 130.212C331.882 130.312 331.547 130.324 331.256 130.25C330.978 130.178 330.818 130.031 330.776 129.809C330.748 129.59 330.759 129.381 330.81 129.182ZM216.885 130.598C216.929 130.425 216.994 130.174 217.079 129.843C217.167 129.499 217.287 129.169 217.438 128.855C217.593 128.528 217.776 128.257 217.986 128.043C218.196 127.829 218.454 127.761 218.758 127.84C218.931 127.884 219.03 128.072 219.058 128.404C219.102 128.726 219.1 129.12 219.05 129.587C219.017 130.045 218.944 130.548 218.831 131.098C218.735 131.638 218.632 132.148 218.523 132.628C218.427 133.111 218.339 133.534 218.26 133.895C218.185 134.242 218.151 134.459 218.157 134.545C218.142 134.768 218.133 135.104 218.13 135.555C218.14 136.009 218.142 136.525 218.135 137.102C218.131 137.666 218.134 138.259 218.143 138.883C218.152 139.506 218.155 140.1 218.151 140.663C218.16 141.231 218.17 141.741 218.18 142.196C218.191 142.65 218.205 142.978 218.224 143.181C218.217 143.207 218.213 143.249 218.213 143.305C218.212 143.361 218.209 143.403 218.202 143.429C218.165 143.575 218.081 143.681 217.951 143.746C217.838 143.802 217.702 143.837 217.543 143.853C217.4 143.858 217.254 143.849 217.105 143.825C216.956 143.801 216.822 143.773 216.703 143.743C216.65 143.729 216.572 143.702 216.47 143.662C216.38 143.624 216.322 143.602 216.296 143.596C216.256 142.597 216.208 141.547 216.153 140.446C216.114 139.335 216.105 138.218 216.125 137.094C216.146 135.97 216.213 134.858 216.327 133.757C216.443 132.644 216.629 131.591 216.885 130.598ZM228.098 146.185C228.108 146.145 228.133 146.074 228.174 145.972C228.231 145.859 228.263 145.79 228.27 145.763C228.659 145.623 229.098 145.426 229.587 145.17C230.079 144.902 230.552 144.6 231.005 144.265C231.462 143.916 231.864 143.532 232.212 143.114C232.573 142.698 232.814 142.252 232.937 141.775C232.944 141.749 232.944 141.721 232.938 141.691C232.944 141.664 232.951 141.638 232.958 141.611C232.961 141.598 232.967 141.578 232.973 141.552C232.934 141.485 232.87 141.377 232.782 141.227C232.696 141.064 232.605 140.899 232.506 140.733C232.408 140.567 232.308 140.407 232.206 140.254C232.117 140.104 232.06 139.997 232.034 139.934C232.008 139.927 231.976 139.912 231.94 139.889C231.913 139.882 231.887 139.875 231.86 139.868C231.851 139.852 231.832 139.84 231.806 139.833C231.554 139.768 231.236 139.799 230.85 139.926C230.468 140.04 230.084 140.188 229.698 140.371C229.316 140.541 228.968 140.713 228.655 140.886C228.359 141.05 228.163 141.155 228.066 141.201C228.036 141.207 228.002 141.205 227.962 141.195C227.932 141.202 227.891 141.198 227.838 141.184C227.785 141.171 227.753 141.156 227.743 141.139C227.704 141.129 227.672 141.114 227.649 141.094C227.603 141.054 227.534 140.965 227.442 140.829C227.367 140.682 227.329 140.581 227.33 140.525L227.376 140.346L227.432 140.127C227.623 139.823 227.876 139.444 228.19 138.988C228.505 138.533 228.825 138.057 229.15 137.562C229.478 137.054 229.779 136.545 230.051 136.036C230.339 135.517 230.54 135.04 230.652 134.603C230.734 134.285 230.8 133.97 230.852 133.659C230.907 133.334 230.914 133.033 230.873 132.754C230.832 132.475 230.731 132.237 230.57 132.041C230.408 131.844 230.156 131.701 229.811 131.613C229.348 131.494 228.903 131.52 228.478 131.693C228.069 131.856 227.687 132.104 227.334 132.437C226.997 132.76 226.717 133.132 226.496 133.555C226.277 133.965 226.145 134.369 226.1 134.766L225.246 134.547C225.232 134.543 225.223 134.47 225.217 134.328C225.212 134.185 225.204 134.021 225.196 133.835C225.204 133.64 225.211 133.444 225.219 133.248C225.231 133.04 225.238 132.872 225.243 132.746L225.35 132.329C225.469 131.866 225.714 131.463 226.084 131.12C226.458 130.765 226.884 130.479 227.363 130.263C227.842 130.048 228.33 129.905 228.828 129.835C229.339 129.769 229.794 129.787 230.191 129.889C230.8 130.046 231.276 130.281 231.619 130.595C231.975 130.913 232.233 131.282 232.392 131.704C232.565 132.13 232.652 132.59 232.652 133.084C232.665 133.582 232.627 134.087 232.537 134.6C232.447 135.114 232.321 135.632 232.159 136.155C231.999 136.664 231.849 137.141 231.706 137.584C232.226 137.816 232.695 138.078 233.114 138.369C233.546 138.664 233.897 139.001 234.167 139.381C234.453 139.751 234.64 140.174 234.73 140.648C234.837 141.113 234.813 141.644 234.66 142.24C234.575 142.571 234.418 142.933 234.19 143.326C233.962 143.719 233.676 144.118 233.332 144.524C233.004 144.919 232.638 145.298 232.235 145.66C231.844 146.026 231.438 146.345 231.015 146.617C230.595 146.876 230.173 147.064 229.748 147.181C229.322 147.297 228.924 147.308 228.554 147.213C228.302 147.148 228.145 147.016 228.084 146.817C228.039 146.607 228.043 146.397 228.098 146.185ZM238.745 148.16C238.795 148.074 238.878 147.919 238.992 147.694C239.119 147.473 239.244 147.236 239.365 146.985C239.502 146.724 239.627 146.488 239.737 146.276C239.852 146.052 239.934 145.896 239.984 145.81C240.172 145.464 240.442 144.99 240.794 144.388C241.15 143.774 241.556 143.13 242.011 142.457C242.483 141.773 242.988 141.099 243.527 140.432C244.082 139.756 244.644 139.188 245.214 138.727C245.801 138.257 246.385 137.934 246.967 137.759C247.548 137.584 248.11 137.651 248.651 137.959C248.275 138.653 247.857 139.294 247.395 139.881C246.95 140.458 246.481 141.022 245.986 141.573C245.508 142.113 245.017 142.651 244.513 143.184C244.025 143.708 243.541 144.247 243.06 144.801C242.579 145.355 242.117 145.942 241.675 146.563C241.247 147.187 240.859 147.871 240.513 148.614C240.348 148.981 240.164 149.174 239.962 149.193C239.763 149.198 239.553 149.137 239.331 149.009C239.169 148.925 239.026 148.825 238.9 148.708C238.775 148.591 238.723 148.408 238.745 148.16ZM251.862 145.222C252.002 144.679 252.196 144.115 252.445 143.53C252.695 142.944 252.993 142.386 253.342 141.854C253.69 141.323 254.085 140.831 254.525 140.38C254.966 139.929 255.443 139.557 255.955 139.265C256.471 138.961 257.017 138.762 257.591 138.67C258.182 138.567 258.802 138.6 259.45 138.766C260.351 138.998 261.108 139.348 261.722 139.816C262.348 140.288 262.826 140.848 263.153 141.497C263.493 142.149 263.688 142.877 263.735 143.679C263.786 144.469 263.7 145.301 263.475 146.175C263.318 146.784 263.089 147.43 262.786 148.115C262.483 148.799 262.108 149.458 261.663 150.092C261.235 150.716 260.747 151.296 260.199 151.833C259.652 152.37 259.064 152.819 258.434 153.179C257.805 153.54 257.129 153.782 256.405 153.907C255.695 154.035 254.969 154.003 254.227 153.813C253.565 153.643 253.026 153.377 252.611 153.016C252.209 152.659 251.9 152.241 251.684 151.762C251.469 151.283 251.334 150.761 251.282 150.197C251.233 149.62 251.225 149.046 251.258 148.476C251.309 147.896 251.392 147.325 251.509 146.762C251.625 146.199 251.743 145.685 251.862 145.222ZM253.321 146.55C253.184 147.079 253.068 147.642 252.971 148.239C252.878 148.822 252.874 149.385 252.96 149.93C253.049 150.461 253.252 150.936 253.567 151.356C253.886 151.763 254.39 152.055 255.078 152.232C255.648 152.378 256.192 152.377 256.71 152.228C257.232 152.065 257.721 151.81 258.177 151.462C258.634 151.113 259.058 150.7 259.449 150.222C259.857 149.733 260.213 149.225 260.519 148.697C260.824 148.168 261.084 147.649 261.3 147.14C261.515 146.631 261.676 146.171 261.782 145.76C261.935 145.165 262.033 144.59 262.077 144.036C262.12 143.483 262.072 142.984 261.932 142.538C261.793 142.093 261.538 141.71 261.169 141.389C260.803 141.055 260.269 140.798 259.567 140.618C258.985 140.468 258.44 140.448 257.931 140.557C257.437 140.67 256.976 140.869 256.55 141.155C256.123 141.44 255.735 141.799 255.384 142.231C255.049 142.653 254.748 143.112 254.479 143.608C254.211 144.104 253.975 144.608 253.773 145.12C253.587 145.623 253.436 146.1 253.321 146.55ZM269.205 144.048C269.249 143.876 269.314 143.624 269.399 143.293C269.488 142.949 269.608 142.62 269.759 142.306C269.914 141.979 270.096 141.708 270.306 141.494C270.517 141.28 270.774 141.212 271.079 141.29C271.251 141.334 271.351 141.522 271.378 141.854C271.423 142.176 271.42 142.571 271.371 143.038C271.338 143.495 271.265 143.999 271.152 144.548C271.055 145.088 270.952 145.598 270.843 146.078C270.747 146.562 270.66 146.984 270.581 147.345C270.506 147.693 270.471 147.91 270.477 147.996C270.462 148.218 270.453 148.555 270.45 149.005C270.461 149.46 270.462 149.975 270.455 150.552C270.451 151.116 270.454 151.71 270.463 152.333C270.472 152.957 270.475 153.55 270.471 154.114C270.481 154.681 270.491 155.192 270.501 155.646C270.511 156.1 270.525 156.429 270.544 156.631C270.537 156.658 270.534 156.699 270.533 156.755C270.533 156.812 270.529 156.853 270.522 156.88C270.485 157.025 270.401 157.131 270.272 157.196C270.159 157.252 270.022 157.288 269.863 157.303C269.72 157.309 269.575 157.3 269.426 157.275C269.276 157.251 269.142 157.224 269.023 157.193C268.97 157.179 268.892 157.152 268.79 157.112C268.701 157.075 268.643 157.053 268.616 157.046C268.577 156.048 268.529 154.998 268.473 153.897C268.434 152.786 268.425 151.668 268.446 150.544C268.466 149.42 268.534 148.308 268.647 147.208C268.764 146.094 268.95 145.041 269.205 144.048Z" fill="#5C5345"/>
<path d="M168.542 87.4665C168.791 87.3753 169.09 87.2546 169.44 87.1044C169.805 86.9443 170.175 86.771 170.547 86.5845C170.92 86.398 171.276 86.1931 171.616 85.9699C171.956 85.7466 172.232 85.5213 172.446 85.2939C172.676 85.0567 172.822 84.8189 172.884 84.5806C172.945 84.3422 172.877 84.113 172.679 83.8928C172.255 83.7839 171.787 83.6846 171.274 83.595C170.764 83.4921 170.257 83.376 169.754 83.2466C169.254 83.104 168.776 82.9318 168.32 82.7298C167.877 82.5312 167.497 82.2783 167.181 81.9711C166.865 81.6639 166.643 81.2894 166.517 80.8475C166.407 80.3958 166.43 79.8654 166.587 79.2563C166.771 78.5413 167.068 77.9331 167.48 77.4319C167.907 76.9207 168.403 76.5045 168.965 76.1833C169.531 75.8488 170.135 75.5876 170.776 75.3995C171.434 75.2016 172.078 75.0567 172.709 74.9647C173.029 75.1459 173.304 75.3931 173.534 75.7064C173.764 76.0196 173.948 76.3491 174.085 76.6949C173.917 76.9623 173.674 77.1398 173.355 77.2272C173.05 77.318 172.703 77.3771 172.314 77.4043C171.94 77.435 171.543 77.4672 171.125 77.5009C170.707 77.5346 170.31 77.6231 169.935 77.7665C169.575 77.9001 169.244 78.1184 168.94 78.4214C168.64 78.7113 168.417 79.1408 168.27 79.7102C168.161 80.1339 168.187 80.4723 168.348 80.7254C168.509 80.9785 168.751 81.189 169.075 81.357C169.402 81.5117 169.786 81.6386 170.226 81.7377C170.67 81.8235 171.122 81.9045 171.583 81.9805C172.056 82.0599 172.512 82.1558 172.949 82.2681C173.389 82.3672 173.766 82.5206 174.08 82.7283C174.397 82.9227 174.622 83.1713 174.756 83.4739C174.903 83.78 174.914 84.1779 174.788 84.6679C174.734 84.8797 174.591 85.1325 174.36 85.426C174.143 85.723 173.865 86.0329 173.528 86.3556C173.208 86.6685 172.841 86.9695 172.428 87.2585C172.028 87.551 171.617 87.8053 171.194 88.0213C170.788 88.2275 170.388 88.3857 169.992 88.4958C169.614 88.5961 169.279 88.6088 168.987 88.5339C168.709 88.4624 168.55 88.3154 168.508 88.093C168.48 87.8739 168.491 87.6651 168.542 87.4665ZM180.495 80.8201C180.505 80.7804 180.52 80.749 180.54 80.7259C180.547 80.6995 180.562 80.6681 180.586 80.6317C180.656 80.5792 180.757 80.5135 180.89 80.4348C181.024 80.3561 181.103 80.3202 181.13 80.327L185.122 81.3533C185.16 81.2076 185.199 80.9708 185.241 80.6428C185.283 80.3148 185.334 79.9537 185.393 79.5595C185.465 79.1687 185.56 78.7697 185.679 78.3627C185.801 77.9423 185.951 77.5786 186.129 77.2714C186.324 76.9543 186.554 76.7171 186.82 76.5597C187.103 76.3925 187.443 76.3599 187.841 76.4621C187.497 77.7994 187.314 78.8958 187.291 79.7512C187.269 80.6066 187.354 81.2919 187.546 81.8071C187.752 82.3258 188.036 82.7024 188.399 82.9369C188.763 83.1715 189.151 83.3349 189.565 83.4272C189.996 83.5096 190.423 83.5489 190.848 83.5451C191.272 83.5413 191.642 83.5587 191.956 83.5973C192.284 83.6392 192.527 83.737 192.686 83.8906C192.847 84.0309 192.88 84.2865 192.785 84.6573C192.713 84.9353 192.596 85.1169 192.433 85.2021C192.283 85.2906 192.021 85.322 191.647 85.2963C191.537 85.2823 191.352 85.2628 191.09 85.2379C190.845 85.2031 190.567 85.1598 190.255 85.108C189.944 85.0562 189.611 85.0059 189.256 84.9571C188.905 84.8951 188.574 84.8382 188.263 84.7863C187.951 84.7345 187.668 84.6829 187.413 84.6315C187.162 84.5668 186.976 84.5191 186.857 84.4885C186.84 84.5547 186.804 84.6656 186.75 84.821C186.696 84.9765 186.662 85.0808 186.649 85.1337C186.499 85.7164 186.445 86.3096 186.488 86.9133C186.534 87.5039 186.593 88.0979 186.665 88.6952C186.75 89.296 186.816 89.8916 186.862 90.4822C186.908 91.0727 186.856 91.6593 186.706 92.2419C186.679 92.3479 186.637 92.457 186.579 92.5694C186.539 92.6719 186.474 92.761 186.384 92.8367C186.31 92.9025 186.209 92.94 186.08 92.9491C185.96 92.9748 185.809 92.929 185.628 92.8118C185.159 92.55 184.855 92.1683 184.715 91.6666C184.589 91.1684 184.543 90.606 184.577 89.9795C184.615 89.3398 184.7 88.6772 184.834 87.9917C184.968 87.3061 185.064 86.6602 185.121 86.0537C185.194 85.4374 185.191 84.9002 185.112 84.4421C185.035 83.9707 184.804 83.6359 184.417 83.4377L180.808 81.5783C180.755 81.5647 180.689 81.4913 180.611 81.3581C180.535 81.2117 180.491 81.1086 180.478 81.0488C180.472 81.019 180.474 80.9842 180.484 80.9444C180.478 80.9145 180.481 80.8731 180.495 80.8201ZM197.281 87.1682C197.301 87.0887 197.337 86.9497 197.388 86.7511C197.456 86.5426 197.518 86.3258 197.576 86.1007C197.634 85.8756 197.687 85.6704 197.735 85.485C197.799 85.2898 197.841 85.1525 197.862 85.073C197.995 84.938 198.14 84.8129 198.297 84.6979C198.47 84.573 198.63 84.5011 198.776 84.4822C198.938 84.4535 199.094 84.4794 199.243 84.5599C199.405 84.6439 199.543 84.8206 199.657 85.0899L199.616 85.2488L199.55 85.507C199.52 85.5698 199.452 85.7219 199.348 85.9633C199.247 86.1914 199.132 86.4443 199.005 86.722C198.877 86.9997 198.754 87.2576 198.636 87.4955C198.535 87.7237 198.476 87.8708 198.459 87.937C198.395 88.1886 198.339 88.5132 198.294 88.9108C198.251 89.2952 198.224 89.7046 198.211 90.1389C198.211 90.5766 198.232 91.0194 198.272 91.4673C198.325 91.9186 198.415 92.3371 198.542 92.7226C198.672 93.0948 198.836 93.4192 199.033 93.6958C199.243 93.9757 199.521 94.1599 199.865 94.2484C200.288 94.3574 200.688 94.3401 201.064 94.1967C201.453 94.0567 201.812 93.8386 202.143 93.5423C202.473 93.2461 202.769 92.8916 203.03 92.4788C203.305 92.0695 203.546 91.6516 203.755 91.2252C203.966 90.7856 204.147 90.3591 204.295 89.9456C204.444 89.532 204.559 89.1664 204.641 88.8486C204.723 88.5308 204.773 88.2261 204.791 87.9344C204.826 87.6329 204.847 87.3346 204.852 87.0395C204.857 86.7444 204.867 86.4576 204.882 86.1792C204.914 85.8909 204.966 85.6077 205.037 85.3297C205.102 85.0781 205.234 84.9214 205.433 84.8598C205.646 84.8015 205.865 84.8013 206.09 84.8592C206.368 84.9306 206.571 85.0746 206.699 85.291C206.83 85.4941 206.91 85.7334 206.938 86.0088C206.979 86.2876 206.97 86.596 206.912 86.9338C206.87 87.2618 206.808 87.5847 206.726 87.9025C206.645 88.2203 206.56 88.5231 206.472 88.811C206.387 89.0857 206.322 89.3091 206.278 89.4812C206.162 89.9314 205.998 90.4327 205.786 90.9851C205.573 91.5374 205.302 92.096 204.974 92.6609C204.662 93.2159 204.305 93.7524 203.904 94.2703C203.515 94.7917 203.083 95.2381 202.606 95.6096C202.146 95.9713 201.649 96.2316 201.114 96.3906C200.592 96.5529 200.047 96.5609 199.477 96.4145C198.881 96.2613 198.394 95.9878 198.015 95.594C197.64 95.187 197.353 94.7109 197.155 94.1657C196.973 93.6108 196.852 93.0081 196.793 92.3578C196.735 91.7075 196.722 91.069 196.756 90.4425C196.804 89.8195 196.872 89.223 196.962 88.6533C197.069 88.0737 197.175 87.5787 197.281 87.1682ZM209.64 96.4861C209.837 95.7181 210.204 95.0855 210.742 94.5884C211.279 94.0912 211.888 93.6974 212.57 93.4068C213.255 93.1029 213.968 92.8839 214.708 92.7495C215.452 92.6019 216.134 92.502 216.754 92.4498C217.378 92.3843 217.898 92.3413 218.312 92.3208C218.73 92.2871 218.949 92.2306 218.97 92.1511C219.089 91.6877 219.178 91.2307 219.238 90.7801C219.314 90.3197 219.383 89.8576 219.446 89.3937C219.509 88.9299 219.57 88.4727 219.629 88.0221C219.705 87.5617 219.799 87.113 219.912 86.6761L220.243 85.385C220.837 85.326 221.216 85.4446 221.38 85.7408C221.557 86.0404 221.491 86.4611 221.183 87.0029C221.161 87.3078 221.116 87.7833 221.049 88.4295C220.982 89.0757 220.9 89.803 220.806 90.6115C220.724 91.4233 220.632 92.2749 220.53 93.1662C220.441 94.061 220.347 94.9192 220.249 95.7409C220.168 96.5528 220.086 97.2801 220.006 97.9229C219.929 98.5524 219.871 99.0245 219.832 99.3393C219.829 99.4089 219.808 99.5447 219.77 99.7468C219.735 99.9355 219.689 100.142 219.631 100.368C219.59 100.583 219.546 100.783 219.498 100.969C219.464 101.157 219.436 101.291 219.416 101.371C218.913 101.242 218.574 101.133 218.398 101.046C218.236 100.962 218.144 100.853 218.122 100.721C218.113 100.591 218.137 100.414 218.195 100.189C218.253 99.9638 218.267 99.6356 218.237 99.2043C217.648 99.4624 217.103 99.661 216.601 99.8003C216.099 99.9395 215.61 100.032 215.132 100.079C214.658 100.112 214.188 100.098 213.725 100.035C213.271 99.9887 212.792 99.901 212.289 99.7716C211.865 99.6627 211.463 99.524 211.083 99.3557C210.719 99.1776 210.409 98.9566 210.152 98.693C209.895 98.4293 209.715 98.1147 209.611 97.7493C209.508 97.3838 209.517 96.9628 209.64 96.4861ZM211.475 96.5132C211.42 96.7251 211.423 96.9091 211.481 97.0654C211.54 97.2216 211.63 97.3648 211.752 97.4949C211.874 97.6251 212.009 97.7304 212.158 97.811C212.323 97.8817 212.485 97.9375 212.644 97.9784C213.107 98.0975 213.626 98.1391 214.2 98.1031C214.791 98.0573 215.352 97.9334 215.884 97.7313C216.432 97.5194 216.91 97.2258 217.317 96.8505C217.737 96.4786 218.016 96.0278 218.152 95.4982C218.257 95.0877 218.258 94.7843 218.153 94.5879C218.048 94.3916 217.79 94.2406 217.38 94.1351C216.956 94.0262 216.434 93.9978 215.814 94.0501C215.206 94.1057 214.596 94.231 213.981 94.4259C213.379 94.6241 212.842 94.9024 212.369 95.2607C211.899 95.6058 211.601 96.0233 211.475 96.5132ZM226.927 92.4816C226.958 92.3624 226.988 92.2433 227.019 92.1241C227.066 91.9951 227.123 91.8827 227.19 91.787C227.274 91.6814 227.362 91.6124 227.455 91.5799C227.565 91.5375 227.706 91.5384 227.878 91.5827C227.891 91.5861 227.905 91.5895 227.918 91.5929C227.944 91.5997 227.971 91.6065 227.997 91.6133C228.034 91.6368 228.065 91.6519 228.091 91.6587C228.255 92.0676 228.359 92.5674 228.405 93.1579C228.454 93.7353 228.486 94.3506 228.502 95.0039C228.521 95.6441 228.55 96.3008 228.588 96.9742C228.63 97.6344 228.747 98.2503 228.939 98.8219C229.131 99.3935 229.421 99.8846 229.81 100.295C230.198 100.705 230.742 100.979 231.441 101.117C231.745 101.195 231.986 101.08 232.164 100.773C232.342 100.466 232.497 100.054 232.63 99.5378C232.776 99.0248 232.909 98.452 233.029 97.8195C233.163 97.1903 233.314 96.6011 233.484 96.0518C233.67 95.4926 233.897 95.0216 234.165 94.6387C234.446 94.2592 234.81 94.0494 235.258 94.0093C235.342 94.3978 235.341 94.9765 235.257 95.7452C235.189 96.5041 235.057 97.3737 234.861 98.3539C234.669 99.3209 234.428 100.367 234.139 101.493C233.853 102.605 233.541 103.71 233.202 104.809C232.866 105.894 232.515 106.933 232.146 107.926C231.778 108.918 231.43 109.781 231.1 110.515C230.77 111.249 230.456 111.811 230.158 112.2C229.87 112.606 229.636 112.75 229.454 112.633C229.244 112.297 229.114 111.896 229.064 111.432C229.027 110.971 229.042 110.473 229.109 109.94C229.189 109.41 229.31 108.855 229.473 108.276C229.633 107.71 229.801 107.139 229.977 106.563C230.166 105.991 230.353 105.432 230.535 104.886C230.731 104.343 230.889 103.84 231.008 103.377C230.521 103.294 230.05 103.095 229.594 102.781C229.152 102.469 228.742 102.06 228.364 101.554C227.989 101.034 227.655 100.44 227.361 99.7714C227.08 99.1063 226.865 98.3803 226.714 97.5934C226.577 96.81 226.519 95.9905 226.541 95.1351C226.567 94.2665 226.696 93.382 226.927 92.4816ZM266.654 106.506C266.742 106.162 266.891 105.939 267.101 105.837C267.314 105.723 267.612 105.715 267.996 105.813L268.195 105.865C268.18 106.087 268.163 106.343 268.145 106.635C268.126 106.927 268.133 107.232 268.164 107.55C268.195 107.869 268.251 108.173 268.332 108.462C268.416 108.738 268.545 108.976 268.72 109.176C268.852 108.716 269.079 108.301 269.4 107.932C269.737 107.553 270.107 107.238 270.51 106.989C270.93 106.73 271.36 106.537 271.802 106.411C272.261 106.275 272.692 106.216 273.097 106.235L273.534 106.348C274.169 106.511 274.675 106.796 275.05 107.203C275.429 107.597 275.704 108.063 275.876 108.602C276.065 109.13 276.164 109.706 276.173 110.33C276.182 110.953 276.148 111.579 276.071 112.209C276.011 112.829 275.914 113.425 275.781 113.998C275.664 114.561 275.555 115.041 275.453 115.438L274.003 115.065C274.128 114.25 274.224 113.463 274.292 112.705C274.327 112.403 274.353 112.085 274.368 111.75C274.387 111.402 274.392 111.079 274.384 110.78C274.38 110.468 274.362 110.182 274.331 109.919C274.303 109.644 274.251 109.405 274.176 109.202C274.137 109.135 274.083 109.044 274.014 108.927C273.958 108.814 273.896 108.699 273.827 108.583C273.758 108.466 273.693 108.365 273.63 108.278C273.568 108.192 273.53 108.147 273.517 108.143C273.147 107.935 272.782 107.926 272.423 108.116C272.067 108.293 271.72 108.571 271.382 108.95C271.045 109.329 270.732 109.778 270.443 110.296C270.168 110.818 269.918 111.326 269.692 111.818C269.47 112.298 269.29 112.724 269.151 113.098C269.016 113.459 268.932 113.677 268.898 113.753C268.506 113.906 268.176 113.899 267.909 113.731C267.645 113.551 267.421 113.267 267.238 112.881C267.068 112.499 266.938 112.042 266.849 111.511C266.773 110.983 266.717 110.432 266.681 109.859C266.648 109.271 266.629 108.688 266.623 108.107C266.63 107.53 266.64 106.997 266.654 106.506ZM281.537 113.17C281.748 112.349 282.136 111.637 282.7 111.033C283.268 110.417 283.928 109.937 284.68 109.594C285.448 109.241 286.26 109.019 287.116 108.929C287.986 108.842 288.824 108.902 289.632 109.11C290.082 109.226 290.442 109.473 290.711 109.853C290.994 110.236 291.2 110.671 291.329 111.156C291.462 111.627 291.529 112.11 291.529 112.604C291.542 113.102 291.504 113.523 291.416 113.867C291.225 114.608 290.861 115.284 290.323 115.894C289.788 116.491 289.167 116.987 288.458 117.384C287.752 117.767 286.999 118.032 286.199 118.179C285.399 118.327 284.642 118.308 283.926 118.125C283.291 117.961 282.782 117.717 282.399 117.393C282.02 117.056 281.744 116.674 281.571 116.249C281.402 115.81 281.314 115.328 281.307 114.804C281.318 114.271 281.394 113.726 281.537 113.17ZM283.174 113.802C283.086 114.146 283.034 114.458 283.019 114.736C283.02 115.005 283.07 115.251 283.168 115.473C283.279 115.7 283.447 115.898 283.672 116.069C283.899 116.226 284.199 116.352 284.569 116.448C285.059 116.574 285.583 116.567 286.141 116.428C286.703 116.276 287.228 116.044 287.718 115.732C288.224 115.411 288.661 115.029 289.028 114.587C289.396 114.145 289.641 113.686 289.764 113.209C289.818 112.997 289.858 112.761 289.883 112.499C289.908 112.237 289.901 111.988 289.863 111.753C289.825 111.517 289.738 111.304 289.604 111.114C289.469 110.924 289.269 110.795 289.004 110.727C288.766 110.666 288.461 110.672 288.089 110.746C287.73 110.823 287.34 110.942 286.918 111.101C286.509 111.264 286.091 111.461 285.665 111.69C285.253 111.923 284.866 112.162 284.507 112.408C284.147 112.655 283.844 112.901 283.596 113.148C283.363 113.399 283.222 113.617 283.174 113.802ZM296.914 110.749C296.924 110.709 296.939 110.678 296.959 110.655C296.966 110.628 296.981 110.597 297.005 110.561C297.075 110.508 297.176 110.442 297.309 110.364C297.443 110.285 297.522 110.249 297.549 110.256L301.541 111.282C301.579 111.136 301.618 110.9 301.66 110.572C301.702 110.244 301.753 109.883 301.812 109.488C301.884 109.098 301.979 108.699 302.098 108.292C302.22 107.871 302.37 107.507 302.548 107.2C302.743 106.883 302.973 106.646 303.239 106.489C303.522 106.321 303.862 106.289 304.26 106.391C303.916 107.728 303.733 108.825 303.71 109.68C303.688 110.535 303.773 111.221 303.965 111.736C304.171 112.255 304.455 112.631 304.818 112.866C305.182 113.1 305.57 113.264 305.984 113.356C306.415 113.438 306.842 113.478 307.267 113.474C307.691 113.47 308.061 113.488 308.375 113.526C308.703 113.568 308.946 113.666 309.105 113.819C309.266 113.96 309.299 114.215 309.204 114.586C309.132 114.864 309.015 115.046 308.852 115.131C308.702 115.219 308.44 115.251 308.066 115.225C307.956 115.211 307.771 115.192 307.509 115.167C307.264 115.132 306.986 115.089 306.674 115.037C306.363 114.985 306.03 114.935 305.675 114.886C305.324 114.824 304.993 114.767 304.682 114.715C304.37 114.663 304.087 114.612 303.832 114.56C303.581 114.496 303.395 114.448 303.276 114.417C303.259 114.484 303.223 114.594 303.169 114.75C303.115 114.905 303.081 115.01 303.068 115.063C302.918 115.645 302.864 116.238 302.907 116.842C302.953 117.433 303.012 118.027 303.084 118.624C303.169 119.225 303.235 119.82 303.281 120.411C303.327 121.002 303.275 121.588 303.125 122.171C303.098 122.277 303.056 122.386 302.998 122.498C302.958 122.601 302.893 122.69 302.803 122.766C302.729 122.831 302.628 122.869 302.499 122.878C302.379 122.904 302.228 122.858 302.047 122.741C301.578 122.479 301.274 122.097 301.134 121.595C301.008 121.097 300.962 120.535 300.996 119.908C301.034 119.269 301.119 118.606 301.253 117.92C301.387 117.235 301.483 116.589 301.54 115.983C301.613 115.366 301.61 114.829 301.531 114.371C301.454 113.9 301.223 113.565 300.836 113.367L297.227 111.507C297.174 111.494 297.108 111.42 297.03 111.287C296.954 111.141 296.91 111.037 296.897 110.978C296.891 110.948 296.893 110.913 296.903 110.873C296.897 110.843 296.9 110.802 296.914 110.749ZM313.036 119.679C313.22 118.964 313.49 118.271 313.846 117.6C314.201 116.93 314.638 116.357 315.155 115.883C315.686 115.412 316.295 115.075 316.982 114.871C317.683 114.67 318.464 114.68 319.325 114.901C319.815 115.027 320.221 115.23 320.544 115.511C320.871 115.779 321.123 116.09 321.299 116.446C321.476 116.802 321.573 117.194 321.59 117.622C321.624 118.04 321.586 118.461 321.477 118.885C321.303 119.56 320.976 120.175 320.495 120.728C320.027 121.286 319.465 121.741 318.809 122.095C318.171 122.439 317.481 122.65 316.741 122.728C316.004 122.793 315.302 122.669 314.635 122.356C314.549 122.743 314.595 123.087 314.772 123.386C314.966 123.676 315.219 123.925 315.533 124.132C315.847 124.34 316.184 124.512 316.544 124.647C316.908 124.768 317.236 124.867 317.527 124.942C317.832 125.02 318.123 125.067 318.402 125.082C318.68 125.097 318.96 125.105 319.242 125.107C319.524 125.109 319.804 125.118 320.083 125.133C320.374 125.151 320.672 125.2 320.977 125.278C321.096 125.309 321.214 125.346 321.329 125.39C321.445 125.434 321.549 125.496 321.641 125.576C321.737 125.643 321.804 125.738 321.843 125.861C321.886 125.97 321.888 126.098 321.851 126.244C321.786 126.495 321.639 126.683 321.409 126.808C321.183 126.919 320.909 126.997 320.587 127.041C320.278 127.089 319.943 127.101 319.582 127.079C319.224 127.044 318.875 127.003 318.533 126.958C318.209 126.903 317.907 126.839 317.629 126.768C317.361 126.713 317.161 126.668 317.028 126.634C316.181 126.417 315.454 126.088 314.846 125.65C314.243 125.198 313.77 124.675 313.429 124.079C313.092 123.47 312.884 122.795 312.806 122.055C312.745 121.305 312.821 120.513 313.036 119.679ZM315.473 118.929C315.354 119.393 315.327 119.746 315.391 119.988C315.469 120.234 315.753 120.42 316.243 120.546C316.588 120.634 316.941 120.662 317.302 120.628C317.667 120.58 318.011 120.478 318.334 120.321C318.67 120.168 318.956 119.959 319.194 119.695C319.431 119.431 319.595 119.121 319.687 118.763C319.738 118.565 319.771 118.354 319.786 118.132C319.814 117.914 319.797 117.705 319.735 117.505C319.677 117.293 319.575 117.111 319.431 116.961C319.302 116.801 319.106 116.687 318.841 116.619C318.444 116.517 318.056 116.516 317.677 116.616C317.315 116.707 316.984 116.869 316.684 117.102C316.387 117.322 316.134 117.596 315.922 117.923C315.715 118.236 315.565 118.572 315.473 118.929ZM330.81 129.182C331.06 129.091 331.359 128.97 331.708 128.82C332.074 128.66 332.443 128.487 332.816 128.3C333.188 128.114 333.545 127.909 333.884 127.686C334.224 127.462 334.501 127.237 334.714 127.01C334.945 126.772 335.091 126.535 335.152 126.296C335.213 126.058 335.145 125.829 334.948 125.609C334.524 125.5 334.055 125.4 333.542 125.311C333.032 125.208 332.525 125.092 332.022 124.962C331.522 124.82 331.044 124.647 330.588 124.445C330.145 124.247 329.765 123.994 329.449 123.687C329.133 123.38 328.912 123.005 328.785 122.563C328.675 122.112 328.699 121.581 328.855 120.972C329.039 120.257 329.337 119.649 329.748 119.148C330.176 118.636 330.671 118.22 331.234 117.899C331.8 117.565 332.403 117.303 333.044 117.115C333.702 116.917 334.346 116.772 334.977 116.68C335.298 116.862 335.573 117.109 335.803 117.422C336.033 117.735 336.216 118.065 336.353 118.411C336.186 118.678 335.943 118.856 335.624 118.943C335.318 119.034 334.971 119.093 334.583 119.12C334.208 119.151 333.811 119.183 333.393 119.217C332.975 119.25 332.579 119.339 332.203 119.482C331.844 119.616 331.513 119.834 331.209 120.137C330.908 120.427 330.685 120.857 330.539 121.426C330.43 121.85 330.456 122.188 330.616 122.441C330.777 122.694 331.02 122.905 331.343 123.073C331.671 123.227 332.054 123.354 332.495 123.453C332.939 123.539 333.391 123.62 333.851 123.696C334.325 123.776 334.78 123.872 335.217 123.984C335.657 124.083 336.034 124.236 336.348 124.444C336.665 124.638 336.891 124.887 337.025 125.19C337.172 125.496 337.182 125.894 337.056 126.384C337.002 126.595 336.859 126.848 336.629 127.142C336.411 127.439 336.134 127.749 335.797 128.071C335.476 128.384 335.11 128.685 334.696 128.974C334.297 129.267 333.885 129.521 333.463 129.737C333.057 129.943 332.656 130.101 332.261 130.212C331.882 130.312 331.547 130.324 331.256 130.25C330.978 130.178 330.818 130.031 330.776 129.809C330.748 129.59 330.759 129.381 330.81 129.182ZM216.885 130.598C216.929 130.425 216.994 130.174 217.079 129.843C217.167 129.499 217.287 129.169 217.438 128.855C217.593 128.528 217.776 128.257 217.986 128.043C218.196 127.829 218.454 127.761 218.758 127.84C218.931 127.884 219.03 128.072 219.058 128.404C219.102 128.726 219.1 129.12 219.05 129.587C219.017 130.045 218.944 130.548 218.831 131.098C218.735 131.638 218.632 132.148 218.523 132.628C218.427 133.111 218.339 133.534 218.26 133.895C218.185 134.242 218.151 134.459 218.157 134.545C218.142 134.768 218.133 135.104 218.13 135.555C218.14 136.009 218.142 136.525 218.135 137.102C218.131 137.666 218.134 138.259 218.143 138.883C218.152 139.506 218.155 140.1 218.151 140.663C218.16 141.231 218.17 141.741 218.18 142.196C218.191 142.65 218.205 142.978 218.224 143.181C218.217 143.207 218.213 143.249 218.213 143.305C218.212 143.361 218.209 143.403 218.202 143.429C218.165 143.575 218.081 143.681 217.951 143.746C217.838 143.802 217.702 143.837 217.543 143.853C217.4 143.858 217.254 143.849 217.105 143.825C216.956 143.801 216.822 143.773 216.703 143.743C216.65 143.729 216.572 143.702 216.47 143.662C216.38 143.624 216.322 143.602 216.296 143.596C216.256 142.597 216.208 141.547 216.153 140.446C216.114 139.335 216.105 138.218 216.125 137.094C216.146 135.97 216.213 134.858 216.327 133.757C216.443 132.644 216.629 131.591 216.885 130.598ZM228.098 146.185C228.108 146.145 228.133 146.074 228.174 145.972C228.231 145.859 228.263 145.79 228.27 145.763C228.659 145.623 229.098 145.426 229.587 145.17C230.079 144.902 230.552 144.6 231.005 144.265C231.462 143.916 231.864 143.532 232.212 143.114C232.573 142.698 232.814 142.252 232.937 141.775C232.944 141.749 232.944 141.721 232.938 141.691C232.944 141.664 232.951 141.638 232.958 141.611C232.961 141.598 232.967 141.578 232.973 141.552C232.934 141.485 232.87 141.377 232.782 141.227C232.696 141.064 232.605 140.899 232.506 140.733C232.408 140.567 232.308 140.407 232.206 140.254C232.117 140.104 232.06 139.997 232.034 139.934C232.008 139.927 231.976 139.912 231.94 139.889C231.913 139.882 231.887 139.875 231.86 139.868C231.851 139.852 231.832 139.84 231.806 139.833C231.554 139.768 231.236 139.799 230.85 139.926C230.468 140.04 230.084 140.188 229.698 140.371C229.316 140.541 228.968 140.713 228.655 140.886C228.359 141.05 228.163 141.155 228.066 141.201C228.036 141.207 228.002 141.205 227.962 141.195C227.932 141.202 227.891 141.198 227.838 141.184C227.785 141.171 227.753 141.156 227.743 141.139C227.704 141.129 227.672 141.114 227.649 141.094C227.603 141.054 227.534 140.965 227.442 140.829C227.367 140.682 227.329 140.581 227.33 140.525L227.376 140.346L227.432 140.127C227.623 139.823 227.876 139.444 228.19 138.988C228.505 138.533 228.825 138.057 229.15 137.562C229.478 137.054 229.779 136.545 230.051 136.036C230.339 135.517 230.54 135.04 230.652 134.603C230.734 134.285 230.8 133.97 230.852 133.659C230.907 133.334 230.914 133.033 230.873 132.754C230.832 132.475 230.731 132.237 230.57 132.041C230.408 131.844 230.156 131.701 229.811 131.613C229.348 131.494 228.903 131.52 228.478 131.693C228.069 131.856 227.687 132.104 227.334 132.437C226.997 132.76 226.717 133.132 226.496 133.555C226.277 133.965 226.145 134.369 226.1 134.766L225.246 134.547C225.232 134.543 225.223 134.47 225.217 134.328C225.212 134.185 225.204 134.021 225.196 133.835C225.204 133.64 225.211 133.444 225.219 133.248C225.231 133.04 225.238 132.872 225.243 132.746L225.35 132.329C225.469 131.866 225.714 131.463 226.084 131.12C226.458 130.765 226.884 130.479 227.363 130.263C227.842 130.048 228.33 129.905 228.828 129.835C229.339 129.769 229.794 129.787 230.191 129.889C230.8 130.046 231.276 130.281 231.619 130.595C231.975 130.913 232.233 131.282 232.392 131.704C232.565 132.13 232.652 132.59 232.652 133.084C232.665 133.582 232.627 134.087 232.537 134.6C232.447 135.114 232.321 135.632 232.159 136.155C231.999 136.664 231.849 137.141 231.706 137.584C232.226 137.816 232.695 138.078 233.114 138.369C233.546 138.664 233.897 139.001 234.167 139.381C234.453 139.751 234.64 140.174 234.73 140.648C234.837 141.113 234.813 141.644 234.66 142.24C234.575 142.571 234.418 142.933 234.19 143.326C233.962 143.719 233.676 144.118 233.332 144.524C233.004 144.919 232.638 145.298 232.235 145.66C231.844 146.026 231.438 146.345 231.015 146.617C230.595 146.876 230.173 147.064 229.748 147.181C229.322 147.297 228.924 147.308 228.554 147.213C228.302 147.148 228.145 147.016 228.084 146.817C228.039 146.607 228.043 146.397 228.098 146.185ZM238.745 148.16C238.795 148.074 238.878 147.919 238.992 147.694C239.119 147.473 239.244 147.236 239.365 146.985C239.502 146.724 239.627 146.488 239.737 146.276C239.852 146.052 239.934 145.896 239.984 145.81C240.172 145.464 240.442 144.99 240.794 144.388C241.15 143.774 241.556 143.13 242.011 142.457C242.483 141.773 242.988 141.099 243.527 140.432C244.082 139.756 244.644 139.188 245.214 138.727C245.801 138.257 246.385 137.934 246.967 137.759C247.548 137.584 248.11 137.651 248.651 137.959C248.275 138.653 247.857 139.294 247.395 139.881C246.95 140.458 246.481 141.022 245.986 141.573C245.508 142.113 245.017 142.651 244.513 143.184C244.025 143.708 243.541 144.247 243.06 144.801C242.579 145.355 242.117 145.942 241.675 146.563C241.247 147.187 240.859 147.871 240.513 148.614C240.348 148.981 240.164 149.174 239.962 149.193C239.763 149.198 239.553 149.137 239.331 149.009C239.169 148.925 239.026 148.825 238.9 148.708C238.775 148.591 238.723 148.408 238.745 148.16ZM251.862 145.222C252.002 144.679 252.196 144.115 252.445 143.53C252.695 142.944 252.993 142.386 253.342 141.854C253.69 141.323 254.085 140.831 254.525 140.38C254.966 139.929 255.443 139.557 255.955 139.265C256.471 138.961 257.017 138.762 257.591 138.67C258.182 138.567 258.802 138.6 259.45 138.766C260.351 138.998 261.108 139.348 261.722 139.816C262.348 140.288 262.826 140.848 263.153 141.497C263.493 142.149 263.688 142.877 263.735 143.679C263.786 144.469 263.7 145.301 263.475 146.175C263.318 146.784 263.089 147.43 262.786 148.115C262.483 148.799 262.108 149.458 261.663 150.092C261.235 150.716 260.747 151.296 260.199 151.833C259.652 152.37 259.064 152.819 258.434 153.179C257.805 153.54 257.129 153.782 256.405 153.907C255.695 154.035 254.969 154.003 254.227 153.813C253.565 153.643 253.026 153.377 252.611 153.016C252.209 152.659 251.9 152.241 251.684 151.762C251.469 151.283 251.334 150.761 251.282 150.197C251.233 149.62 251.225 149.046 251.258 148.476C251.309 147.896 251.392 147.325 251.509 146.762C251.625 146.199 251.743 145.685 251.862 145.222ZM253.321 146.55C253.184 147.079 253.068 147.642 252.971 148.239C252.878 148.822 252.874 149.385 252.96 149.93C253.049 150.461 253.252 150.936 253.567 151.356C253.886 151.763 254.39 152.055 255.078 152.232C255.648 152.378 256.192 152.377 256.71 152.228C257.232 152.065 257.721 151.81 258.177 151.462C258.634 151.113 259.058 150.7 259.449 150.222C259.857 149.733 260.213 149.225 260.519 148.697C260.824 148.168 261.084 147.649 261.3 147.14C261.515 146.631 261.676 146.171 261.782 145.76C261.935 145.165 262.033 144.59 262.077 144.036C262.12 143.483 262.072 142.984 261.932 142.538C261.793 142.093 261.538 141.71 261.169 141.389C260.803 141.055 260.269 140.798 259.567 140.618C258.985 140.468 258.44 140.448 257.931 140.557C257.437 140.67 256.976 140.869 256.55 141.155C256.123 141.44 255.735 141.799 255.384 142.231C255.049 142.653 254.748 143.112 254.479 143.608C254.211 144.104 253.975 144.608 253.773 145.12C253.587 145.623 253.436 146.1 253.321 146.55ZM269.205 144.048C269.249 143.876 269.314 143.624 269.399 143.293C269.488 142.949 269.608 142.62 269.759 142.306C269.914 141.979 270.096 141.708 270.306 141.494C270.517 141.28 270.774 141.212 271.079 141.29C271.251 141.334 271.351 141.522 271.378 141.854C271.423 142.176 271.42 142.571 271.371 143.038C271.338 143.495 271.265 143.999 271.152 144.548C271.055 145.088 270.952 145.598 270.843 146.078C270.747 146.562 270.66 146.984 270.581 147.345C270.506 147.693 270.471 147.91 270.477 147.996C270.462 148.218 270.453 148.555 270.45 149.005C270.461 149.46 270.462 149.975 270.455 150.552C270.451 151.116 270.454 151.71 270.463 152.333C270.472 152.957 270.475 153.55 270.471 154.114C270.481 154.681 270.491 155.192 270.501 155.646C270.511 156.1 270.525 156.429 270.544 156.631C270.537 156.658 270.534 156.699 270.533 156.755C270.533 156.812 270.529 156.853 270.522 156.88C270.485 157.025 270.401 157.131 270.272 157.196C270.159 157.252 270.022 157.288 269.863 157.303C269.72 157.309 269.575 157.3 269.426 157.275C269.276 157.251 269.142 157.224 269.023 157.193C268.97 157.179 268.892 157.152 268.79 157.112C268.701 157.075 268.643 157.053 268.616 157.046C268.577 156.048 268.529 154.998 268.473 153.897C268.434 152.786 268.425 151.668 268.446 150.544C268.466 149.42 268.534 148.308 268.647 147.208C268.764 146.094 268.95 145.041 269.205 144.048Z" fill="url(#paint2_radial)"/>
<path d="M90.1872 100.712C91.661 101.493 93.0939 102.275 94.7582 102.681C96.4722 103.1 97.6806 102.183 99.0289 101.952C101.065 101.604 102.956 103.254 104.603 104.118C105.324 104.497 106.12 104.847 106.947 105.05C107.935 105.291 108.207 104.79 108.99 104.581C110.368 104.214 111.701 103.288 113.448 103.715C114.153 103.887 115.019 104.561 115.613 104.92C116.709 105.582 117.694 106.194 119.034 106.54C120.499 106.919 121.398 106.62 122.7 106.407C123.992 106.196 125.614 105.973 127.012 106.053C128.416 106.134 129.99 106.406 131.331 106.919C133.455 107.73 135.144 109.148 137.208 110.059C140.685 111.593 144.436 111.323 148.161 111.889C152.972 112.619 157.094 114.26 161.585 115.932C164.752 117.11 167.784 116.79 171.072 117.451C173.653 117.969 175.95 118.7 178.379 119.628C180.249 120.342 182.036 121.248 183.952 121.882C186.077 122.585 188.211 123.43 190.24 124.297" stroke="black" stroke-opacity="0.27" stroke-linecap="round" stroke-linejoin="round"/>
<path d="M284.187 155.713C285.661 156.493 287.094 157.275 288.758 157.681C290.472 158.1 291.681 157.183 293.029 156.952C295.065 156.604 296.956 158.254 298.603 159.118C299.324 159.497 300.12 159.847 300.947 160.05C301.935 160.291 302.207 159.79 302.99 159.581C304.368 159.214 305.701 158.288 307.448 158.715C308.153 158.887 309.019 159.561 309.613 159.92C310.709 160.582 311.694 161.194 313.034 161.54C314.499 161.919 315.398 161.62 316.7 161.407C317.992 161.196 319.614 160.973 321.012 161.053C322.416 161.134 323.99 161.406 325.331 161.919C327.455 162.73 329.144 164.148 331.208 165.059C334.685 166.593 338.436 166.323 342.161 166.889C346.972 167.619 351.094 169.26 355.585 170.932C358.752 172.111 361.784 171.791 365.072 172.451C367.653 172.969 369.95 173.7 372.379 174.628C374.249 175.342 376.036 176.248 377.952 176.882C380.077 177.585 382.211 178.43 384.24 179.297" stroke="black" stroke-opacity="0.27" stroke-linecap="round" stroke-linejoin="round"/>
<path d="M80.6863 133.639C84.5253 135.066 88.2656 136.479 92.443 137.573C96.7451 138.699 99.375 138.17 102.573 138.444C107.403 138.86 112.543 141.399 116.831 142.985C118.709 143.68 120.758 144.373 122.835 144.917C125.315 145.566 125.807 145.125 127.642 145.203C130.867 145.341 133.794 144.851 138.18 145.998C139.949 146.462 142.276 147.536 143.839 148.159C146.722 149.309 149.319 150.362 152.688 151.263C156.37 152.248 158.456 152.274 161.547 152.55C164.615 152.823 168.479 153.213 171.901 153.847C175.34 154.484 179.252 155.395 182.681 156.478C188.109 158.193 192.683 160.4 197.999 162.2C206.954 165.231 215.975 166.401 225.21 168.473C237.136 171.149 247.693 174.549 259.157 178.127C267.242 180.65 274.5 181.485 282.706 183.489C289.146 185.062 294.969 186.757 301.175 188.717C305.956 190.227 310.597 191.914 315.46 193.353C320.857 194.951 326.321 196.706 331.538 198.445" stroke="black" stroke-opacity="0.27" stroke-linecap="round" stroke-linejoin="round"/>
</g>
<defs>
<filter id="filter0_d" x="0.329407" y="0.150833" width="451.916" height="392.779" filterUnits="userSpaceOnUse" color-interpolation-filters="sRGB">
<feFlood flood-opacity="0" result="BackgroundImageFix"/>
<feColorMatrix in="SourceAlpha" type="matrix" values="0 0 0 0 0 0 0 0 0 0 0 0 0 0 0 0 0 0 127 0"/>
<feOffset dx="10" dy="10"/>
<feGaussianBlur stdDeviation="10"/>
<feColorMatrix type="matrix" values="0 0 0 0 0.954167 0 0 0 0 0.781352 0 0 0 0 0.675868 0 0 0 1 0"/>
<feBlend mode="normal" in2="BackgroundImageFix" result="effect1_dropShadow"/>
<feBlend mode="normal" in="SourceGraphic" in2="effect1_dropShadow" result="shape"/>
</filter>
<filter id="filter1_d" x="118.141" y="10.1508" width="59.1793" height="74.7139" filterUnits="userSpaceOnUse" color-interpolation-filters="sRGB">
<feFlood flood-opacity="0" result="BackgroundImageFix"/>
<feColorMatrix in="SourceAlpha" type="matrix" values="0 0 0 0 0 0 0 0 0 0 0 0 0 0 0 0 0 0 127 0"/>
<feOffset dx="15" dy="10"/>
<feGaussianBlur stdDeviation="5"/>
<feColorMatrix type="matrix" values="0 0 0 0 0.954167 0 0 0 0 0.781352 0 0 0 0 0.675868 0 0 0 1 0"/>
<feBlend mode="normal" in2="BackgroundImageFix" result="effect1_dropShadow"/>
<feBlend mode="normal" in="SourceGraphic" in2="effect1_dropShadow" result="shape"/>
</filter>
<radialGradient id="paint0_radial" cx="0" cy="0" r="1" gradientUnits="userSpaceOnUse" gradientTransform="translate(220.991 199.258) rotate(113.865) scale(536.357 1603.89)">
<stop stop-color="#F0D190"/>
<stop offset="1" stop-color="white" stop-opacity="0"/>
</radialGradient>
<radialGradient id="paint1_radial" cx="0" cy="0" r="1" gradientUnits="userSpaceOnUse" gradientTransform="translate(135.231 37.5078) rotate(74.3398) scale(23.935 9.11809)">
<stop stop-color="#ADCB9B"/>
<stop offset="1" stop-color="white" stop-opacity="0"/>
</radialGradient>
<radialGradient id="paint2_radial" cx="0" cy="0" r="1" gradientUnits="userSpaceOnUse" gradientTransform="translate(249.178 121.539) rotate(124.209) scale(59.7641 381.368)">
<stop stop-color="#9DA798"/>
<stop offset="1" stop-color="white" stop-opacity="0"/>
</radialGradient>
</defs>
</svg>
