<svg width="610" height="348" viewBox="0 0 610 348" fill="none" xmlns="http://www.w3.org/2000/svg">
<g filter="url(#filter0_d)">
<g filter="url(#filter1_d)">
<path d="M196.5 195C231.624 147.279 282.319 151.686 256.994 132.101C231.668 112.517 319.926 75.1977 322.994 71.2546M322.994 71.2546C414.911 80.4469 444.259 79.4405 461.102 67.789L505.686 67.6535M322.994 71.2546C360.872 38.2173 385.544 25.1309 456.044 43.712" stroke="#8F928D" stroke-width="3"/>
<path d="M196.5 195C231.624 147.279 282.319 151.686 256.994 132.101C231.668 112.517 319.926 75.1977 322.994 71.2546M322.994 71.2546C414.911 80.4469 444.259 79.4405 461.102 67.789L505.686 67.6535M322.994 71.2546C360.872 38.2173 385.544 25.1309 456.044 43.712" stroke="url(#paint0_radial)" stroke-width="3"/>
<path d="M492.282 27.1839L455.223 41.3807C455.233 44.6026 454.86 47.4574 457.697 47.4488C460.534 47.4402 472.137 41.0532 495.031 34.0796C519.723 39.2296 524.874 34.1002 522.163 22.0529C518.985 7.93223 504.664 4.65992 492.282 27.1839Z" fill="#7CBEA6"/>
<path d="M492.282 27.1839L455.223 41.3807C455.233 44.6026 454.86 47.4574 457.697 47.4488C460.534 47.4402 472.137 41.0532 495.031 34.0796C519.723 39.2296 524.874 34.1002 522.163 22.0529C518.985 7.93223 504.664 4.65992 492.282 27.1839Z" fill="url(#paint1_radial)"/>
<path d="M547.187 61.4593L507.558 63.5723C506.577 66.6411 505.344 69.2428 508.046 70.1071C510.748 70.9713 523.753 68.4616 547.683 68.8662C535.646 84.7319 573.304 77.4839 577.198 65.7654C580.695 55.2411 572.944 56.3724 547.187 61.4593Z" fill="#7CBEA6"/>
<path d="M547.187 61.4593L507.558 63.5723C506.577 66.6411 505.344 69.2428 508.046 70.1071C510.748 70.9713 523.753 68.4616 547.683 68.8662C535.646 84.7319 573.304 77.4839 577.198 65.7654C580.695 55.2411 572.944 56.3724 547.187 61.4593Z" fill="url(#paint2_radial)"/>
</g>
<rect width="102.823" height="185.135" rx="40" transform="matrix(-0.47322 -0.880944 -0.880944 0.47322 221.752 229.581)" fill="#676C64"/>
<rect width="102.823" height="185.135" rx="40" transform="matrix(-0.47322 -0.880944 -0.880944 0.47322 221.752 229.581)" fill="url(#paint3_radial)"/>
<rect width="87.9057" height="148.374" rx="15" transform="matrix(-0.47322 -0.880944 -0.880944 0.47322 202.03 231.708)" fill="#7CBEA6"/>
<rect width="87.9057" height="148.374" rx="15" transform="matrix(-0.47322 -0.880944 -0.880944 0.47322 202.03 231.708)" fill="url(#paint4_radial)"/>
<rect width="35.695" height="3.99571" rx="1.99786" transform="matrix(-0.47322 -0.880944 -0.880944 0.47322 198.594 203.92)" fill="#F8F8F8"/>
<g opacity="0.8">
<path d="M139.501 226.6L127.742 208.99L102.368 218.849C101.727 211.758 99.4477 207.27 93.0011 210.67C85.7379 214.5 97.1011 225.275 104.675 222.659L123.628 212.663L133.176 226.81L118.607 234.493C118.278 227.487 114.278 223.161 109.116 226.6C103.142 231.625 111.5 243.086 118.606 240L139.501 226.6Z" fill="white"/>
<path d="M139.501 226.6L127.742 208.99L102.368 218.849C101.727 211.758 99.4477 207.27 93.0011 210.67C85.7379 214.5 97.1011 225.275 104.675 222.659L123.628 212.663L133.176 226.81L118.607 234.493C118.278 227.487 114.278 223.161 109.116 226.6C103.142 231.625 111.5 243.086 118.606 240L139.501 226.6Z" fill="url(#paint5_radial)"/>
<path d="M139.501 226.6L127.742 208.99L102.368 218.849C101.727 211.758 99.4477 207.27 93.0011 210.67C85.7379 214.5 97.1011 225.275 104.675 222.659L123.628 212.663L133.176 226.81L118.607 234.493C118.278 227.487 114.278 223.161 109.116 226.6C103.142 231.625 111.5 243.086 118.606 240L139.501 226.6Z" stroke="white" stroke-opacity="0.2"/>
</g>
</g>
<defs>
<filter id="filter0_d" x="0.000427246" y="0.832298" width="609.233" height="346.358" filterUnits="userSpaceOnUse" color-interpolation-filters="sRGB">
<feFlood flood-opacity="0" result="BackgroundImageFix"/>
<feColorMatrix in="SourceAlpha" type="matrix" values="0 0 0 0 0 0 0 0 0 0 0 0 0 0 0 0 0 0 127 0"/>
<feOffset dx="10" dy="10"/>
<feGaussianBlur stdDeviation="10"/>
<feColorMatrix type="matrix" values="0 0 0 0 0.921569 0 0 0 0 0.721569 0 0 0 0 0.627451 0 0 0 0.8 0"/>
<feBlend mode="normal" in2="BackgroundImageFix" result="effect1_dropShadow"/>
<feBlend mode="normal" in="SourceGraphic" in2="effect1_dropShadow" result="shape"/>
</filter>
<filter id="filter1_d" x="190.807" y="10.8323" width="392.426" height="193.064" filterUnits="userSpaceOnUse" color-interpolation-filters="sRGB">
<feFlood flood-opacity="0" result="BackgroundImageFix"/>
<feColorMatrix in="SourceAlpha" type="matrix" values="0 0 0 0 0 0 0 0 0 0 0 0 0 0 0 0 0 0 127 0"/>
<feOffset dy="4"/>
<feGaussianBlur stdDeviation="2"/>
<feColorMatrix type="matrix" values="0 0 0 0 0 0 0 0 0 0 0 0 0 0 0 0 0 0 0.25 0"/>
<feBlend mode="normal" in2="BackgroundImageFix" result="effect1_dropShadow"/>
<feBlend mode="normal" in="SourceGraphic" in2="effect1_dropShadow" result="shape"/>
</filter>
<radialGradient id="paint0_radial" cx="0" cy="0" r="1" gradientUnits="userSpaceOnUse" gradientTransform="translate(32.8255 121.064) rotate(10.6869) scale(352.395 1506.03)">
<stop stop-color="#F0F2EF"/>
<stop offset="1" stop-color="white" stop-opacity="0"/>
</radialGradient>
<radialGradient id="paint1_radial" cx="0" cy="0" r="1" gradientUnits="userSpaceOnUse" gradientTransform="translate(488.994 29.1443) rotate(89.826) scale(18.2093 33.8251)">
<stop stop-color="#ADCB9B"/>
<stop offset="1" stop-color="white" stop-opacity="0"/>
</radialGradient>
<radialGradient id="paint2_radial" cx="0" cy="0" r="1" gradientUnits="userSpaceOnUse" gradientTransform="translate(542.462 64.3799) rotate(107.735) scale(15.9387 33.5084)">
<stop stop-color="#ADCB9B"/>
<stop offset="1" stop-color="white" stop-opacity="0"/>
</radialGradient>
<radialGradient id="paint3_radial" cx="0" cy="0" r="1" gradientUnits="userSpaceOnUse" gradientTransform="translate(51.4115 92.5673) rotate(90) scale(92.5673 51.4115)">
<stop stop-color="#ADCB9B"/>
<stop offset="1" stop-color="white" stop-opacity="0"/>
</radialGradient>
<radialGradient id="paint4_radial" cx="0" cy="0" r="1" gradientUnits="userSpaceOnUse" gradientTransform="translate(43.9528 74.187) rotate(90) scale(74.187 43.9528)">
<stop stop-color="#ADCB9B"/>
<stop offset="1" stop-color="white" stop-opacity="0"/>
</radialGradient>
<radialGradient id="paint5_radial" cx="0" cy="0" r="1" gradientUnits="userSpaceOnUse" gradientTransform="translate(118.501 222) rotate(158.523) scale(32.7757 32.2384)">
<stop stop-color="#7CBEA6"/>
<stop offset="1" stop-color="white" stop-opacity="0"/>
</radialGradient>
</defs>
</svg>
