<svg width="279" height="186" viewBox="0 0 279 186" fill="none" xmlns="http://www.w3.org/2000/svg">
<g filter="url(#filter0_d)">
<path d="M23.2775 151.947L25.6049 160.633L243.024 102.376C246.01 101.576 247.275 99.7824 247.275 99.7824C247.275 99.7824 249.01 97.572 248.137 94.3147L224.936 7.72702C224.936 7.72702 224.693 6.82106 223.613 6.04517C222.532 5.26929 220.409 6.0309 220.409 6.0309L0.00370323 65.0882L2.18563 73.2313C2.18563 73.2313 20.7692 67.67 23.4602 77.7131C26.1512 87.7562 7.27678 92.2317 7.27678 92.2317L10.5497 104.446C10.5497 104.446 28.7695 97.5278 31.8242 108.928C34.8789 120.328 15.7135 123.718 15.7135 123.718L18.3318 133.49C18.3318 133.49 36.479 126.3 39.461 137.429C42.4429 148.558 23.2775 151.947 23.2775 151.947Z" fill="#FDAD7C"/>
<path d="M23.2775 151.947L25.6049 160.633L243.024 102.376C246.01 101.576 247.275 99.7824 247.275 99.7824C247.275 99.7824 249.01 97.572 248.137 94.3147L224.936 7.72702C224.936 7.72702 224.693 6.82106 223.613 6.04517C222.532 5.26929 220.409 6.0309 220.409 6.0309L0.00370323 65.0882L2.18563 73.2313C2.18563 73.2313 20.7692 67.67 23.4602 77.7131C26.1512 87.7562 7.27678 92.2317 7.27678 92.2317L10.5497 104.446C10.5497 104.446 28.7695 97.5278 31.8242 108.928C34.8789 120.328 15.7135 123.718 15.7135 123.718L18.3318 133.49C18.3318 133.49 36.479 126.3 39.461 137.429C42.4429 148.558 23.2775 151.947 23.2775 151.947Z" fill="url(#paint0_radial)"/>
<rect x="48.6415" y="66.5109" width="171.555" height="78.0635" transform="rotate(-15.8689 48.6415 66.5109)" fill="#BDBDBD"/>
<rect x="48.6415" y="66.5109" width="171.555" height="78.0635" transform="rotate(-15.8689 48.6415 66.5109)" fill="url(#paint1_radial)"/>
<path d="M79.6451 85.7914C79.7866 85.6296 79.952 85.4274 80.1414 85.1849C80.3387 84.9289 80.5334 84.6622 80.7252 84.3847C80.9171 84.1073 81.0902 83.8232 81.2444 83.5325C81.3987 83.2418 81.5074 82.9742 81.5706 82.7296C81.6418 82.4716 81.6527 82.246 81.6034 82.053C81.5541 81.86 81.4166 81.7237 81.1907 81.6444C80.8475 81.732 80.4763 81.8439 80.077 81.9801C79.675 82.1056 79.2702 82.2204 78.8627 82.3244C78.4525 82.4177 78.0461 82.4815 77.6436 82.5157C77.2519 82.5472 76.884 82.5155 76.5399 82.4206C76.1958 82.3257 75.8929 82.146 75.6312 81.8816C75.3775 81.6037 75.1877 81.2181 75.0617 80.7248C74.9139 80.1457 74.8883 79.5983 74.985 79.0824C75.0898 78.553 75.2792 78.0649 75.5535 77.6179C75.825 77.1602 76.1517 76.7398 76.5337 76.3567C76.9236 75.9602 77.3245 75.6065 77.7363 75.2957C78.0343 75.2996 78.3259 75.3679 78.6111 75.5007C78.8963 75.6335 79.1548 75.796 79.3866 75.9881C79.3718 76.2432 79.2682 76.4638 79.0759 76.65C78.8943 76.8334 78.671 77.0104 78.4061 77.1808C78.1519 77.3485 77.883 77.5257 77.5994 77.7123C77.3158 77.899 77.0686 78.1163 76.8578 78.3643C76.655 78.5989 76.5047 78.8828 76.4071 79.2162C76.3067 79.5388 76.3154 79.9307 76.4331 80.3918C76.5207 80.7349 76.6709 80.965 76.8835 81.0821C77.0962 81.1991 77.3501 81.2542 77.6453 81.2474C77.9379 81.2298 78.2597 81.1705 78.6108 81.0694C78.9592 80.9576 79.3116 80.8391 79.668 80.7138C80.0351 80.5858 80.3956 80.4766 80.7495 80.3863C81.1006 80.2852 81.4279 80.2473 81.7314 80.2726C82.0321 80.2872 82.2889 80.3759 82.5018 80.5385C82.7254 80.6985 82.8879 80.9768 82.9892 81.3736C83.033 81.5452 83.0301 81.7801 82.9806 82.0783C82.9418 82.3738 82.8656 82.7016 82.752 83.0619C82.6464 83.4087 82.5032 83.7651 82.3225 84.1311C82.1525 84.4943 81.9596 84.8349 81.7438 85.1527C81.5359 85.4571 81.3131 85.7253 81.0754 85.9573C80.8456 86.1759 80.6128 86.3153 80.3769 86.3756C80.1517 86.4331 79.981 86.391 79.8649 86.2493C79.7595 86.1049 79.6862 85.9522 79.6451 85.7914ZM85.5421 76.4211C85.5339 76.3889 85.5324 76.3607 85.5377 76.3365C85.5322 76.3151 85.5307 76.2869 85.5332 76.252C85.5624 76.1874 85.609 76.1013 85.6729 75.9936C85.7367 75.8859 85.7794 75.8293 85.8009 75.8239L89.034 74.9983C89.0039 74.8804 88.9399 74.6968 88.842 74.4477C88.7442 74.1985 88.6394 73.9225 88.5278 73.6198C88.427 73.3143 88.3395 72.9939 88.2653 72.6587C88.1884 72.3128 88.1533 71.9963 88.1599 71.709C88.1745 71.4083 88.2457 71.1502 88.3735 70.9349C88.5092 70.706 88.7379 70.5505 89.0597 70.4684C89.3362 71.5515 89.6331 72.4009 89.9502 73.0167C90.2674 73.6325 90.5944 74.0859 90.9314 74.3768C91.2792 74.665 91.6276 74.8216 91.9767 74.8467C92.3258 74.8718 92.6652 74.8365 92.9949 74.7409C93.3325 74.6318 93.6513 74.4933 93.9511 74.3254C94.2509 74.1575 94.52 74.0259 94.7584 73.9308C95.0076 73.8329 95.2182 73.8077 95.3902 73.8552C95.5595 73.8919 95.6825 74.0604 95.7592 74.3606C95.8167 74.5858 95.8041 74.7604 95.7215 74.8843C95.6497 75.0054 95.4758 75.1298 95.1999 75.2573C95.1169 75.29 94.9776 75.3484 94.7821 75.4326C94.5945 75.5033 94.3802 75.5809 94.139 75.6653C93.8978 75.7497 93.6419 75.8436 93.3713 75.947C93.098 76.0396 92.8407 76.1281 92.5996 76.2126C92.3584 76.297 92.1373 76.3706 91.9363 76.4333C91.7326 76.4854 91.5824 76.5237 91.4859 76.5483C91.4996 76.6019 91.5175 76.6945 91.5396 76.8259C91.5618 76.9573 91.5783 77.0445 91.5893 77.0874C91.7098 77.5592 91.9026 78.0012 92.1677 78.4132C92.4301 78.8146 92.7032 79.2132 92.987 79.609C93.2816 80.0021 93.5601 80.3994 93.8225 80.8007C94.0849 81.202 94.2763 81.6386 94.3968 82.1105C94.4187 82.1963 94.4312 82.2902 94.4344 82.3921C94.4456 82.4807 94.434 82.5693 94.3995 82.6581C94.3731 82.7334 94.3157 82.7994 94.2274 82.8562C94.1525 82.921 94.0278 82.9472 93.8533 82.9346C93.4184 82.9314 93.0539 82.7789 92.7598 82.477C92.4764 82.1724 92.2249 81.7912 92.0052 81.3333C91.7827 80.8646 91.5855 80.3609 91.4137 79.8223C91.2419 79.2836 91.0582 78.7879 90.8627 78.3352C90.6751 77.8691 90.4639 77.4889 90.2288 77.1948C89.9911 76.89 89.6964 76.7425 89.3448 76.7523L86.0596 76.8372C86.0167 76.8482 85.9414 76.8217 85.8337 76.7578C85.7233 76.6832 85.6519 76.6272 85.6195 76.5898C85.6033 76.5711 85.5911 76.5457 85.5829 76.5135C85.5667 76.4948 85.5531 76.464 85.5421 76.4211ZM99.9276 74.3929C99.9112 74.3286 99.8824 74.216 99.8413 74.0551C99.8082 73.8808 99.7684 73.7025 99.7219 73.5202C99.6753 73.3379 99.6329 73.1717 99.5946 73.0215C99.5642 72.8579 99.5408 72.744 99.5244 72.6796C99.5666 72.5318 99.6209 72.3865 99.6873 72.2439C99.7617 72.0879 99.847 71.9747 99.9433 71.9044C100.048 71.8207 100.168 71.7785 100.305 71.7778C100.453 71.7744 100.619 71.846 100.805 71.9927L100.838 72.1214L100.892 72.3305C100.895 72.3869 100.906 72.521 100.926 72.733C100.943 72.9342 100.96 73.1583 100.978 73.4052C100.995 73.652 101.008 73.8828 101.017 74.0975C101.034 74.2988 101.05 74.4262 101.063 74.4798C101.116 74.6836 101.203 74.9355 101.325 75.2355C101.445 75.5248 101.584 75.8261 101.744 76.1394C101.915 76.4499 102.102 76.7563 102.305 77.0586C102.518 77.3582 102.745 77.6201 102.985 77.8444C103.222 78.058 103.465 78.2245 103.712 78.3441C103.97 78.4609 104.239 78.4837 104.518 78.4125C104.861 78.3249 105.138 78.1571 105.349 77.9091C105.57 77.6583 105.741 77.3635 105.86 77.0247C105.979 76.6859 106.051 76.3191 106.076 75.9244C106.111 75.5269 106.12 75.1363 106.102 74.7525C106.081 74.358 106.043 73.9851 105.988 73.6337C105.932 73.2824 105.872 72.978 105.806 72.7206C105.74 72.4633 105.657 72.2274 105.557 72.0132C105.464 71.7855 105.363 71.5659 105.252 71.3544C105.14 71.1429 105.036 70.9354 104.938 70.7318C104.849 70.5149 104.775 70.2938 104.718 70.0686C104.666 69.8648 104.698 69.7023 104.816 69.5809C104.944 69.4567 105.099 69.3714 105.282 69.3249C105.507 69.2674 105.707 69.2905 105.882 69.3943C106.054 69.4874 106.204 69.6263 106.331 69.8108C106.469 69.9927 106.583 70.2149 106.673 70.4775C106.77 70.7267 106.852 70.9799 106.918 71.2373C106.984 71.4947 107.041 71.7427 107.091 71.9814C107.138 72.2093 107.179 72.393 107.214 72.5324C107.307 72.897 107.386 73.3167 107.45 73.7915C107.514 74.2663 107.54 74.7681 107.526 75.297C107.521 75.8125 107.476 76.3321 107.393 76.856C107.32 77.3771 107.187 77.8623 106.994 78.3115C106.808 78.7473 106.556 79.1257 106.238 79.4468C105.931 79.7651 105.547 79.9831 105.086 80.1008C104.603 80.224 104.151 80.2196 103.729 80.0875C103.304 79.9447 102.915 79.7184 102.562 79.4088C102.217 79.0858 101.897 78.7048 101.602 78.2661C101.307 77.8273 101.05 77.379 100.83 76.9211C100.621 76.4604 100.438 76.0104 100.28 75.5709C100.13 75.118 100.012 74.7253 99.9276 74.3929ZM112.327 76.1958C112.168 75.5739 112.183 74.9819 112.37 74.4199C112.558 73.858 112.838 73.3412 113.208 72.8695C113.576 72.3872 113.997 71.9543 114.47 71.5707C114.941 71.1764 115.386 70.84 115.806 70.5614C116.223 70.2721 116.575 70.0395 116.861 69.8636C117.145 69.6769 117.279 69.5514 117.262 69.4871C117.166 69.1118 117.052 68.7526 116.919 68.4097C116.793 68.0533 116.663 67.6983 116.527 67.3446C116.391 66.991 116.256 66.6427 116.123 66.2998C115.997 65.9434 115.89 65.5882 115.799 65.2344L115.532 64.1888C115.931 63.9157 116.246 63.8524 116.478 63.9988C116.72 64.1426 116.837 64.4668 116.829 64.9715C116.932 65.1965 117.085 65.5514 117.289 66.0362C117.493 66.5211 117.718 67.0689 117.966 67.6797C118.224 68.2877 118.49 68.928 118.765 69.6004C119.05 70.27 119.317 70.9156 119.568 71.5371C119.826 72.1452 120.051 72.693 120.244 73.1806C120.434 73.6574 120.577 74.0151 120.672 74.2535C120.697 74.3044 120.735 74.4089 120.787 74.567C120.836 74.7144 120.883 74.8792 120.93 75.0615C120.985 75.2304 121.031 75.3899 121.069 75.54C121.118 75.6874 121.151 75.7933 121.168 75.8576C120.76 75.9617 120.477 76.0168 120.319 76.0229C120.171 76.0263 120.064 75.9853 119.996 75.8997C119.939 75.8114 119.888 75.6761 119.841 75.4938C119.794 75.3115 119.677 75.0732 119.487 74.7789C119.17 75.1912 118.86 75.5444 118.558 75.8385C118.256 76.1326 117.945 76.3891 117.624 76.6082C117.3 76.8165 116.961 76.9887 116.608 77.1247C116.268 77.2686 115.894 77.3926 115.486 77.4967C115.143 77.5843 114.804 77.6424 114.468 77.6709C114.141 77.686 113.835 77.6499 113.55 77.5628C113.265 77.4756 113.014 77.3225 112.799 77.1035C112.583 76.8844 112.426 76.5819 112.327 76.1958ZM113.64 75.5007C113.684 75.6723 113.757 75.8021 113.86 75.8902C113.962 75.9783 114.082 76.0448 114.219 76.0897C114.356 76.1347 114.493 76.1568 114.63 76.1561C114.775 76.142 114.912 76.1185 115.04 76.0856C115.416 75.9898 115.8 75.8174 116.193 75.5685C116.595 75.3061 116.945 74.9996 117.244 74.6492C117.551 74.2853 117.775 73.8909 117.918 73.466C118.072 73.0384 118.094 72.6102 117.984 72.1812C117.899 71.8488 117.782 71.6333 117.631 71.5347C117.48 71.4362 117.238 71.4293 116.906 71.5142C116.563 71.6018 116.181 71.7849 115.761 72.0635C115.352 72.3394 114.967 72.6661 114.606 73.0437C114.257 73.4186 113.983 73.8253 113.787 74.2639C113.588 74.6917 113.539 75.104 113.64 75.5007ZM123.039 66.6243C123.014 66.5278 122.989 66.4312 122.965 66.3347C122.948 66.2248 122.945 66.1228 122.955 66.0288C122.973 65.9213 123.009 65.8379 123.063 65.7786C123.124 65.7058 123.224 65.6516 123.364 65.616C123.375 65.6133 123.385 65.6105 123.396 65.6078C123.417 65.6023 123.439 65.5968 123.46 65.5914C123.495 65.5939 123.523 65.5924 123.545 65.5869C123.82 65.8137 124.089 66.1278 124.351 66.5291C124.611 66.9197 124.873 67.3439 125.138 67.8016C125.401 68.2485 125.677 68.7035 125.967 69.1664C126.253 69.6187 126.576 70.0103 126.935 70.3414C127.294 70.6724 127.691 70.908 128.126 71.0481C128.562 71.1882 129.054 71.1709 129.604 70.9964C129.85 70.9334 129.977 70.7583 129.984 70.471C129.99 70.1838 129.94 69.831 129.833 69.4128C129.737 68.9919 129.609 68.5335 129.448 68.0377C129.298 67.5391 129.176 67.0619 129.082 66.6061C128.997 66.1367 128.975 65.7141 129.016 65.338C129.067 64.9593 129.245 64.6685 129.547 64.4657C129.757 64.7089 129.982 65.1198 130.221 65.6984C130.469 66.2636 130.713 66.9321 130.956 67.704C131.196 68.4651 131.433 69.3014 131.665 70.213C131.895 71.1137 132.104 72.02 132.291 72.9318C132.475 73.8328 132.63 74.7071 132.755 75.5547C132.88 76.4023 132.969 77.1508 133.02 77.8002C133.072 78.4495 133.068 78.9703 133.008 79.3625C132.961 79.7627 132.851 79.9566 132.677 79.944C132.397 79.787 132.148 79.5534 131.932 79.2431C131.727 78.9301 131.544 78.5713 131.383 78.1668C131.233 77.7595 131.104 77.3186 130.994 76.844C130.887 76.3801 130.784 75.9095 130.685 75.4322C130.597 74.9522 130.511 74.4828 130.428 74.0242C130.356 73.5629 130.272 73.1445 130.176 72.7692C129.798 72.9 129.387 72.9423 128.941 72.8962C128.506 72.8474 128.055 72.7168 127.59 72.5043C127.122 72.2812 126.653 71.9896 126.184 71.6296C125.726 71.2668 125.291 70.8355 124.877 70.3356C124.475 69.8329 124.115 69.2737 123.798 68.6579C123.478 68.0314 123.225 67.3535 123.039 66.6243ZM153.705 76.768C154.305 76.6147 154.813 76.3652 155.227 76.0195C155.644 75.6845 155.964 75.283 156.187 74.8148C156.424 74.3546 156.565 73.8559 156.611 73.3188C156.67 72.7897 156.632 72.2624 156.498 71.737C156.43 71.4689 156.323 71.1191 156.179 70.6876C156.045 70.2534 155.886 69.7858 155.701 69.2848C155.516 68.7837 155.301 68.2788 155.057 67.77C154.824 67.2585 154.571 66.7859 154.301 66.3524C154.028 65.9082 153.733 65.5379 153.418 65.2415C153.11 64.9317 152.792 64.7387 152.464 64.6624C152.24 64.9481 152.018 65.2163 151.796 65.4671C151.572 65.7071 151.33 65.9231 151.07 66.115C150.811 66.3068 150.535 66.48 150.244 66.6345C149.949 66.7782 149.625 66.8953 149.271 66.9857C148.81 67.1034 148.402 67.1618 148.048 67.1609C147.704 67.1572 147.394 67.0823 147.116 66.9361C146.85 66.7871 146.621 66.56 146.429 66.255C146.236 65.9499 146.076 65.5454 145.947 65.0414C145.857 64.6875 145.855 64.3224 145.942 63.9462C146.026 63.5592 146.17 63.1854 146.375 62.8247C146.588 62.4505 146.84 62.0949 147.131 61.7579C147.432 61.4181 147.748 61.1092 148.076 60.8311C148.416 60.5502 148.756 60.3149 149.096 60.1253C149.446 59.933 149.766 59.7999 150.056 59.7259C150.335 59.6547 150.568 59.6066 150.756 59.5815C150.941 59.5457 151.107 59.5489 151.255 59.5911C151.4 59.6226 151.535 59.7024 151.659 59.8306C151.791 59.9454 151.932 60.1152 152.08 60.3399C152.541 61.1134 153.055 61.9416 153.623 62.8246C154.191 63.7076 154.75 64.6215 155.3 65.5663C155.849 66.5111 156.352 67.4736 156.808 68.4538C157.277 69.442 157.635 70.4186 157.882 71.3837C158.101 72.2416 158.162 72.997 158.066 73.6498C157.983 74.3105 157.792 74.8792 157.491 75.3559C157.203 75.8405 156.834 76.249 156.382 76.5815C155.94 76.9112 155.474 77.1672 154.984 77.3495C154.497 77.5425 154.013 77.6832 153.533 77.7715C153.053 77.8598 152.629 77.8995 152.261 77.8906C151.896 77.8924 151.607 77.8576 151.395 77.7862C151.193 77.7121 151.124 77.6211 151.188 77.5134C151.265 77.4137 151.498 77.2971 151.887 77.1637C152.275 77.0302 152.881 76.8983 153.705 76.768ZM149.967 61.188C149.217 61.5622 148.635 61.9678 148.221 62.4047C147.815 62.8282 147.534 63.2483 147.378 63.6652C147.23 64.0686 147.19 64.45 147.259 64.8093C147.325 65.158 147.465 65.4364 147.678 65.6448C147.891 65.8531 148.153 65.986 148.465 66.0435C148.785 66.0875 149.113 66.0093 149.45 65.809C149.785 65.598 150.108 65.2527 150.419 64.7734C150.742 64.2912 151.018 63.6268 151.247 62.7801C151.2 62.5978 151.15 62.3994 151.095 62.1849C151.051 61.9677 150.986 61.7788 150.899 61.6182C150.809 61.4468 150.691 61.3172 150.543 61.2294C150.395 61.1416 150.203 61.1278 149.967 61.188ZM158.253 59.2951C158.228 59.1986 158.209 59.1007 158.195 59.0014C158.178 58.8915 158.176 58.7948 158.189 58.7116C158.2 58.6175 158.23 58.5355 158.281 58.4655C158.342 58.3927 158.437 58.3399 158.566 58.307C158.673 58.2796 158.813 58.3353 158.985 58.474C159.166 58.5993 159.359 58.7728 159.564 58.9946C159.766 59.2056 159.97 59.4448 160.175 59.7123C160.391 59.9769 160.581 60.2256 160.743 60.4583C160.913 60.6776 161.054 60.8702 161.164 61.036C161.275 61.2019 161.337 61.2889 161.351 61.2968C161.395 60.8859 161.446 60.4387 161.505 59.9552C161.565 59.4718 161.67 59.0109 161.82 58.5726C161.979 58.1208 162.197 57.7224 162.475 57.3774C162.763 57.0297 163.159 56.7915 163.663 56.6628C163.92 56.5971 164.173 56.5784 164.42 56.6067C164.675 56.6215 164.909 56.6874 165.121 56.8045C165.342 56.9081 165.533 57.0534 165.695 57.2405C165.857 57.4276 165.974 57.6605 166.045 57.9394C166.105 58.1753 166.051 58.3661 165.883 58.5119C165.725 58.655 165.528 58.7566 165.293 58.8169L165.132 58.858L164.263 58.3429C164.242 58.3484 164.225 58.3471 164.211 58.3391C164.19 58.3446 164.168 58.3501 164.147 58.3555C164.133 58.3476 164.116 58.3463 164.094 58.3518C163.719 58.4476 163.452 58.6301 163.292 58.8994C163.14 59.1552 163.05 59.4522 163.022 59.7906C162.992 60.1182 163.004 60.4577 163.06 60.8091C163.123 61.147 163.191 61.4554 163.262 61.7342C163.316 61.9487 163.394 62.163 163.494 62.3773C163.592 62.5808 163.695 62.783 163.804 62.9837C163.909 63.1738 164.012 63.3759 164.113 63.5902C164.21 63.7937 164.289 64.0134 164.349 64.2494C164.464 64.6998 164.281 64.9866 163.798 65.1098C163.53 65.1782 163.216 65.11 162.855 64.9051C162.491 64.6895 162.109 64.3988 161.707 64.0331C161.316 63.6646 160.925 63.2505 160.533 62.7908C160.139 62.3203 159.781 61.8577 159.459 61.403C159.137 60.9482 158.865 60.5322 158.643 60.1548C158.432 59.7747 158.302 59.4881 158.253 59.2951ZM170.658 59.8457C170.488 59.1809 170.486 58.5246 170.652 57.8768C170.815 57.2183 171.097 56.621 171.497 56.0848C171.905 55.5351 172.395 55.0616 172.967 54.6641C173.55 54.2639 174.169 53.9803 174.823 53.8133C175.188 53.7202 175.54 53.756 175.879 53.9207C176.228 54.0827 176.544 54.3107 176.824 54.6045C177.102 54.8877 177.337 55.2046 177.53 55.5553C177.733 55.9032 177.87 56.2166 177.941 56.4954C178.094 57.0959 178.099 57.7173 177.954 58.3596C177.807 58.9912 177.559 59.5857 177.21 60.1431C176.859 60.6898 176.428 61.1711 175.917 61.587C175.407 62.003 174.862 62.2849 174.283 62.4327C173.768 62.5642 173.312 62.5893 172.914 62.508C172.514 62.4161 172.169 62.2527 171.881 62.018C171.59 61.7725 171.34 61.465 171.131 61.0956C170.931 60.7128 170.773 60.2961 170.658 59.8457ZM172.066 59.6575C172.137 59.9363 172.222 60.1775 172.319 60.381C172.425 60.5711 172.556 60.7261 172.712 60.8461C172.879 60.9634 173.076 61.0389 173.301 61.0727C173.524 61.0957 173.786 61.0689 174.086 60.9922C174.483 60.8909 174.852 60.6824 175.194 60.3666C175.534 60.0401 175.816 59.6709 176.042 59.2591C176.276 58.8338 176.438 58.3927 176.527 57.9359C176.616 57.4792 176.611 57.0577 176.513 56.6717C176.469 56.5001 176.405 56.3166 176.321 56.121C176.236 55.9255 176.135 55.7515 176.016 55.5991C175.897 55.4467 175.753 55.3293 175.583 55.2469C175.414 55.1646 175.222 55.1508 175.007 55.2055C174.814 55.2548 174.6 55.378 174.365 55.5752C174.14 55.7696 173.909 56.0056 173.672 56.2833C173.445 56.5582 173.225 56.86 173.012 57.1885C172.81 57.5143 172.629 57.8347 172.469 58.1496C172.31 58.4644 172.19 58.7576 172.111 59.0291C172.043 59.2979 172.028 59.5074 172.066 59.6575ZM181.378 53.596C181.362 53.5317 181.333 53.4191 181.292 53.2582C181.259 53.0839 181.219 52.9056 181.172 52.7233C181.126 52.541 181.083 52.3748 181.045 52.2246C181.015 52.061 180.991 51.9471 180.975 51.8827C181.017 51.7349 181.071 51.5897 181.138 51.4471C181.212 51.291 181.298 51.1778 181.394 51.1075C181.498 51.0238 181.619 50.9816 181.756 50.9809C181.903 50.9775 182.07 51.0491 182.256 51.1958L182.289 51.3245L182.342 51.5336C182.345 51.59 182.357 51.7241 182.376 51.9361C182.394 52.1373 182.411 52.3614 182.428 52.6083C182.445 52.8551 182.459 53.0859 182.468 53.3006C182.485 53.5019 182.5 53.6293 182.514 53.6829C182.566 53.8867 182.653 54.1386 182.776 54.4386C182.895 54.7279 183.035 55.0292 183.195 55.3425C183.365 55.653 183.552 55.9594 183.755 56.2617C183.969 56.5613 184.195 56.8232 184.435 57.0475C184.673 57.2611 184.915 57.4276 185.163 57.5472C185.421 57.664 185.69 57.6868 185.968 57.6156C186.312 57.528 186.589 57.3602 186.799 57.1122C187.021 56.8614 187.191 56.5666 187.31 56.2278C187.429 55.889 187.501 55.5222 187.526 55.1275C187.562 54.73 187.571 54.3394 187.553 53.9556C187.532 53.5611 187.494 53.1882 187.438 52.8368C187.383 52.4855 187.322 52.1811 187.257 51.9237C187.191 51.6664 187.108 51.4306 187.007 51.2163C186.915 50.9886 186.813 50.769 186.702 50.5575C186.591 50.346 186.487 50.1385 186.389 49.9349C186.299 49.718 186.226 49.4969 186.168 49.2717C186.116 49.0679 186.149 48.9054 186.266 48.784C186.395 48.6599 186.55 48.5745 186.732 48.528C186.957 48.4705 187.157 48.4936 187.332 48.5974C187.505 48.6905 187.654 48.8294 187.781 49.0139C187.919 49.1958 188.033 49.418 188.123 49.6806C188.221 49.9298 188.303 50.1831 188.368 50.4404C188.434 50.6978 188.492 50.9458 188.541 51.1845C188.588 51.4124 188.629 51.5961 188.665 51.7355C188.758 52.1001 188.837 52.5198 188.901 52.9946C188.965 53.4694 188.99 53.9712 188.977 54.5001C188.971 55.0156 188.927 55.5352 188.844 56.0591C188.771 56.5802 188.638 57.0654 188.444 57.5146C188.258 57.9504 188.007 58.3288 187.689 58.6499C187.382 58.9682 186.998 59.1862 186.537 59.3039C186.054 59.4271 185.602 59.4227 185.18 59.2906C184.755 59.1478 184.366 58.9215 184.012 58.6119C183.667 58.2889 183.347 57.9079 183.052 57.4692C182.758 57.0304 182.5 56.5821 182.281 56.1242C182.072 55.6635 181.888 55.2135 181.73 54.774C181.58 54.3211 181.463 53.9284 181.378 53.596ZM193.101 51.2711C192.835 50.2309 192.879 49.3972 193.233 48.77C193.587 48.1428 194.262 47.7018 195.26 47.4472C195.667 47.3431 196.095 47.2739 196.543 47.2394C197.002 47.2022 197.438 47.2336 197.852 47.3335C198.263 47.4227 198.624 47.6048 198.934 47.8798C199.255 48.1519 199.482 48.5508 199.617 49.0762C199.764 49.6553 199.775 50.2351 199.649 50.8155C199.531 51.3825 199.337 51.9405 199.066 52.4895C198.803 53.025 198.49 53.5446 198.127 54.0484C197.773 54.5387 197.441 55.0061 197.132 55.4506C197.121 55.499 197.123 55.5956 197.137 55.7405C197.16 55.8719 197.176 55.9591 197.187 56.0019C197.277 56.3558 197.47 56.6837 197.764 56.9856C198.071 57.2954 198.395 57.6011 198.735 57.9028C199.077 58.2151 199.401 58.5437 199.706 58.8884C200.011 59.2332 200.218 59.62 200.328 60.049C200.394 60.3063 200.378 60.4702 200.282 60.5404C200.188 60.6214 199.97 60.7057 199.627 60.7934C199.391 60.7623 199.124 60.6133 198.827 60.3464C198.544 60.0874 198.237 59.7548 197.904 59.3484C197.583 58.9393 197.246 58.4712 196.895 57.9442C196.557 57.4251 196.221 56.894 195.888 56.3507C195.563 55.794 195.246 55.2466 194.938 54.7086C194.637 54.1572 194.365 53.6498 194.121 53.1867C193.877 52.7235 193.662 52.3273 193.475 51.9981C193.296 51.6554 193.171 51.4131 193.101 51.2711ZM194.505 51.0668C194.546 51.2277 194.617 51.4608 194.718 51.7663C194.816 52.0611 194.935 52.3504 195.076 52.6343C195.228 52.9154 195.402 53.1507 195.599 53.3403C195.793 53.5192 196.014 53.5772 196.261 53.5142C196.593 53.4293 196.897 53.2318 197.172 52.9217C197.457 52.6089 197.685 52.2481 197.855 51.8392C198.035 51.4276 198.157 51.0082 198.219 50.5811C198.289 50.1405 198.283 49.7594 198.201 49.4377C198.133 49.1696 198.015 48.9769 197.848 48.8596C197.678 48.7316 197.48 48.6507 197.255 48.617C197.037 48.5697 196.813 48.5642 196.582 48.6002C196.349 48.6255 196.13 48.6642 195.926 48.7162C195.315 48.8723 194.886 49.159 194.638 49.5763C194.399 49.9802 194.354 50.477 194.505 51.0668ZM128.228 99.8932L128.179 99.7001C128.117 99.6817 128.012 99.6741 127.865 99.6776C127.728 99.6782 127.58 99.6817 127.422 99.6878C127.271 99.6805 127.129 99.6826 126.995 99.694C126.858 99.6947 126.763 99.7019 126.709 99.7156C126.57 99.7511 126.355 99.8059 126.066 99.8798C125.784 99.9403 125.46 100.012 125.092 100.094C124.725 100.176 124.342 100.263 123.942 100.354C123.543 100.444 123.159 100.531 122.792 100.613C122.425 100.695 122.096 100.773 121.807 100.847C121.514 100.911 121.304 100.959 121.175 100.992L120.945 100.091C120.926 100.016 121.002 99.9334 121.173 99.844C121.356 99.7518 121.583 99.6594 121.857 99.5667C122.138 99.4606 122.443 99.3598 122.773 99.2642C123.114 99.1658 123.428 99.0797 123.718 99.0058C124.016 98.9184 124.261 98.85 124.454 98.8008C124.658 98.7487 124.776 98.7186 124.808 98.7104C124.969 98.6693 125.192 98.6065 125.479 98.5218C125.766 98.4372 126.082 98.3564 126.428 98.2795C126.774 98.2026 127.135 98.1391 127.51 98.0889C127.886 98.0387 128.238 98.0288 128.565 98.0594C128.893 98.09 129.171 98.1731 129.4 98.3089C129.637 98.4312 129.791 98.6317 129.862 98.9106C130.04 99.6076 130.14 100.222 130.161 100.753C130.191 101.271 130.182 101.753 130.136 102.199C130.098 102.631 130.045 103.05 129.977 103.456C129.92 103.859 129.89 104.278 129.887 104.713C129.884 105.148 129.936 105.62 130.043 106.129C130.15 106.639 130.352 107.227 130.648 107.894C130.58 108.208 130.479 108.44 130.345 108.588C130.209 108.725 130.028 108.823 129.803 108.881C129.75 108.894 129.679 108.907 129.59 108.918C129.512 108.926 129.463 108.933 129.441 108.939C129.417 108.888 129.376 108.795 129.319 108.661C129.27 108.514 129.211 108.306 129.143 108.038C129.072 107.759 128.999 107.407 128.924 106.98C128.847 106.543 128.767 106.009 128.686 105.379C128.613 104.735 128.54 103.977 128.466 103.105C128.392 102.233 128.327 101.221 128.273 100.07L128.228 99.8932ZM145.694 98.4664C145.428 97.4262 145.472 96.5925 145.826 95.9653C146.18 95.3381 146.856 94.8971 147.853 94.6425C148.26 94.5384 148.688 94.4692 149.136 94.4347C149.595 94.3975 150.031 94.4289 150.445 94.5288C150.857 94.618 151.217 94.8001 151.527 95.075C151.848 95.3472 152.075 95.7461 152.21 96.2715C152.358 96.8506 152.368 97.4304 152.243 98.0108C152.125 98.5778 151.93 99.1358 151.659 99.6847C151.396 100.22 151.083 100.74 150.721 101.244C150.366 101.734 150.034 102.201 149.725 102.646C149.715 102.694 149.716 102.791 149.731 102.936C149.753 103.067 149.769 103.154 149.78 103.197C149.87 103.551 150.063 103.879 150.357 104.181C150.664 104.491 150.988 104.796 151.328 105.098C151.67 105.41 151.994 105.739 152.299 106.084C152.604 106.428 152.811 106.815 152.921 107.244C152.987 107.502 152.971 107.665 152.875 107.736C152.782 107.817 152.563 107.901 152.22 107.989C151.984 107.958 151.717 107.809 151.421 107.542C151.137 107.283 150.83 106.95 150.498 106.544C150.176 106.135 149.839 105.667 149.488 105.139C149.15 104.62 148.814 104.089 148.481 103.546C148.156 102.989 147.84 102.442 147.531 101.904C147.23 101.352 146.958 100.845 146.714 100.382C146.47 99.9188 146.255 99.5226 146.068 99.1933C145.889 98.8506 145.764 98.6083 145.694 98.4664ZM147.098 98.2621C147.139 98.4229 147.21 98.6561 147.311 98.9616C147.409 99.2564 147.528 99.5457 147.669 99.8296C147.821 100.111 147.996 100.346 148.192 100.536C148.387 100.714 148.607 100.772 148.854 100.709C149.186 100.625 149.49 100.427 149.765 100.117C150.05 99.8042 150.278 99.4434 150.448 99.0345C150.628 98.6229 150.75 98.2035 150.812 97.7764C150.882 97.3358 150.876 96.9547 150.794 96.6329C150.726 96.3648 150.608 96.1722 150.441 96.0549C150.271 95.9269 150.073 95.846 149.848 95.8122C149.63 95.765 149.406 95.7594 149.175 95.7955C148.942 95.8208 148.723 95.8595 148.52 95.9115C147.908 96.0676 147.479 96.3543 147.231 96.7716C146.992 97.1754 146.947 97.6723 147.098 98.2621ZM156.017 94.9567C155.949 94.6886 155.938 94.4685 155.986 94.2965C156.044 94.1217 156.223 93.996 156.523 93.9193C156.555 93.9111 156.616 93.9014 156.704 93.8902C156.801 93.8656 156.86 93.8505 156.881 93.8451C157.041 94.1583 157.209 94.5038 157.386 94.8814C157.57 95.2455 157.766 95.6123 157.975 95.9817C158.184 96.3511 158.401 96.7124 158.629 97.0656C158.867 97.416 159.122 97.7221 159.394 97.9838C159.535 97.7308 159.613 97.4539 159.628 97.1532C159.642 96.8525 159.635 96.5572 159.607 96.2675C159.576 95.967 159.544 95.6839 159.51 95.4183C159.485 95.1393 159.508 94.8936 159.579 94.6811C159.648 94.458 159.784 94.2748 159.987 94.1315C160.201 93.9855 160.523 93.9033 160.952 93.8851C161.403 93.7701 161.784 93.7641 162.096 93.8673C162.405 93.9597 162.689 94.1099 162.947 94.318C163.214 94.5126 163.476 94.7314 163.732 94.9744C163.996 95.2039 164.302 95.3943 164.649 95.5456C164.678 95.3898 164.714 95.1976 164.759 94.9693C164.8 94.7301 164.862 94.4802 164.944 94.2194C165.034 93.9451 165.131 93.6749 165.234 93.4086C165.345 93.1289 165.469 92.8746 165.605 92.6457C165.738 92.4062 165.886 92.2028 166.049 92.0355C166.209 91.8575 166.38 91.7453 166.562 91.6987C167.002 91.5865 167.418 91.6287 167.811 91.8254C168.201 92.0113 168.562 92.2846 168.894 92.6454C169.234 92.9926 169.545 93.4045 169.827 93.8809C170.105 94.3465 170.348 94.8043 170.554 95.2543C170.76 95.7042 170.93 96.1235 171.064 96.512C171.205 96.8871 171.298 97.1605 171.342 97.332C171.377 97.4715 171.373 97.5869 171.327 97.6784C171.282 97.7699 171.217 97.8494 171.131 97.9169C171.043 97.9738 170.941 98.0226 170.826 98.0634C170.722 98.1015 170.621 98.1329 170.524 98.1576C170.503 98.163 170.471 98.1712 170.428 98.1822C170.382 98.1824 170.331 98.184 170.275 98.187C170.229 98.1872 170.166 98.1862 170.086 98.1839L167.812 93.6413C167.804 93.6091 167.746 93.5611 167.638 93.4972C167.528 93.4226 167.448 93.3801 167.4 93.3696C167.368 93.3778 167.34 93.3793 167.316 93.374C167.294 93.3795 167.278 93.3836 167.267 93.3863C167.254 93.3784 167.242 93.3757 167.231 93.3785C167.006 93.436 166.815 93.5819 166.657 93.8162C166.511 94.0478 166.387 94.3249 166.287 94.6475C166.187 94.9702 166.105 95.3222 166.043 95.7037C165.98 96.0852 165.934 96.4626 165.903 96.8359C165.87 97.1984 165.843 97.5368 165.82 97.851C165.805 98.1517 165.79 98.3839 165.775 98.5478C165.738 98.5802 165.657 98.6235 165.534 98.6778C165.408 98.7214 165.324 98.7487 165.281 98.7596C164.981 98.8363 164.724 98.7933 164.511 98.6306C164.296 98.4572 164.094 98.2287 163.908 97.9451C163.732 97.6587 163.56 97.3429 163.392 96.9974C163.232 96.6385 163.058 96.3173 162.872 96.0337C162.696 95.7473 162.49 95.5255 162.256 95.3683C162.03 95.1977 161.756 95.1534 161.434 95.2356C161.316 95.2657 161.234 95.4124 161.187 95.6757C161.14 95.939 161.12 96.2639 161.127 96.6504C161.132 97.0262 161.15 97.4328 161.182 97.8702C161.211 98.2968 161.245 98.6993 161.284 99.0776C161.332 99.4424 161.376 99.7509 161.418 100.003C161.459 100.255 161.48 100.381 161.48 100.381C161.467 100.419 161.433 100.467 161.38 100.527C161.324 100.575 161.264 100.631 161.2 100.693C161.146 100.752 161.085 100.802 161.015 100.843C160.956 100.88 160.911 100.903 160.879 100.912C160.578 100.988 160.255 100.928 159.907 100.731C159.557 100.524 159.21 100.236 158.864 99.8669C158.527 99.4847 158.194 99.0555 157.867 98.5793C157.551 98.1004 157.264 97.6254 157.006 97.1542C156.749 96.6831 156.531 96.2533 156.352 95.865C156.183 95.4739 156.072 95.1712 156.017 94.9567Z" fill="#5C5345"/>
<path d="M79.6451 85.7914C79.7866 85.6296 79.952 85.4274 80.1414 85.1849C80.3387 84.9289 80.5334 84.6622 80.7252 84.3847C80.9171 84.1073 81.0902 83.8232 81.2444 83.5325C81.3987 83.2418 81.5074 82.9742 81.5706 82.7296C81.6418 82.4716 81.6527 82.246 81.6034 82.053C81.5541 81.86 81.4166 81.7237 81.1907 81.6444C80.8475 81.732 80.4763 81.8439 80.077 81.9801C79.675 82.1056 79.2702 82.2204 78.8627 82.3244C78.4525 82.4177 78.0461 82.4815 77.6436 82.5157C77.2519 82.5472 76.884 82.5155 76.5399 82.4206C76.1958 82.3257 75.8929 82.146 75.6312 81.8816C75.3775 81.6037 75.1877 81.2181 75.0617 80.7248C74.9139 80.1457 74.8883 79.5983 74.985 79.0824C75.0898 78.553 75.2792 78.0649 75.5535 77.6179C75.825 77.1602 76.1517 76.7398 76.5337 76.3567C76.9236 75.9602 77.3245 75.6065 77.7363 75.2957C78.0343 75.2996 78.3259 75.3679 78.6111 75.5007C78.8963 75.6335 79.1548 75.796 79.3866 75.9881C79.3718 76.2432 79.2682 76.4638 79.0759 76.65C78.8943 76.8334 78.671 77.0104 78.4061 77.1808C78.1519 77.3485 77.883 77.5257 77.5994 77.7123C77.3158 77.899 77.0686 78.1163 76.8578 78.3643C76.655 78.5989 76.5047 78.8828 76.4071 79.2162C76.3067 79.5388 76.3154 79.9307 76.4331 80.3918C76.5207 80.7349 76.6709 80.965 76.8835 81.0821C77.0962 81.1991 77.3501 81.2542 77.6453 81.2474C77.9379 81.2298 78.2597 81.1705 78.6108 81.0694C78.9592 80.9576 79.3116 80.8391 79.668 80.7138C80.0351 80.5858 80.3956 80.4766 80.7495 80.3863C81.1006 80.2852 81.4279 80.2473 81.7314 80.2726C82.0321 80.2872 82.2889 80.3759 82.5018 80.5385C82.7254 80.6985 82.8879 80.9768 82.9892 81.3736C83.033 81.5452 83.0301 81.7801 82.9806 82.0783C82.9418 82.3738 82.8656 82.7016 82.752 83.0619C82.6464 83.4087 82.5032 83.7651 82.3225 84.1311C82.1525 84.4943 81.9596 84.8349 81.7438 85.1527C81.5359 85.4571 81.3131 85.7253 81.0754 85.9573C80.8456 86.1759 80.6128 86.3153 80.3769 86.3756C80.1517 86.4331 79.981 86.391 79.8649 86.2493C79.7595 86.1049 79.6862 85.9522 79.6451 85.7914ZM85.5421 76.4211C85.5339 76.3889 85.5324 76.3607 85.5377 76.3365C85.5322 76.3151 85.5307 76.2869 85.5332 76.252C85.5624 76.1874 85.609 76.1013 85.6729 75.9936C85.7367 75.8859 85.7794 75.8293 85.8009 75.8239L89.034 74.9983C89.0039 74.8804 88.9399 74.6968 88.842 74.4477C88.7442 74.1985 88.6394 73.9225 88.5278 73.6198C88.427 73.3143 88.3395 72.9939 88.2653 72.6587C88.1884 72.3128 88.1533 71.9963 88.1599 71.709C88.1745 71.4083 88.2457 71.1502 88.3735 70.9349C88.5092 70.706 88.7379 70.5505 89.0597 70.4684C89.3362 71.5515 89.6331 72.4009 89.9502 73.0167C90.2674 73.6325 90.5944 74.0859 90.9314 74.3768C91.2792 74.665 91.6276 74.8216 91.9767 74.8467C92.3258 74.8718 92.6652 74.8365 92.9949 74.7409C93.3325 74.6318 93.6513 74.4933 93.9511 74.3254C94.2509 74.1575 94.52 74.0259 94.7584 73.9308C95.0076 73.8329 95.2182 73.8077 95.3902 73.8552C95.5595 73.8919 95.6825 74.0604 95.7592 74.3606C95.8167 74.5858 95.8041 74.7604 95.7215 74.8843C95.6497 75.0054 95.4758 75.1298 95.1999 75.2573C95.1169 75.29 94.9776 75.3484 94.7821 75.4326C94.5945 75.5033 94.3802 75.5809 94.139 75.6653C93.8978 75.7497 93.6419 75.8436 93.3713 75.947C93.098 76.0396 92.8407 76.1281 92.5996 76.2126C92.3584 76.297 92.1373 76.3706 91.9363 76.4333C91.7326 76.4854 91.5824 76.5237 91.4859 76.5483C91.4996 76.6019 91.5175 76.6945 91.5396 76.8259C91.5618 76.9573 91.5783 77.0445 91.5893 77.0874C91.7098 77.5592 91.9026 78.0012 92.1677 78.4132C92.4301 78.8146 92.7032 79.2132 92.987 79.609C93.2816 80.0021 93.5601 80.3994 93.8225 80.8007C94.0849 81.202 94.2763 81.6386 94.3968 82.1105C94.4187 82.1963 94.4312 82.2902 94.4344 82.3921C94.4456 82.4807 94.434 82.5693 94.3995 82.6581C94.3731 82.7334 94.3157 82.7994 94.2274 82.8562C94.1525 82.921 94.0278 82.9472 93.8533 82.9346C93.4184 82.9314 93.0539 82.7789 92.7598 82.477C92.4764 82.1724 92.2249 81.7912 92.0052 81.3333C91.7827 80.8646 91.5855 80.3609 91.4137 79.8223C91.2419 79.2836 91.0582 78.7879 90.8627 78.3352C90.6751 77.8691 90.4639 77.4889 90.2288 77.1948C89.9911 76.89 89.6964 76.7425 89.3448 76.7523L86.0596 76.8372C86.0167 76.8482 85.9414 76.8217 85.8337 76.7578C85.7233 76.6832 85.6519 76.6272 85.6195 76.5898C85.6033 76.5711 85.5911 76.5457 85.5829 76.5135C85.5667 76.4948 85.5531 76.464 85.5421 76.4211ZM99.9276 74.3929C99.9112 74.3286 99.8824 74.216 99.8413 74.0551C99.8082 73.8808 99.7684 73.7025 99.7219 73.5202C99.6753 73.3379 99.6329 73.1717 99.5946 73.0215C99.5642 72.8579 99.5408 72.744 99.5244 72.6796C99.5666 72.5318 99.6209 72.3865 99.6873 72.2439C99.7617 72.0879 99.847 71.9747 99.9433 71.9044C100.048 71.8207 100.168 71.7785 100.305 71.7778C100.453 71.7744 100.619 71.846 100.805 71.9927L100.838 72.1214L100.892 72.3305C100.895 72.3869 100.906 72.521 100.926 72.733C100.943 72.9342 100.96 73.1583 100.978 73.4052C100.995 73.652 101.008 73.8828 101.017 74.0975C101.034 74.2988 101.05 74.4262 101.063 74.4798C101.116 74.6836 101.203 74.9355 101.325 75.2355C101.445 75.5248 101.584 75.8261 101.744 76.1394C101.915 76.4499 102.102 76.7563 102.305 77.0586C102.518 77.3582 102.745 77.6201 102.985 77.8444C103.222 78.058 103.465 78.2245 103.712 78.3441C103.97 78.4609 104.239 78.4837 104.518 78.4125C104.861 78.3249 105.138 78.1571 105.349 77.9091C105.57 77.6583 105.741 77.3635 105.86 77.0247C105.979 76.6859 106.051 76.3191 106.076 75.9244C106.111 75.5269 106.12 75.1363 106.102 74.7525C106.081 74.358 106.043 73.9851 105.988 73.6337C105.932 73.2824 105.872 72.978 105.806 72.7206C105.74 72.4633 105.657 72.2274 105.557 72.0132C105.464 71.7855 105.363 71.5659 105.252 71.3544C105.14 71.1429 105.036 70.9354 104.938 70.7318C104.849 70.5149 104.775 70.2938 104.718 70.0686C104.666 69.8648 104.698 69.7023 104.816 69.5809C104.944 69.4567 105.099 69.3714 105.282 69.3249C105.507 69.2674 105.707 69.2905 105.882 69.3943C106.054 69.4874 106.204 69.6263 106.331 69.8108C106.469 69.9927 106.583 70.2149 106.673 70.4775C106.77 70.7267 106.852 70.9799 106.918 71.2373C106.984 71.4947 107.041 71.7427 107.091 71.9814C107.138 72.2093 107.179 72.393 107.214 72.5324C107.307 72.897 107.386 73.3167 107.45 73.7915C107.514 74.2663 107.54 74.7681 107.526 75.297C107.521 75.8125 107.476 76.3321 107.393 76.856C107.32 77.3771 107.187 77.8623 106.994 78.3115C106.808 78.7473 106.556 79.1257 106.238 79.4468C105.931 79.7651 105.547 79.9831 105.086 80.1008C104.603 80.224 104.151 80.2196 103.729 80.0875C103.304 79.9447 102.915 79.7184 102.562 79.4088C102.217 79.0858 101.897 78.7048 101.602 78.2661C101.307 77.8273 101.05 77.379 100.83 76.9211C100.621 76.4604 100.438 76.0104 100.28 75.5709C100.13 75.118 100.012 74.7253 99.9276 74.3929ZM112.327 76.1958C112.168 75.5739 112.183 74.9819 112.37 74.4199C112.558 73.858 112.838 73.3412 113.208 72.8695C113.576 72.3872 113.997 71.9543 114.47 71.5707C114.941 71.1764 115.386 70.84 115.806 70.5614C116.223 70.2721 116.575 70.0395 116.861 69.8636C117.145 69.6769 117.279 69.5514 117.262 69.4871C117.166 69.1118 117.052 68.7526 116.919 68.4097C116.793 68.0533 116.663 67.6983 116.527 67.3446C116.391 66.991 116.256 66.6427 116.123 66.2998C115.997 65.9434 115.89 65.5882 115.799 65.2344L115.532 64.1888C115.931 63.9157 116.246 63.8524 116.478 63.9988C116.72 64.1426 116.837 64.4668 116.829 64.9715C116.932 65.1965 117.085 65.5514 117.289 66.0362C117.493 66.5211 117.718 67.0689 117.966 67.6797C118.224 68.2877 118.49 68.928 118.765 69.6004C119.05 70.27 119.317 70.9156 119.568 71.5371C119.826 72.1452 120.051 72.693 120.244 73.1806C120.434 73.6574 120.577 74.0151 120.672 74.2535C120.697 74.3044 120.735 74.4089 120.787 74.567C120.836 74.7144 120.883 74.8792 120.93 75.0615C120.985 75.2304 121.031 75.3899 121.069 75.54C121.118 75.6874 121.151 75.7933 121.168 75.8576C120.76 75.9617 120.477 76.0168 120.319 76.0229C120.171 76.0263 120.064 75.9853 119.996 75.8997C119.939 75.8114 119.888 75.6761 119.841 75.4938C119.794 75.3115 119.677 75.0732 119.487 74.7789C119.17 75.1912 118.86 75.5444 118.558 75.8385C118.256 76.1326 117.945 76.3891 117.624 76.6082C117.3 76.8165 116.961 76.9887 116.608 77.1247C116.268 77.2686 115.894 77.3926 115.486 77.4967C115.143 77.5843 114.804 77.6424 114.468 77.6709C114.141 77.686 113.835 77.6499 113.55 77.5628C113.265 77.4756 113.014 77.3225 112.799 77.1035C112.583 76.8844 112.426 76.5819 112.327 76.1958ZM113.64 75.5007C113.684 75.6723 113.757 75.8021 113.86 75.8902C113.962 75.9783 114.082 76.0448 114.219 76.0897C114.356 76.1347 114.493 76.1568 114.63 76.1561C114.775 76.142 114.912 76.1185 115.04 76.0856C115.416 75.9898 115.8 75.8174 116.193 75.5685C116.595 75.3061 116.945 74.9996 117.244 74.6492C117.551 74.2853 117.775 73.8909 117.918 73.466C118.072 73.0384 118.094 72.6102 117.984 72.1812C117.899 71.8488 117.782 71.6333 117.631 71.5347C117.48 71.4362 117.238 71.4293 116.906 71.5142C116.563 71.6018 116.181 71.7849 115.761 72.0635C115.352 72.3394 114.967 72.6661 114.606 73.0437C114.257 73.4186 113.983 73.8253 113.787 74.2639C113.588 74.6917 113.539 75.104 113.64 75.5007ZM123.039 66.6243C123.014 66.5278 122.989 66.4312 122.965 66.3347C122.948 66.2248 122.945 66.1228 122.955 66.0288C122.973 65.9213 123.009 65.8379 123.063 65.7786C123.124 65.7058 123.224 65.6516 123.364 65.616C123.375 65.6133 123.385 65.6105 123.396 65.6078C123.417 65.6023 123.439 65.5968 123.46 65.5914C123.495 65.5939 123.523 65.5924 123.545 65.5869C123.82 65.8137 124.089 66.1278 124.351 66.5291C124.611 66.9197 124.873 67.3439 125.138 67.8016C125.401 68.2485 125.677 68.7035 125.967 69.1664C126.253 69.6187 126.576 70.0103 126.935 70.3414C127.294 70.6724 127.691 70.908 128.126 71.0481C128.562 71.1882 129.054 71.1709 129.604 70.9964C129.85 70.9334 129.977 70.7583 129.984 70.471C129.99 70.1838 129.94 69.831 129.833 69.4128C129.737 68.9919 129.609 68.5335 129.448 68.0377C129.298 67.5391 129.176 67.0619 129.082 66.6061C128.997 66.1367 128.975 65.7141 129.016 65.338C129.067 64.9593 129.245 64.6685 129.547 64.4657C129.757 64.7089 129.982 65.1198 130.221 65.6984C130.469 66.2636 130.713 66.9321 130.956 67.704C131.196 68.4651 131.433 69.3014 131.665 70.213C131.895 71.1137 132.104 72.02 132.291 72.9318C132.475 73.8328 132.63 74.7071 132.755 75.5547C132.88 76.4023 132.969 77.1508 133.02 77.8002C133.072 78.4495 133.068 78.9703 133.008 79.3625C132.961 79.7627 132.851 79.9566 132.677 79.944C132.397 79.787 132.148 79.5534 131.932 79.2431C131.727 78.9301 131.544 78.5713 131.383 78.1668C131.233 77.7595 131.104 77.3186 130.994 76.844C130.887 76.3801 130.784 75.9095 130.685 75.4322C130.597 74.9522 130.511 74.4828 130.428 74.0242C130.356 73.5629 130.272 73.1445 130.176 72.7692C129.798 72.9 129.387 72.9423 128.941 72.8962C128.506 72.8474 128.055 72.7168 127.59 72.5043C127.122 72.2812 126.653 71.9896 126.184 71.6296C125.726 71.2668 125.291 70.8355 124.877 70.3356C124.475 69.8329 124.115 69.2737 123.798 68.6579C123.478 68.0314 123.225 67.3535 123.039 66.6243ZM153.705 76.768C154.305 76.6147 154.813 76.3652 155.227 76.0195C155.644 75.6845 155.964 75.283 156.187 74.8148C156.424 74.3546 156.565 73.8559 156.611 73.3188C156.67 72.7897 156.632 72.2624 156.498 71.737C156.43 71.4689 156.323 71.1191 156.179 70.6876C156.045 70.2534 155.886 69.7858 155.701 69.2848C155.516 68.7837 155.301 68.2788 155.057 67.77C154.824 67.2585 154.571 66.7859 154.301 66.3524C154.028 65.9082 153.733 65.5379 153.418 65.2415C153.11 64.9317 152.792 64.7387 152.464 64.6624C152.24 64.9481 152.018 65.2163 151.796 65.4671C151.572 65.7071 151.33 65.9231 151.07 66.115C150.811 66.3068 150.535 66.48 150.244 66.6345C149.949 66.7782 149.625 66.8953 149.271 66.9857C148.81 67.1034 148.402 67.1618 148.048 67.1609C147.704 67.1572 147.394 67.0823 147.116 66.9361C146.85 66.7871 146.621 66.56 146.429 66.255C146.236 65.9499 146.076 65.5454 145.947 65.0414C145.857 64.6875 145.855 64.3224 145.942 63.9462C146.026 63.5592 146.17 63.1854 146.375 62.8247C146.588 62.4505 146.84 62.0949 147.131 61.7579C147.432 61.4181 147.748 61.1092 148.076 60.8311C148.416 60.5502 148.756 60.3149 149.096 60.1253C149.446 59.933 149.766 59.7999 150.056 59.7259C150.335 59.6547 150.568 59.6066 150.756 59.5815C150.941 59.5457 151.107 59.5489 151.255 59.5911C151.4 59.6226 151.535 59.7024 151.659 59.8306C151.791 59.9454 151.932 60.1152 152.08 60.3399C152.541 61.1134 153.055 61.9416 153.623 62.8246C154.191 63.7076 154.75 64.6215 155.3 65.5663C155.849 66.5111 156.352 67.4736 156.808 68.4538C157.277 69.442 157.635 70.4186 157.882 71.3837C158.101 72.2416 158.162 72.997 158.066 73.6498C157.983 74.3105 157.792 74.8792 157.491 75.3559C157.203 75.8405 156.834 76.249 156.382 76.5815C155.94 76.9112 155.474 77.1672 154.984 77.3495C154.497 77.5425 154.013 77.6832 153.533 77.7715C153.053 77.8598 152.629 77.8995 152.261 77.8906C151.896 77.8924 151.607 77.8576 151.395 77.7862C151.193 77.7121 151.124 77.6211 151.188 77.5134C151.265 77.4137 151.498 77.2971 151.887 77.1637C152.275 77.0302 152.881 76.8983 153.705 76.768ZM149.967 61.188C149.217 61.5622 148.635 61.9678 148.221 62.4047C147.815 62.8282 147.534 63.2483 147.378 63.6652C147.23 64.0686 147.19 64.45 147.259 64.8093C147.325 65.158 147.465 65.4364 147.678 65.6448C147.891 65.8531 148.153 65.986 148.465 66.0435C148.785 66.0875 149.113 66.0093 149.45 65.809C149.785 65.598 150.108 65.2527 150.419 64.7734C150.742 64.2912 151.018 63.6268 151.247 62.7801C151.2 62.5978 151.15 62.3994 151.095 62.1849C151.051 61.9677 150.986 61.7788 150.899 61.6182C150.809 61.4468 150.691 61.3172 150.543 61.2294C150.395 61.1416 150.203 61.1278 149.967 61.188ZM158.253 59.2951C158.228 59.1986 158.209 59.1007 158.195 59.0014C158.178 58.8915 158.176 58.7948 158.189 58.7116C158.2 58.6175 158.23 58.5355 158.281 58.4655C158.342 58.3927 158.437 58.3399 158.566 58.307C158.673 58.2796 158.813 58.3353 158.985 58.474C159.166 58.5993 159.359 58.7728 159.564 58.9946C159.766 59.2056 159.97 59.4448 160.175 59.7123C160.391 59.9769 160.581 60.2256 160.743 60.4583C160.913 60.6776 161.054 60.8702 161.164 61.036C161.275 61.2019 161.337 61.2889 161.351 61.2968C161.395 60.8859 161.446 60.4387 161.505 59.9552C161.565 59.4718 161.67 59.0109 161.82 58.5726C161.979 58.1208 162.197 57.7224 162.475 57.3774C162.763 57.0297 163.159 56.7915 163.663 56.6628C163.92 56.5971 164.173 56.5784 164.42 56.6067C164.675 56.6215 164.909 56.6874 165.121 56.8045C165.342 56.9081 165.533 57.0534 165.695 57.2405C165.857 57.4276 165.974 57.6605 166.045 57.9394C166.105 58.1753 166.051 58.3661 165.883 58.5119C165.725 58.655 165.528 58.7566 165.293 58.8169L165.132 58.858L164.263 58.3429C164.242 58.3484 164.225 58.3471 164.211 58.3391C164.19 58.3446 164.168 58.3501 164.147 58.3555C164.133 58.3476 164.116 58.3463 164.094 58.3518C163.719 58.4476 163.452 58.6301 163.292 58.8994C163.14 59.1552 163.05 59.4522 163.022 59.7906C162.992 60.1182 163.004 60.4577 163.06 60.8091C163.123 61.147 163.191 61.4554 163.262 61.7342C163.316 61.9487 163.394 62.163 163.494 62.3773C163.592 62.5808 163.695 62.783 163.804 62.9837C163.909 63.1738 164.012 63.3759 164.113 63.5902C164.21 63.7937 164.289 64.0134 164.349 64.2494C164.464 64.6998 164.281 64.9866 163.798 65.1098C163.53 65.1782 163.216 65.11 162.855 64.9051C162.491 64.6895 162.109 64.3988 161.707 64.0331C161.316 63.6646 160.925 63.2505 160.533 62.7908C160.139 62.3203 159.781 61.8577 159.459 61.403C159.137 60.9482 158.865 60.5322 158.643 60.1548C158.432 59.7747 158.302 59.4881 158.253 59.2951ZM170.658 59.8457C170.488 59.1809 170.486 58.5246 170.652 57.8768C170.815 57.2183 171.097 56.621 171.497 56.0848C171.905 55.5351 172.395 55.0616 172.967 54.6641C173.55 54.2639 174.169 53.9803 174.823 53.8133C175.188 53.7202 175.54 53.756 175.879 53.9207C176.228 54.0827 176.544 54.3107 176.824 54.6045C177.102 54.8877 177.337 55.2046 177.53 55.5553C177.733 55.9032 177.87 56.2166 177.941 56.4954C178.094 57.0959 178.099 57.7173 177.954 58.3596C177.807 58.9912 177.559 59.5857 177.21 60.1431C176.859 60.6898 176.428 61.1711 175.917 61.587C175.407 62.003 174.862 62.2849 174.283 62.4327C173.768 62.5642 173.312 62.5893 172.914 62.508C172.514 62.4161 172.169 62.2527 171.881 62.018C171.59 61.7725 171.34 61.465 171.131 61.0956C170.931 60.7128 170.773 60.2961 170.658 59.8457ZM172.066 59.6575C172.137 59.9363 172.222 60.1775 172.319 60.381C172.425 60.5711 172.556 60.7261 172.712 60.8461C172.879 60.9634 173.076 61.0389 173.301 61.0727C173.524 61.0957 173.786 61.0689 174.086 60.9922C174.483 60.8909 174.852 60.6824 175.194 60.3666C175.534 60.0401 175.816 59.6709 176.042 59.2591C176.276 58.8338 176.438 58.3927 176.527 57.9359C176.616 57.4792 176.611 57.0577 176.513 56.6717C176.469 56.5001 176.405 56.3166 176.321 56.121C176.236 55.9255 176.135 55.7515 176.016 55.5991C175.897 55.4467 175.753 55.3293 175.583 55.2469C175.414 55.1646 175.222 55.1508 175.007 55.2055C174.814 55.2548 174.6 55.378 174.365 55.5752C174.14 55.7696 173.909 56.0056 173.672 56.2833C173.445 56.5582 173.225 56.86 173.012 57.1885C172.81 57.5143 172.629 57.8347 172.469 58.1496C172.31 58.4644 172.19 58.7576 172.111 59.0291C172.043 59.2979 172.028 59.5074 172.066 59.6575ZM181.378 53.596C181.362 53.5317 181.333 53.4191 181.292 53.2582C181.259 53.0839 181.219 52.9056 181.172 52.7233C181.126 52.541 181.083 52.3748 181.045 52.2246C181.015 52.061 180.991 51.9471 180.975 51.8827C181.017 51.7349 181.071 51.5897 181.138 51.4471C181.212 51.291 181.298 51.1778 181.394 51.1075C181.498 51.0238 181.619 50.9816 181.756 50.9809C181.903 50.9775 182.07 51.0491 182.256 51.1958L182.289 51.3245L182.342 51.5336C182.345 51.59 182.357 51.7241 182.376 51.9361C182.394 52.1373 182.411 52.3614 182.428 52.6083C182.445 52.8551 182.459 53.0859 182.468 53.3006C182.485 53.5019 182.5 53.6293 182.514 53.6829C182.566 53.8867 182.653 54.1386 182.776 54.4386C182.895 54.7279 183.035 55.0292 183.195 55.3425C183.365 55.653 183.552 55.9594 183.755 56.2617C183.969 56.5613 184.195 56.8232 184.435 57.0475C184.673 57.2611 184.915 57.4276 185.163 57.5472C185.421 57.664 185.69 57.6868 185.968 57.6156C186.312 57.528 186.589 57.3602 186.799 57.1122C187.021 56.8614 187.191 56.5666 187.31 56.2278C187.429 55.889 187.501 55.5222 187.526 55.1275C187.562 54.73 187.571 54.3394 187.553 53.9556C187.532 53.5611 187.494 53.1882 187.438 52.8368C187.383 52.4855 187.322 52.1811 187.257 51.9237C187.191 51.6664 187.108 51.4306 187.007 51.2163C186.915 50.9886 186.813 50.769 186.702 50.5575C186.591 50.346 186.487 50.1385 186.389 49.9349C186.299 49.718 186.226 49.4969 186.168 49.2717C186.116 49.0679 186.149 48.9054 186.266 48.784C186.395 48.6599 186.55 48.5745 186.732 48.528C186.957 48.4705 187.157 48.4936 187.332 48.5974C187.505 48.6905 187.654 48.8294 187.781 49.0139C187.919 49.1958 188.033 49.418 188.123 49.6806C188.221 49.9298 188.303 50.1831 188.368 50.4404C188.434 50.6978 188.492 50.9458 188.541 51.1845C188.588 51.4124 188.629 51.5961 188.665 51.7355C188.758 52.1001 188.837 52.5198 188.901 52.9946C188.965 53.4694 188.99 53.9712 188.977 54.5001C188.971 55.0156 188.927 55.5352 188.844 56.0591C188.771 56.5802 188.638 57.0654 188.444 57.5146C188.258 57.9504 188.007 58.3288 187.689 58.6499C187.382 58.9682 186.998 59.1862 186.537 59.3039C186.054 59.4271 185.602 59.4227 185.18 59.2906C184.755 59.1478 184.366 58.9215 184.012 58.6119C183.667 58.2889 183.347 57.9079 183.052 57.4692C182.758 57.0304 182.5 56.5821 182.281 56.1242C182.072 55.6635 181.888 55.2135 181.73 54.774C181.58 54.3211 181.463 53.9284 181.378 53.596ZM193.101 51.2711C192.835 50.2309 192.879 49.3972 193.233 48.77C193.587 48.1428 194.262 47.7018 195.26 47.4472C195.667 47.3431 196.095 47.2739 196.543 47.2394C197.002 47.2022 197.438 47.2336 197.852 47.3335C198.263 47.4227 198.624 47.6048 198.934 47.8798C199.255 48.1519 199.482 48.5508 199.617 49.0762C199.764 49.6553 199.775 50.2351 199.649 50.8155C199.531 51.3825 199.337 51.9405 199.066 52.4895C198.803 53.025 198.49 53.5446 198.127 54.0484C197.773 54.5387 197.441 55.0061 197.132 55.4506C197.121 55.499 197.123 55.5956 197.137 55.7405C197.16 55.8719 197.176 55.9591 197.187 56.0019C197.277 56.3558 197.47 56.6837 197.764 56.9856C198.071 57.2954 198.395 57.6011 198.735 57.9028C199.077 58.2151 199.401 58.5437 199.706 58.8884C200.011 59.2332 200.218 59.62 200.328 60.049C200.394 60.3063 200.378 60.4702 200.282 60.5404C200.188 60.6214 199.97 60.7057 199.627 60.7934C199.391 60.7623 199.124 60.6133 198.827 60.3464C198.544 60.0874 198.237 59.7548 197.904 59.3484C197.583 58.9393 197.246 58.4712 196.895 57.9442C196.557 57.4251 196.221 56.894 195.888 56.3507C195.563 55.794 195.246 55.2466 194.938 54.7086C194.637 54.1572 194.365 53.6498 194.121 53.1867C193.877 52.7235 193.662 52.3273 193.475 51.9981C193.296 51.6554 193.171 51.4131 193.101 51.2711ZM194.505 51.0668C194.546 51.2277 194.617 51.4608 194.718 51.7663C194.816 52.0611 194.935 52.3504 195.076 52.6343C195.228 52.9154 195.402 53.1507 195.599 53.3403C195.793 53.5192 196.014 53.5772 196.261 53.5142C196.593 53.4293 196.897 53.2318 197.172 52.9217C197.457 52.6089 197.685 52.2481 197.855 51.8392C198.035 51.4276 198.157 51.0082 198.219 50.5811C198.289 50.1405 198.283 49.7594 198.201 49.4377C198.133 49.1696 198.015 48.9769 197.848 48.8596C197.678 48.7316 197.48 48.6507 197.255 48.617C197.037 48.5697 196.813 48.5642 196.582 48.6002C196.349 48.6255 196.13 48.6642 195.926 48.7162C195.315 48.8723 194.886 49.159 194.638 49.5763C194.399 49.9802 194.354 50.477 194.505 51.0668ZM128.228 99.8932L128.179 99.7001C128.117 99.6817 128.012 99.6741 127.865 99.6776C127.728 99.6782 127.58 99.6817 127.422 99.6878C127.271 99.6805 127.129 99.6826 126.995 99.694C126.858 99.6947 126.763 99.7019 126.709 99.7156C126.57 99.7511 126.355 99.8059 126.066 99.8798C125.784 99.9403 125.46 100.012 125.092 100.094C124.725 100.176 124.342 100.263 123.942 100.354C123.543 100.444 123.159 100.531 122.792 100.613C122.425 100.695 122.096 100.773 121.807 100.847C121.514 100.911 121.304 100.959 121.175 100.992L120.945 100.091C120.926 100.016 121.002 99.9334 121.173 99.844C121.356 99.7518 121.583 99.6594 121.857 99.5667C122.138 99.4606 122.443 99.3598 122.773 99.2642C123.114 99.1658 123.428 99.0797 123.718 99.0058C124.016 98.9184 124.261 98.85 124.454 98.8008C124.658 98.7487 124.776 98.7186 124.808 98.7104C124.969 98.6693 125.192 98.6065 125.479 98.5218C125.766 98.4372 126.082 98.3564 126.428 98.2795C126.774 98.2026 127.135 98.1391 127.51 98.0889C127.886 98.0387 128.238 98.0288 128.565 98.0594C128.893 98.09 129.171 98.1731 129.4 98.3089C129.637 98.4312 129.791 98.6317 129.862 98.9106C130.04 99.6076 130.14 100.222 130.161 100.753C130.191 101.271 130.182 101.753 130.136 102.199C130.098 102.631 130.045 103.05 129.977 103.456C129.92 103.859 129.89 104.278 129.887 104.713C129.884 105.148 129.936 105.62 130.043 106.129C130.15 106.639 130.352 107.227 130.648 107.894C130.58 108.208 130.479 108.44 130.345 108.588C130.209 108.725 130.028 108.823 129.803 108.881C129.75 108.894 129.679 108.907 129.59 108.918C129.512 108.926 129.463 108.933 129.441 108.939C129.417 108.888 129.376 108.795 129.319 108.661C129.27 108.514 129.211 108.306 129.143 108.038C129.072 107.759 128.999 107.407 128.924 106.98C128.847 106.543 128.767 106.009 128.686 105.379C128.613 104.735 128.54 103.977 128.466 103.105C128.392 102.233 128.327 101.221 128.273 100.07L128.228 99.8932ZM145.694 98.4664C145.428 97.4262 145.472 96.5925 145.826 95.9653C146.18 95.3381 146.856 94.8971 147.853 94.6425C148.26 94.5384 148.688 94.4692 149.136 94.4347C149.595 94.3975 150.031 94.4289 150.445 94.5288C150.857 94.618 151.217 94.8001 151.527 95.075C151.848 95.3472 152.075 95.7461 152.21 96.2715C152.358 96.8506 152.368 97.4304 152.243 98.0108C152.125 98.5778 151.93 99.1358 151.659 99.6847C151.396 100.22 151.083 100.74 150.721 101.244C150.366 101.734 150.034 102.201 149.725 102.646C149.715 102.694 149.716 102.791 149.731 102.936C149.753 103.067 149.769 103.154 149.78 103.197C149.87 103.551 150.063 103.879 150.357 104.181C150.664 104.491 150.988 104.796 151.328 105.098C151.67 105.41 151.994 105.739 152.299 106.084C152.604 106.428 152.811 106.815 152.921 107.244C152.987 107.502 152.971 107.665 152.875 107.736C152.782 107.817 152.563 107.901 152.22 107.989C151.984 107.958 151.717 107.809 151.421 107.542C151.137 107.283 150.83 106.95 150.498 106.544C150.176 106.135 149.839 105.667 149.488 105.139C149.15 104.62 148.814 104.089 148.481 103.546C148.156 102.989 147.84 102.442 147.531 101.904C147.23 101.352 146.958 100.845 146.714 100.382C146.47 99.9188 146.255 99.5226 146.068 99.1933C145.889 98.8506 145.764 98.6083 145.694 98.4664ZM147.098 98.2621C147.139 98.4229 147.21 98.6561 147.311 98.9616C147.409 99.2564 147.528 99.5457 147.669 99.8296C147.821 100.111 147.996 100.346 148.192 100.536C148.387 100.714 148.607 100.772 148.854 100.709C149.186 100.625 149.49 100.427 149.765 100.117C150.05 99.8042 150.278 99.4434 150.448 99.0345C150.628 98.6229 150.75 98.2035 150.812 97.7764C150.882 97.3358 150.876 96.9547 150.794 96.6329C150.726 96.3648 150.608 96.1722 150.441 96.0549C150.271 95.9269 150.073 95.846 149.848 95.8122C149.63 95.765 149.406 95.7594 149.175 95.7955C148.942 95.8208 148.723 95.8595 148.52 95.9115C147.908 96.0676 147.479 96.3543 147.231 96.7716C146.992 97.1754 146.947 97.6723 147.098 98.2621ZM156.017 94.9567C155.949 94.6886 155.938 94.4685 155.986 94.2965C156.044 94.1217 156.223 93.996 156.523 93.9193C156.555 93.9111 156.616 93.9014 156.704 93.8902C156.801 93.8656 156.86 93.8505 156.881 93.8451C157.041 94.1583 157.209 94.5038 157.386 94.8814C157.57 95.2455 157.766 95.6123 157.975 95.9817C158.184 96.3511 158.401 96.7124 158.629 97.0656C158.867 97.416 159.122 97.7221 159.394 97.9838C159.535 97.7308 159.613 97.4539 159.628 97.1532C159.642 96.8525 159.635 96.5572 159.607 96.2675C159.576 95.967 159.544 95.6839 159.51 95.4183C159.485 95.1393 159.508 94.8936 159.579 94.6811C159.648 94.458 159.784 94.2748 159.987 94.1315C160.201 93.9855 160.523 93.9033 160.952 93.8851C161.403 93.7701 161.784 93.7641 162.096 93.8673C162.405 93.9597 162.689 94.1099 162.947 94.318C163.214 94.5126 163.476 94.7314 163.732 94.9744C163.996 95.2039 164.302 95.3943 164.649 95.5456C164.678 95.3898 164.714 95.1976 164.759 94.9693C164.8 94.7301 164.862 94.4802 164.944 94.2194C165.034 93.9451 165.131 93.6749 165.234 93.4086C165.345 93.1289 165.469 92.8746 165.605 92.6457C165.738 92.4062 165.886 92.2028 166.049 92.0355C166.209 91.8575 166.38 91.7453 166.562 91.6987C167.002 91.5865 167.418 91.6287 167.811 91.8254C168.201 92.0113 168.562 92.2846 168.894 92.6454C169.234 92.9926 169.545 93.4045 169.827 93.8809C170.105 94.3465 170.348 94.8043 170.554 95.2543C170.76 95.7042 170.93 96.1235 171.064 96.512C171.205 96.8871 171.298 97.1605 171.342 97.332C171.377 97.4715 171.373 97.5869 171.327 97.6784C171.282 97.7699 171.217 97.8494 171.131 97.9169C171.043 97.9738 170.941 98.0226 170.826 98.0634C170.722 98.1015 170.621 98.1329 170.524 98.1576C170.503 98.163 170.471 98.1712 170.428 98.1822C170.382 98.1824 170.331 98.184 170.275 98.187C170.229 98.1872 170.166 98.1862 170.086 98.1839L167.812 93.6413C167.804 93.6091 167.746 93.5611 167.638 93.4972C167.528 93.4226 167.448 93.3801 167.4 93.3696C167.368 93.3778 167.34 93.3793 167.316 93.374C167.294 93.3795 167.278 93.3836 167.267 93.3863C167.254 93.3784 167.242 93.3757 167.231 93.3785C167.006 93.436 166.815 93.5819 166.657 93.8162C166.511 94.0478 166.387 94.3249 166.287 94.6475C166.187 94.9702 166.105 95.3222 166.043 95.7037C165.98 96.0852 165.934 96.4626 165.903 96.8359C165.87 97.1984 165.843 97.5368 165.82 97.851C165.805 98.1517 165.79 98.3839 165.775 98.5478C165.738 98.5802 165.657 98.6235 165.534 98.6778C165.408 98.7214 165.324 98.7487 165.281 98.7596C164.981 98.8363 164.724 98.7933 164.511 98.6306C164.296 98.4572 164.094 98.2287 163.908 97.9451C163.732 97.6587 163.56 97.3429 163.392 96.9974C163.232 96.6385 163.058 96.3173 162.872 96.0337C162.696 95.7473 162.49 95.5255 162.256 95.3683C162.03 95.1977 161.756 95.1534 161.434 95.2356C161.316 95.2657 161.234 95.4124 161.187 95.6757C161.14 95.939 161.12 96.2639 161.127 96.6504C161.132 97.0262 161.15 97.4328 161.182 97.8702C161.211 98.2968 161.245 98.6993 161.284 99.0776C161.332 99.4424 161.376 99.7509 161.418 100.003C161.459 100.255 161.48 100.381 161.48 100.381C161.467 100.419 161.433 100.467 161.38 100.527C161.324 100.575 161.264 100.631 161.2 100.693C161.146 100.752 161.085 100.802 161.015 100.843C160.956 100.88 160.911 100.903 160.879 100.912C160.578 100.988 160.255 100.928 159.907 100.731C159.557 100.524 159.21 100.236 158.864 99.8669C158.527 99.4847 158.194 99.0555 157.867 98.5793C157.551 98.1004 157.264 97.6254 157.006 97.1542C156.749 96.6831 156.531 96.2533 156.352 95.865C156.183 95.4739 156.072 95.1712 156.017 94.9567Z" fill="url(#paint2_radial)"/>
</g>
<defs>
<filter id="filter0_d" x="0.00369263" y="0.696594" width="278.379" height="184.937" filterUnits="userSpaceOnUse" color-interpolation-filters="sRGB">
<feFlood flood-opacity="0" result="BackgroundImageFix"/>
<feColorMatrix in="SourceAlpha" type="matrix" values="0 0 0 0 0 0 0 0 0 0 0 0 0 0 0 0 0 0 127 0"/>
<feOffset dx="15" dy="10"/>
<feGaussianBlur stdDeviation="7.5"/>
<feColorMatrix type="matrix" values="0 0 0 0 0.921569 0 0 0 0 0.721569 0 0 0 0 0.627451 0 0 0 1 0"/>
<feBlend mode="normal" in2="BackgroundImageFix" result="effect1_dropShadow"/>
<feBlend mode="normal" in="SourceGraphic" in2="effect1_dropShadow" result="shape"/>
</filter>
<radialGradient id="paint0_radial" cx="0" cy="0" r="1" gradientUnits="userSpaceOnUse" gradientTransform="translate(124.905 82.8166) rotate(75) scale(49.4643 116.057)">
<stop stop-color="#ADCB9B"/>
<stop offset="1" stop-color="white" stop-opacity="0"/>
</radialGradient>
<radialGradient id="paint1_radial" cx="0" cy="0" r="1" gradientUnits="userSpaceOnUse" gradientTransform="translate(134.479 102.276) rotate(80.4893) scale(72.5278 294.502)">
<stop stop-color="#FAF4F3"/>
<stop offset="1" stop-color="#F2F2F2"/>
</radialGradient>
<radialGradient id="paint2_radial" cx="0" cy="0" r="1" gradientUnits="userSpaceOnUse" gradientTransform="translate(141.627 81.0572) rotate(89.6311) scale(57.944 271.612)">
<stop stop-color="#9DA798"/>
<stop offset="1" stop-color="white" stop-opacity="0"/>
</radialGradient>
</defs>
</svg>
