<svg width="49" height="49" viewBox="0 0 49 49" fill="none" xmlns="http://www.w3.org/2000/svg">
<circle cx="24.7766" cy="24.2234" r="23.2234" stroke="white" stroke-width="2"/>
<g clip-path="url(#clip0)">
<path d="M39 15.3183C37.9587 15.775 36.8492 16.0777 35.6925 16.2247C36.8825 15.5142 37.7908 14.3977 38.2178 13.052C37.1083 13.7135 35.8832 14.1808 34.5777 14.4415C33.5242 13.3198 32.0227 12.625 30.3847 12.625C27.2067 12.625 24.6482 15.2045 24.6482 18.3668C24.6482 18.8218 24.6867 19.2592 24.7812 19.6757C20.009 19.443 15.7863 17.1558 12.9495 13.6715C12.4542 14.5308 12.1638 15.5143 12.1638 16.573C12.1638 18.561 13.1875 20.3232 14.7135 21.3435C13.7912 21.326 12.8865 21.0583 12.12 20.6365C12.12 20.654 12.12 20.6767 12.12 20.6995C12.12 23.489 14.1097 25.806 16.719 26.3397C16.2517 26.4675 15.7425 26.5287 15.214 26.5287C14.8465 26.5287 14.4755 26.5077 14.1272 26.4307C14.871 28.704 16.9815 30.3752 19.491 30.4295C17.538 31.9572 15.0583 32.8777 12.3738 32.8777C11.903 32.8777 11.4515 32.8567 11 32.799C13.5427 34.4387 16.5563 35.375 19.806 35.375C30.369 35.375 36.144 26.625 36.144 19.0405C36.144 18.7867 36.1352 18.5418 36.123 18.2985C37.2622 17.49 38.2195 16.4803 39 15.3183Z" fill="white"/>
</g>
<defs>
<clipPath id="clip0">
<rect width="28" height="28" fill="white" transform="translate(11 10)"/>
</clipPath>
</defs>
</svg>
